font.ufo
<glyph name="parenright" format="1">
  <advance width="489"/>
  <unicode hex="0029"/>
  <outline>
    <contour>
      <point x="135" y="-135" type="line"/>
      <point x="303" y="29"/>
      <point x="507" y="313"/>
      <point x="397" y="477" type="curve" smooth="yes"/>
      <point x="329" y="578"/>
      <point x="150" y="766"/>
      <point x="84" y="812" type="curve"/>
      <point x="57" y="761" type="line"/>
      <point x="125" y="716"/>
      <point x="205" y="605"/>
      <point x="227" y="572" type="curve" smooth="yes"/>
      <point x="411" y="300"/>
      <point x="195" y="108"/>
      <point x="50" y="-42" type="curve"/>
    </contour>
  </outline>
</glyph>
<glyph name="zero" format="1">
  <advance width="641"/>
  <unicode hex="0030"/>
  <outline>
    <contour>
      <point x="414" y="723" type="move" name="top"/>
    </contour>
    <contour>
      <point x="518" y="526" type="curve" smooth="yes"/>
      <point x="711" y="340"/>
      <point x="514" y="-117"/>
      <point x="271" y="-15" type="curve" smooth="yes"/>
      <point x="244" y="-4"/>
      <point x="185" y="35"/>
      <point x="145" y="79" type="curve" smooth="yes"/>
      <point x="-73" y="319"/>
      <point x="240" y="750"/>
      <point x="368" y="654" type="curve" smooth="yes"/>
      <point x="451" y="592"/>
      <point x="477" y="565"/>
    </contour>
    <contour>
      <point x="429" y="532" type="curve" smooth="yes"/>
      <point x="276" y="657"/>
      <point x="66" y="213"/>
      <point x="231" y="91" type="curve" smooth="yes"/>
      <point x="419" y="-48"/>
      <point x="563" y="422"/>
    </contour>
  </outline>
</glyph>
<glyph name="nine" format="1">
  <advance width="502"/>
  <unicode hex="0039"/>
  <outline>
    <contour>
      <point x="168" y="-30" type="line"/>
      <point x="261" y="18"/>
      <point x="337" y="93"/>
      <point x="387" y="184" type="curve" smooth="yes"/>
      <point x="461" y="318"/>
      <point x="483" y="468"/>
      <point x="439" y="515" type="curve" smooth="yes"/>
      <point x="388" y="570"/>
      <point x="312" y="624"/>
      <point x="237" y="660" type="curve" smooth="yes"/>
      <point x="137" y="708"/>
      <point x="-36" y="498"/>
      <point x="57" y="377" type="curve" smooth="yes"/>
      <point x="80" y="347"/>
      <point x="129" y="310"/>
      <point x="194" y="260" type="curve" smooth="yes"/>
      <point x="212" y="246"/>
      <point x="262" y="259"/>
      <point x="303" y="273" type="curve"/>
      <point x="298" y="262"/>
      <point x="292" y="251"/>
      <point x="286" y="240" type="curve" smooth="yes"/>
      <point x="239" y="155"/>
      <point x="157" y="78"/>
      <point x="73" y="38" type="curve"/>
    </contour>
    <contour>
      <point x="182" y="344" type="curve" smooth="yes"/>
      <point x="90" y="402"/>
      <point x="205" y="621"/>
      <point x="308" y="564" type="curve" smooth="yes"/>
      <point x="355" y="537"/>
      <point x="362" y="440"/>
      <point x="327" y="334" type="curve"/>
      <point x="271" y="321"/>
      <point x="210" y="326"/>
    </contour>
  </outline>
</glyph>
<glyph name="less" format="1">
  <advance width="499"/>
  <unicode hex="003C"/>
  <outline>
    <contour>
      <point x="40" y="321" type="line"/>
      <point x="396" y="41" type="line"/>
      <point x="460" y="111" type="line"/>
      <point x="216" y="292" type="line"/>
      <point x="469" y="503" type="line"/>
      <point x="359" y="582" type="line"/>
    </contour>
  </outline>
</glyph>
<glyph name="greater" format="1">
  <advance width="499"/>
  <unicode hex="003E"/>
  <outline>
    <contour>
      <point x="459" y="341" type="line"/>
      <point x="366" y="271" type="line"/>
      <point x="43" y="520" type="line"/>
      <point x="140" y="582" type="line"/>
    </contour>
    <contour>
      <point x="394" y="383" type="line"/>
      <point x="459" y="341" type="line"/>
      <point x="136" y="75" type="line"/>
      <point x="81" y="139" type="line"/>
    </contour>
  </outline>
</glyph>
<glyph name="A" format="1">
  <advance width="657"/>
  <unicode hex="0041"/>
  <outline>
    <contour>
      <point x="338" y="743" type="move" name="top"/>
    </contour>
    <contour>
      <point x="403" y="8" type="move" name="ogonek"/>
    </contour>
    <contour>
      <point x="528" y="0" type="line"/>
      <point x="647" y="-29" type="line"/>
      <point x="379" y="622" type="line"/>
      <point x="380" y="625" type="line"/>
      <point x="252" y="666" type="line"/>
      <point x="10" y="0" type="line"/>
      <point x="140" y="-29" type="line"/>
      <point x="212" y="167" type="line"/>
      <point x="458" y="183" type="line"/>
    </contour>
    <contour>
      <point x="335" y="503" type="line"/>
      <point x="426" y="266" type="line"/>
      <point x="244" y="254" type="line"/>
    </contour>
  </outline>
</glyph>
<glyph name="F" format="1">
  <advance width="582"/>
  <unicode hex="0046"/>
  <outline>
    <contour>
      <point x="70" y="355" type="line"/>
      <point x="457" y="355" type="line"/>
      <point x="537" y="265" type="line"/>
      <point x="150" y="265" type="line"/>
    </contour>
    <contour>
      <point x="70" y="667" type="line"/>
      <point x="497" y="667" type="line"/>
      <point x="577" y="577" type="line"/>
      <point x="150" y="577" type="line"/>
    </contour>
    <contour>
      <point x="210" y="-29" type="line"/>
      <point x="70" y="0" type="line"/>
      <point x="70" y="666" type="line"/>
      <point x="208" y="625" type="line"/>
    </contour>
  </outline>
</glyph>
<glyph name="G" format="1">
  <advance width="876"/>
  <unicode hex="0047"/>
  <outline>
    <contour>
      <point x="461" y="723" type="move" name="top"/>
    </contour>
    <contour>
      <point x="750" y="297" type="line"/>
      <point x="622" y="338" type="line"/>
      <point x="389" y="338" type="line"/>
      <point x="469" y="248" type="line"/>
      <point x="622" y="248" type="line"/>
      <point x="622" y="158" type="line"/>
      <point x="543" y="99"/>
      <point x="447" y="39"/>
      <point x="321" y="111" type="curve" smooth="yes"/>
      <point x="63" y="257"/>
      <point x="304" y="686"/>
      <point x="497" y="591" type="curve" smooth="yes"/>
      <point x="568" y="556"/>
      <point x="617" y="530"/>
      <point x="646" y="512" type="curve"/>
      <point x="646" y="512"/>
      <point x="701" y="580"/>
      <point x="701" y="581" type="curve"/>
      <point x="632" y="616"/>
      <point x="590" y="636"/>
      <point x="465" y="693" type="curve" smooth="yes"/>
      <point x="240" y="796"/>
      <point x="-94" y="379"/>
      <point x="194" y="114" type="curve" smooth="yes"/>
      <point x="227" y="84"/>
      <point x="269" y="52"/>
      <point x="349" y="5" type="curve" smooth="yes"/>
      <point x="438" y="-47"/>
      <point x="536" y="-32"/>
      <point x="622" y="14" type="curve"/>
      <point x="622" y="-74" type="line"/>
      <point x="752" y="-103" type="line"/>
    </contour>
  </outline>
</glyph>
<glyph name="K" format="1">
  <advance width="695"/>
  <unicode hex="004B"/>
  <outline>
    <contour>
      <point x="685" y="-29" type="line"/>
      <point x="555" y="0" type="line"/>
      <point x="365" y="288" type="line"/>
      <point x="217" y="102" type="line"/>
      <point x="218" y="-29" type="line"/>
      <point x="88" y="0" type="line"/>
      <point x="88" y="126" type="line"/>
      <point x="85" y="127" type="line"/>
      <point x="88" y="131" type="line"/>
      <point x="88" y="666" type="line"/>
      <point x="216" y="625" type="line"/>
      <point x="217" y="294" type="line"/>
      <point x="512" y="666" type="line"/>
      <point x="642" y="637" type="line"/>
      <point x="422" y="361" type="line"/>
      <point x="423" y="361" type="line"/>
    </contour>
  </outline>
</glyph>
<glyph name="L" format="1">
  <advance width="670"/>
  <unicode hex="004C"/>
  <outline>
    <contour>
      <point x="338" y="743" type="move" name="top"/>
    </contour>
    <contour>
      <point x="165" y="0" type="line"/>
      <point x="612" y="0" type="line"/>
      <point x="532" y="90" type="line"/>
      <point x="215" y="90" type="line"/>
      <point x="213" y="625" type="line"/>
      <point x="85" y="666" type="line"/>
      <point x="85" y="90" type="line"/>
    </contour>
  </outline>
</glyph>
<glyph name="O" format="1">
  <advance width="846"/>
  <unicode hex="004F"/>
  <outline>
    <contour>
      <point x="502" y="743" type="move" name="top"/>
    </contour>
    <contour>
      <point x="671" y="537" type="curve" smooth="yes"/>
      <point x="905" y="349"/>
      <point x="674" y="-186"/>
      <point x="332" y="15" type="curve" smooth="yes"/>
      <point x="269" y="52"/>
      <point x="227" y="84"/>
      <point x="194" y="114" type="curve" smooth="yes"/>
      <point x="-94" y="379"/>
      <point x="233" y="820"/>
      <point x="458" y="686" type="curve" smooth="yes"/>
      <point x="560" y="625"/>
      <point x="605" y="590"/>
    </contour>
    <contour>
      <point x="526" y="563" type="curve" smooth="yes"/>
      <point x="307" y="715"/>
      <point x="69" y="282"/>
      <point x="321" y="111" type="curve" smooth="yes"/>
      <point x="546" y="-41"/>
      <point x="763" y="398"/>
    </contour>
  </outline>
</glyph>
<glyph name="P" format="1">
  <advance width="549"/>
  <unicode hex="0050"/>
  <outline>
    <contour>
      <point x="543" y="473" type="curve" smooth="yes"/>
      <point x="514" y="518"/>
      <point x="472" y="611"/>
      <point x="427" y="652" type="curve" smooth="yes"/>
      <point x="413" y="664"/>
      <point x="131" y="666"/>
      <point x="45" y="666" type="curve"/>
      <point x="45" y="0" type="line"/>
      <point x="175" y="-29" type="line"/>
      <point x="174" y="214" type="line"/>
      <point x="501" y="115"/>
      <point x="571" y="429"/>
    </contour>
    <contour>
      <point x="421" y="531" type="curve" smooth="yes"/>
      <point x="470" y="482"/>
      <point x="426" y="255"/>
      <point x="174" y="302" type="curve"/>
      <point x="173" y="538" type="line"/>
      <point x="268" y="555"/>
      <point x="388" y="564"/>
    </contour>
  </outline>
</glyph>
<glyph name="Q" format="1">
  <advance width="843"/>
  <unicode hex="0051"/>
  <outline>
    <contour>
      <point x="400" y="-219" type="curve"/>
      <point x="646" y="-126"/>
      <point x="246" y="56"/>
      <point x="217" y="96" type="curve"/>
      <point x="266" y="96" type="line"/>
      <point x="306" y="63"/>
      <point x="520" y="-59"/>
      <point x="572" y="-97" type="curve" smooth="yes"/>
      <point x="652" y="-155"/>
      <point x="621" y="-282"/>
    </contour>
    <contour>
      <point x="710" y="523" type="curve" smooth="yes"/>
      <point x="920" y="319"/>
      <point x="652" y="-160"/>
      <point x="363" y="4" type="curve" smooth="yes"/>
      <point x="291" y="44"/>
      <point x="246" y="63"/>
      <point x="154" y="152" type="curve" smooth="yes"/>
      <point x="-49" y="346"/>
      <point x="224" y="825"/>
      <point x="487" y="683" type="curve" smooth="yes"/>
      <point x="587" y="629"/>
      <point x="649" y="582"/>
    </contour>
    <contour>
      <point x="554" y="572" type="curve" smooth="yes"/>
      <point x="307" y="729"/>
      <point x="97" y="237"/>
      <point x="317" y="102" type="curve" smooth="yes"/>
      <point x="558" y="-46"/>
      <point x="770" y="435"/>
    </contour>
  </outline>
</glyph>
<glyph name="R" format="1">
  <advance width="601"/>
  <unicode hex="0052"/>
  <outline>
    <contour>
      <point x="367" y="743" type="move" name="top"/>
    </contour>
    <contour>
      <point x="45" y="0" type="line"/>
      <point x="175" y="-29" type="line"/>
      <point x="174" y="263" type="line"/>
      <point x="228" y="247"/>
      <point x="275" y="242"/>
      <point x="316" y="243" type="curve"/>
      <point x="360" y="149"/>
      <point x="479" y="-52"/>
      <point x="604" y="-126" type="curve" smooth="yes"/>
      <point x="697" y="-181"/>
      <point x="763" y="-156"/>
      <point x="770" y="-153" type="curve" smooth="yes"/>
      <point x="761" y="-157"/>
      <point x="701" y="-175"/>
      <point x="616" y="-83" type="curve" smooth="yes"/>
      <point x="558" y="-20"/>
      <point x="477" y="178"/>
      <point x="439" y="278" type="curve"/>
      <point x="536" y="335"/>
      <point x="560" y="446"/>
      <point x="543" y="473" type="curve" smooth="yes"/>
      <point x="514" y="518"/>
      <point x="472" y="611"/>
      <point x="427" y="652" type="curve" smooth="yes"/>
      <point x="413" y="664"/>
      <point x="131" y="666"/>
      <point x="45" y="666" type="curve"/>
    </contour>
    <contour>
      <point x="421" y="531" type="curve" smooth="yes"/>
      <point x="470" y="483"/>
      <point x="410" y="292"/>
      <point x="174" y="342" type="curve"/>
      <point x="173" y="538" type="line"/>
      <point x="268" y="555"/>
      <point x="388" y="564"/>
    </contour>
  </outline>
</glyph>
<glyph name="S" format="1">
  <advance width="640"/>
  <unicode hex="0053"/>
  <outline>
    <contour>
      <point x="400" y="743" type="move" name="top"/>
    </contour>
    <contour>
      <point x="191" y="0" type="move" name="cedilla"/>
    </contour>
    <contour>
      <point x="519" y="510" type="line"/>
      <point x="336" y="648"/>
      <point x="166" y="531"/>
      <point x="200" y="380" type="curve" smooth="yes"/>
      <point x="206" y="354"/>
      <point x="423" y="432"/>
      <point x="463" y="408" type="curve" smooth="yes"/>
      <point x="886" y="159"/>
      <point x="291" y="-325"/>
      <point x="27" y="214" type="curve"/>
      <point x="44" y="264" type="line"/>
      <point x="210" y="-21"/>
      <point x="544" y="77"/>
      <point x="476" y="306" type="curve" smooth="yes"/>
      <point x="469" y="328"/>
      <point x="250" y="205"/>
      <point x="192" y="253" type="curve" smooth="yes"/>
      <point x="152" y="285"/>
      <point x="121" y="311"/>
      <point x="99" y="348" type="curve" smooth="yes"/>
      <point x="-30" y="561"/>
      <point x="308" y="795"/>
      <point x="515" y="578" type="curve"/>
    </contour>
  </outline>
</glyph>
<glyph name="W" format="1">
  <advance width="1108"/>
  <unicode hex="0057"/>
  <outline>
    <contour>
      <point x="378" y="40" type="line"/>
      <point x="269" y="12" type="line"/>
      <point x="0" y="666" type="line"/>
      <point x="139" y="637" type="line"/>
    </contour>
    <contour>
      <point x="487" y="666" type="line"/>
      <point x="637" y="637" type="line"/>
      <point x="415" y="-29" type="line"/>
      <point x="267" y="12" type="line"/>
    </contour>
    <contour>
      <point x="876" y="40" type="line"/>
      <point x="767" y="12" type="line"/>
      <point x="498" y="663" type="line"/>
      <point x="637" y="637" type="line"/>
    </contour>
    <contour>
      <point x="985" y="666" type="line"/>
      <point x="1135" y="637" type="line"/>
      <point x="913" y="-29" type="line"/>
      <point x="765" y="12" type="line"/>
    </contour>
  </outline>
</glyph>
<glyph name="a" format="1">
  <advance width="580"/>
  <unicode hex="0061"/>
  <outline>
    <contour>
      <point x="432" y="507" type="move" name="top"/>
    </contour>
    <contour>
      <point x="402" y="7" type="move" name="ogonek"/>
    </contour>
    <contour>
      <point x="120" y="351" type="line"/>
      <point x="273" y="397"/>
      <point x="404" y="435"/>
      <point x="402" y="348" type="curve" smooth="yes"/>
      <point x="396" y="0" type="line"/>
      <point x="510" y="-29" type="line"/>
      <point x="506" y="56"/>
      <point x="524" y="300"/>
      <point x="506" y="327" type="curve" smooth="yes"/>
      <point x="481" y="364"/>
      <point x="361" y="489"/>
      <point x="329" y="491" type="curve" smooth="yes"/>
      <point x="297" y="493"/>
      <point x="150" y="463"/>
      <point x="66" y="442" type="curve"/>
    </contour>
    <contour>
      <point x="405" y="322" type="curve" smooth="yes"/>
      <point x="405" y="325"/>
      <point x="60" y="291"/>
      <point x="59" y="190" type="curve" smooth="yes"/>
      <point x="59" y="144"/>
      <point x="186" y="-29"/>
      <point x="255" y="-30" type="curve" smooth="yes"/>
      <point x="321" y="-31"/>
      <point x="419" y="86"/>
      <point x="419" y="86" type="curve"/>
      <point x="408" y="172" type="line"/>
      <point x="267" y="60"/>
      <point x="198" y="60"/>
      <point x="170" y="100" type="curve" smooth="yes"/>
      <point x="102" y="199"/>
      <point x="388" y="243"/>
      <point x="410" y="251" type="curve"/>
      <point x="410" y="251"/>
      <point x="407" y="300"/>
    </contour>
  </outline>
</glyph>
<glyph name="d" format="1">
  <advance width="602"/>
  <unicode hex="0064"/>
  <outline>
    <contour>
      <point x="424" y="710" type="line"/>
      <point x="424" y="425" type="line"/>
      <point x="387" y="449"/>
      <point x="348" y="473"/>
      <point x="310" y="485" type="curve" smooth="yes"/>
      <point x="176" y="527"/>
      <point x="-94" y="167"/>
      <point x="192" y="11" type="curve" smooth="yes"/>
      <point x="325" y="-62"/>
      <point x="434" y="-21"/>
      <point x="539" y="1" type="curve"/>
      <point x="545" y="7"/>
      <point x="539" y="682"/>
      <point x="539" y="682" type="curve"/>
    </contour>
    <contour>
      <point x="218" y="67" type="curve" smooth="yes"/>
      <point x="118" y="131"/>
      <point x="214" y="395"/>
      <point x="343" y="391" type="curve" smooth="yes"/>
      <point x="371" y="390"/>
      <point x="394" y="378"/>
      <point x="424" y="360" type="curve"/>
      <point x="424" y="80" type="line"/>
      <point x="354" y="39"/>
      <point x="267" y="36"/>
    </contour>
  </outline>
</glyph>
<glyph name="g" format="1">
  <advance width="599"/>
  <unicode hex="0067"/>
  <outline>
    <contour>
      <point x="343" y="507" type="move" name="top"/>
    </contour>
    <contour>
      <point x="398" y="108" type="curve" smooth="yes"/>
      <point x="314" y="70"/>
      <point x="155" y="23"/>
      <point x="164" y="5" type="curve" smooth="yes"/>
      <point x="187" y="-42"/>
      <point x="404" y="64"/>
      <point x="445" y="22" type="curve" smooth="yes"/>
      <point x="594" y="-131"/>
      <point x="457" y="-264"/>
      <point x="270" y="-255" type="curve" smooth="yes"/>
      <point x="171" y="-250"/>
      <point x="101" y="-197"/>
      <point x="45" y="-131" type="curve"/>
      <point x="78" y="-109" type="line"/>
      <point x="190" y="-243"/>
      <point x="393" y="-207"/>
      <point x="409" y="-56" type="curve" smooth="yes"/>
      <point x="411" y="-36"/>
      <point x="209" y="-141"/>
      <point x="157" y="-91" type="curve" smooth="yes"/>
      <point x="135" y="-70"/>
      <point x="71" y="31"/>
      <point x="53" y="58" type="curve" smooth="yes"/>
      <point x="34" y="87"/>
      <point x="114" y="102"/>
      <point x="198" y="127" type="curve"/>
      <point x="174" y="142"/>
      <point x="160" y="159"/>
      <point x="123" y="187" type="curve" smooth="yes"/>
      <point x="-55" y="324"/>
      <point x="176" y="533"/>
      <point x="274" y="482" type="curve" smooth="yes"/>
      <point x="312" y="462"/>
      <point x="337" y="447"/>
      <point x="361" y="430" type="curve"/>
      <point x="360" y="432" type="line"/>
      <point x="548" y="432" type="line"/>
      <point x="578" y="362" type="line"/>
      <point x="446" y="362" type="line"/>
      <point x="514" y="291"/>
      <point x="468" y="140"/>
    </contour>
    <contour>
      <point x="332" y="390" type="curve" smooth="yes"/>
      <point x="209" y="476"/>
      <point x="86" y="256"/>
      <point x="209" y="179" type="curve" smooth="yes"/>
      <point x="327" y="105"/>
      <point x="450" y="308"/>
    </contour>
  </outline>
</glyph>
<glyph name="h" format="1">
  <advance width="614"/>
  <unicode hex="0068"/>
  <outline>
    <contour>
      <point x="180" y="682" type="line"/>
      <point x="65" y="710" type="line"/>
      <point x="65" y="-1" type="line"/>
      <point x="180" y="-29" type="line"/>
      <point x="180" y="234" type="line"/>
      <point x="250" y="325"/>
      <point x="384" y="434"/>
      <point x="424" y="362" type="curve" smooth="yes"/>
      <point x="435" y="342"/>
      <point x="429" y="-1"/>
      <point x="429" y="-1" type="curve"/>
      <point x="429" y="-1"/>
      <point x="544" y="-29"/>
      <point x="543" y="-29" type="curve" smooth="yes"/>
      <point x="543" y="-29"/>
      <point x="544" y="270"/>
      <point x="539" y="303" type="curve" smooth="yes"/>
      <point x="533" y="339"/>
      <point x="395" y="485"/>
      <point x="351" y="488" type="curve" smooth="yes"/>
      <point x="291" y="492"/>
      <point x="224" y="439"/>
      <point x="180" y="394" type="curve"/>
    </contour>
  </outline>
</glyph>
<glyph name="j" format="1">
  <advance width="265"/>
  <unicode hex="006A"/>
  <outline>
    <contour>
      <point x="126" y="710" type="curve" smooth="yes"/>
      <point x="157" y="710"/>
      <point x="186" y="686"/>
      <point x="186" y="651" type="curve" smooth="yes"/>
      <point x="186" y="614"/>
      <point x="156" y="591"/>
      <point x="126" y="591" type="curve" smooth="yes"/>
      <point x="94" y="591"/>
      <point x="65" y="615"/>
      <point x="65" y="651" type="curve" smooth="yes"/>
      <point x="65" y="686"/>
      <point x="94" y="710"/>
    </contour>
    <contour>
      <point x="180" y="522" type="curve"/>
      <point x="67" y="522" type="line"/>
      <point x="67" y="25" type="line" smooth="yes"/>
      <point x="67" y="-38"/>
      <point x="19" y="-129"/>
      <point x="-119" y="-80" type="curve"/>
      <point x="-136" y="-93" type="line"/>
      <point x="-95" y="-130"/>
      <point x="-68" y="-151"/>
      <point x="-39" y="-167" type="curve" smooth="yes"/>
      <point x="25" y="-203"/>
      <point x="182" y="-90"/>
      <point x="182" y="-29" type="curve" smooth="yes"/>
      <point x="182" y="-2"/>
      <point x="182" y="36"/>
    </contour>
  </outline>
</glyph>
<glyph name="k" format="1">
  <advance width="565"/>
  <unicode hex="006B"/>
  <outline>
    <contour>
      <point x="178" y="682" type="line"/>
      <point x="63" y="710" type="line"/>
      <point x="63" y="-1" type="line"/>
      <point x="178" y="-29" type="line"/>
    </contour>
    <contour>
      <point x="305" y="284" type="line"/>
      <point x="211" y="288" type="line"/>
      <point x="450" y="-30" type="line"/>
      <point x="520" y="16" type="line"/>
    </contour>
    <contour>
      <point x="492" y="451" type="line"/>
      <point x="377" y="479" type="line"/>
      <point x="63" y="183" type="line"/>
      <point x="174" y="152" type="line"/>
    </contour>
  </outline>
</glyph>
<glyph name="m" format="1">
  <advance width="877"/>
  <unicode hex="006D"/>
  <outline>
    <contour>
      <point x="180" y="450" type="line"/>
      <point x="65" y="478" type="line"/>
      <point x="65" y="-1" type="line"/>
      <point x="180" y="-29" type="line"/>
    </contour>
    <contour>
      <point x="155" y="213" type="line"/>
      <point x="219" y="307"/>
      <point x="351" y="441"/>
      <point x="394" y="363" type="curve" smooth="yes"/>
      <point x="405" y="343"/>
      <point x="399" y="-1"/>
      <point x="399" y="-1" type="curve"/>
      <point x="399" y="-1"/>
      <point x="514" y="-29"/>
      <point x="513" y="-29" type="curve" smooth="yes"/>
      <point x="513" y="-29"/>
      <point x="514" y="270"/>
      <point x="509" y="303" type="curve" smooth="yes"/>
      <point x="503" y="339"/>
      <point x="365" y="485"/>
      <point x="321" y="488" type="curve" smooth="yes"/>
      <point x="219" y="495"/>
      <point x="118" y="336"/>
      <point x="118" y="336" type="curve"/>
    </contour>
    <contour>
      <point x="473" y="213" type="line"/>
      <point x="537" y="307"/>
      <point x="669" y="441"/>
      <point x="712" y="363" type="curve" smooth="yes"/>
      <point x="723" y="343"/>
      <point x="717" y="-1"/>
      <point x="717" y="-1" type="curve"/>
      <point x="717" y="-1"/>
      <point x="832" y="-29"/>
      <point x="831" y="-29" type="curve" smooth="yes"/>
      <point x="831" y="-29"/>
      <point x="832" y="270"/>
      <point x="827" y="303" type="curve" smooth="yes"/>
      <point x="821" y="339"/>
      <point x="683" y="485"/>
      <point x="639" y="488" type="curve" smooth="yes"/>
      <point x="537" y="495"/>
      <point x="436" y="336"/>
      <point x="436" y="336" type="curve"/>
    </contour>
  </outline>
</glyph>
<glyph name="p" format="1">
  <advance width="603"/>
  <unicode hex="0070"/>
  <outline>
    <contour>
      <point x="302" y="-25" type="curve" smooth="yes"/>
      <point x="436" y="-67"/>
      <point x="687" y="265"/>
      <point x="434" y="432" type="curve" smooth="yes"/>
      <point x="306" y="516"/>
      <point x="207" y="493"/>
      <point x="67" y="453" type="curve"/>
      <point x="64" y="439"/>
      <point x="67" y="-226"/>
      <point x="67" y="-226" type="curve"/>
      <point x="182" y="-254" type="line"/>
      <point x="182" y="31" type="line"/>
      <point x="196" y="21"/>
      <point x="267" y="-14"/>
    </contour>
    <contour>
      <point x="359" y="121" type="curve" smooth="yes"/>
      <point x="293" y="47"/>
      <point x="213" y="81"/>
      <point x="182" y="101" type="curve"/>
      <point x="182" y="384" type="line"/>
      <point x="479" y="508"/>
      <point x="452" y="225"/>
    </contour>
  </outline>
</glyph>
<glyph name="q" format="1">
  <advance width="639"/>
  <unicode hex="0071"/>
  <outline>
    <contour>
      <point x="442" y="-222" type="line"/>
      <point x="557" y="-250" type="line"/>
      <point x="557" y="392" type="line"/>
      <point x="235" y="680"/>
      <point x="-88" y="275"/>
      <point x="176" y="35" type="curve" smooth="yes"/>
      <point x="297" y="-75"/>
      <point x="380" y="-23"/>
      <point x="442" y="57" type="curve"/>
    </contour>
    <contour>
      <point x="235" y="79" type="curve" smooth="yes"/>
      <point x="97" y="164"/>
      <point x="271" y="480"/>
      <point x="442" y="394" type="curve"/>
      <point x="442" y="231" type="line"/>
      <point x="403" y="130"/>
      <point x="307" y="35"/>
    </contour>
  </outline>
</glyph>
<glyph name="r" format="1">
  <advance width="453"/>
  <unicode hex="0072"/>
  <outline>
    <contour>
      <point x="207" y="507" type="move" name="top"/>
    </contour>
    <contour>
      <point x="136" y="283" type="line"/>
      <point x="204" y="393"/>
      <point x="298" y="493"/>
      <point x="387" y="361" type="curve"/>
      <point x="478" y="446" type="line"/>
      <point x="442" y="485"/>
      <point x="382" y="528"/>
      <point x="338" y="531" type="curve" smooth="yes"/>
      <point x="236" y="538"/>
      <point x="125" y="311"/>
      <point x="125" y="311" type="curve"/>
    </contour>
    <contour>
      <point x="173" y="522" type="line"/>
      <point x="60" y="522" type="line"/>
      <point x="60" y="-1" type="line"/>
      <point x="175" y="-29" type="line"/>
    </contour>
  </outline>
</glyph>
<glyph name="s" format="1">
  <advance width="573"/>
  <unicode hex="0073"/>
  <outline>
    <contour>
      <point x="358" y="507" type="move" name="top"/>
    </contour>
    <contour>
      <point x="267" y="7" type="move" name="cedilla"/>
    </contour>
    <contour>
      <point x="427" y="355" type="line"/>
      <point x="375" y="379"/>
      <point x="312" y="405"/>
      <point x="297" y="406" type="curve" smooth="yes"/>
      <point x="266" y="408"/>
      <point x="169" y="350"/>
      <point x="170" y="282" type="curve" smooth="yes"/>
      <point x="170" y="259"/>
      <point x="368" y="306"/>
      <point x="403" y="286" type="curve" smooth="yes"/>
      <point x="613" y="166"/>
      <point x="502" y="-39"/>
      <point x="315" y="-30" type="curve" smooth="yes"/>
      <point x="230" y="-26"/>
      <point x="167" y="4"/>
      <point x="38" y="98" type="curve"/>
      <point x="60" y="148" type="line"/>
      <point x="191" y="46"/>
      <point x="379" y="-3"/>
      <point x="415" y="202" type="curve" smooth="yes"/>
      <point x="418" y="222"/>
      <point x="219" y="157"/>
      <point x="168" y="195" type="curve" smooth="yes"/>
      <point x="132" y="222"/>
      <point x="76" y="249"/>
      <point x="68" y="284" type="curve" smooth="yes"/>
      <point x="42" y="402"/>
      <point x="184" y="489"/>
      <point x="267" y="489" type="curve" smooth="yes"/>
      <point x="301" y="489"/>
      <point x="396" y="444"/>
      <point x="460" y="413" type="curve"/>
    </contour>
  </outline>
</glyph>
<glyph name="v" format="1">
  <advance width="520"/>
  <unicode hex="0076"/>
  <outline>
    <contour>
      <point x="510" y="450" type="line"/>
      <point x="395" y="478" type="line"/>
      <point x="258" y="127" type="line"/>
      <point x="125" y="450" type="line"/>
      <point x="10" y="478" type="line"/>
      <point x="208" y="-1" type="line"/>
      <point x="209" y="-1" type="line"/>
      <point x="323" y="-29" type="line"/>
      <point x="323" y="-28" type="line"/>
      <point x="324" y="-29" type="line"/>
    </contour>
  </outline>
</glyph>
<glyph name="x" format="1">
  <advance width="501"/>
  <unicode hex="0078"/>
  <outline>
    <contour>
      <point x="463" y="450" type="line"/>
      <point x="348" y="478" type="line"/>
      <point x="237" y="313" type="line"/>
      <point x="138" y="450" type="line"/>
      <point x="23" y="478" type="line"/>
      <point x="192" y="246" type="line"/>
      <point x="27" y="-1" type="line"/>
      <point x="142" y="-29" type="line"/>
      <point x="262" y="150" type="line"/>
      <point x="373" y="-1" type="line"/>
      <point x="488" y="-29" type="line"/>
      <point x="307" y="218" type="line"/>
    </contour>
  </outline>
</glyph>
<glyph name="yen" format="1">
  <advance width="615"/>
  <unicode hex="00A5"/>
  <outline>
    <contour>
      <point x="113" y="239" type="line"/>
      <point x="246" y="239" type="line"/>
      <point x="246" y="182" type="line"/>
      <point x="93" y="182" type="line"/>
      <point x="123" y="109" type="line"/>
      <point x="246" y="109" type="line"/>
      <point x="246" y="0" type="line"/>
      <point x="376" y="-29" type="line"/>
      <point x="375" y="109" type="line"/>
      <point x="546" y="109" type="line"/>
      <point x="516" y="182" type="line"/>
      <point x="374" y="182" type="line"/>
      <point x="374" y="239" type="line"/>
      <point x="536" y="239" type="line"/>
      <point x="506" y="312" type="line"/>
      <point x="412" y="312" type="line"/>
      <point x="591" y="637" type="line"/>
      <point x="461" y="666" type="line"/>
      <point x="297" y="367" type="line"/>
      <point x="125" y="638" type="line"/>
      <point x="0" y="667" type="line"/>
      <point x="222" y="312" type="line"/>
      <point x="83" y="312" type="line"/>
    </contour>
  </outline>
</glyph>
<glyph name="dieresis" format="1">
  <advance width="341"/>
  <unicode hex="00A8"/>
  <outline>
    <contour>
      <point x="83" y="523" type="curve"/>
      <point x="59" y="534"/>
      <point x="33" y="557"/>
      <point x="18" y="586" type="curve"/>
      <point x="20" y="606"/>
      <point x="65" y="643"/>
      <point x="83" y="647" type="curve"/>
      <point x="121" y="630"/>
      <point x="140" y="601"/>
      <point x="147" y="585" type="curve"/>
      <point x="140" y="565"/>
      <point x="119" y="541"/>
    </contour>
    <contour>
      <point x="260" y="523" type="curve"/>
      <point x="236" y="534"/>
      <point x="210" y="557"/>
      <point x="195" y="586" type="curve"/>
      <point x="197" y="606"/>
      <point x="242" y="643"/>
      <point x="260" y="647" type="curve"/>
      <point x="298" y="630"/>
      <point x="317" y="601"/>
      <point x="324" y="585" type="curve"/>
      <point x="317" y="565"/>
      <point x="296" y="541"/>
    </contour>
  </outline>
</glyph>
<glyph name="logicalnot" format="1">
  <advance width="566"/>
  <unicode hex="00AC"/>
  <outline>
    <contour>
      <point x="30" y="358" type="line"/>
      <point x="483" y="358" type="line"/>
      <point x="514" y="277" type="line"/>
      <point x="61" y="277" type="line"/>
    </contour>
    <contour>
      <point x="416" y="117" type="line"/>
      <point x="312" y="156" type="line"/>
      <point x="399" y="305" type="line"/>
      <point x="514" y="277" type="line"/>
    </contour>
  </outline>
</glyph>
<glyph name="threesuperior" format="1">
  <advance width="290"/>
  <unicode hex="00B3"/>
  <outline>
    <contour>
      <point x="187" y="565" type="line"/>
      <point x="214" y="547"/>
      <point x="248" y="529"/>
      <point x="266" y="514" type="curve" smooth="yes"/>
      <point x="326" y="466"/>
      <point x="177" y="328"/>
      <point x="82" y="405" type="curve" smooth="yes"/>
      <point x="58" y="424"/>
      <point x="37" y="445"/>
      <point x="10" y="487" type="curve"/>
      <point x="36" y="503" type="line"/>
      <point x="119" y="373"/>
      <point x="273" y="486"/>
      <point x="168" y="549" type="curve"/>
    </contour>
    <contour>
      <point x="243" y="625" type="curve" smooth="yes"/>
      <point x="266" y="593"/>
      <point x="223" y="516"/>
      <point x="112" y="512" type="curve"/>
      <point x="82" y="569" type="line"/>
      <point x="170" y="577"/>
      <point x="204" y="622"/>
      <point x="178" y="652" type="curve" smooth="yes"/>
      <point x="153" y="681"/>
      <point x="105" y="639"/>
      <point x="60" y="594" type="curve"/>
      <point x="13" y="652" type="line"/>
      <point x="33" y="672"/>
      <point x="119" y="744"/>
      <point x="162" y="709" type="curve" smooth="yes"/>
      <point x="195" y="682"/>
      <point x="220" y="657"/>
    </contour>
  </outline>
</glyph>
<glyph name="ordmasculine" format="1">
  <advance width="452"/>
  <unicode hex="00BA"/>
  <outline>
    <contour>
      <point x="323" y="639" type="curve" smooth="yes"/>
      <point x="395" y="589"/>
      <point x="314" y="413"/>
      <point x="233" y="457" type="curve" smooth="yes"/>
      <point x="149" y="502"/>
      <point x="249" y="691"/>
    </contour>
    <contour>
      <point x="393" y="640" type="curve" smooth="yes"/>
      <point x="364" y="666"/>
      <point x="339" y="679"/>
      <point x="297" y="702" type="curve" smooth="yes"/>
      <point x="202" y="754"/>
      <point x="50" y="552"/>
      <point x="171" y="453" type="curve" smooth="yes"/>
      <point x="189" y="438"/>
      <point x="202" y="427"/>
      <point x="239" y="408" type="curve" smooth="yes"/>
      <point x="375" y="338"/>
      <point x="480" y="564"/>
    </contour>
  </outline>
</glyph>
<glyph name="threequarters" format="1">
  <advance width="841"/>
  <unicode hex="00BE"/>
  <outline>
    <contour>
      <point x="260" y="-30" type="line"/>
      <point x="170" y="1" type="line"/>
      <point x="581" y="713" type="line"/>
      <point x="673" y="680" type="line"/>
    </contour>
    <contour>
      <point x="501" y="160" type="line"/>
      <point x="502" y="160" type="line"/>
      <point x="603" y="327" type="line"/>
      <point x="694" y="305" type="line"/>
      <point x="608" y="160" type="line"/>
      <point x="724" y="160" type="line"/>
      <point x="724" y="382" type="line"/>
      <point x="825" y="353" type="line"/>
      <point x="826" y="-30" type="line"/>
      <point x="724" y="-7" type="line"/>
      <point x="724" y="83" type="line"/>
      <point x="572" y="83" type="line"/>
      <point x="502" y="159" type="line"/>
      <point x="501" y="159" type="line"/>
    </contour>
    <contour>
      <point x="301" y="612" type="curve" smooth="yes"/>
      <point x="316" y="590"/>
      <point x="306" y="549"/>
      <point x="267" y="518" type="curve"/>
      <point x="290" y="504"/>
      <point x="313" y="490"/>
      <point x="328" y="478" type="curve" smooth="yes"/>
      <point x="400" y="421"/>
      <point x="221" y="256"/>
      <point x="107" y="348" type="curve"/>
      <point x="77" y="371"/>
      <point x="53" y="397"/>
      <point x="20" y="447" type="curve"/>
      <point x="52" y="465" type="line"/>
      <point x="142" y="324"/>
      <point x="302" y="423"/>
      <point x="236" y="498" type="curve"/>
      <point x="211" y="486"/>
      <point x="180" y="477"/>
      <point x="143" y="476" type="curve"/>
      <point x="107" y="545" type="line"/>
      <point x="213" y="554"/>
      <point x="254" y="608"/>
      <point x="222" y="644" type="curve" smooth="yes"/>
      <point x="192" y="678"/>
      <point x="135" y="628"/>
      <point x="80" y="575" type="curve"/>
      <point x="24" y="644" type="line"/>
      <point x="48" y="668"/>
      <point x="151" y="754"/>
      <point x="202" y="712" type="curve" smooth="yes"/>
      <point x="242" y="680"/>
      <point x="273" y="650"/>
    </contour>
  </outline>
</glyph>
<glyph name="Aacute" format="1">
  <advance width="657"/>
  <unicode hex="00C1"/>
  <outline>
    <contour>
      <point x="332" y="743" type="move" name="top"/>
    </contour>
    <contour>
      <point x="397" y="8" type="move" name="ogonek"/>
    </contour>
    <component base="A"/>
    <component base="acute" xOffset="85" yOffset="159"/>
  </outline>
</glyph>
<glyph name="Ccedilla" format="1">
  <advance width="718"/>
  <unicode hex="00C7"/>
  <outline>
    <contour>
      <point x="438" y="743" type="move" name="top"/>
    </contour>
    <contour>
      <point x="208" y="8" type="move" name="cedilla"/>
    </contour>
    <component base="C" xOffset="20"/>
    <component base="cedilla" xOffset="222"/>
  </outline>
</glyph>
<glyph name="Oslash" format="1">
  <advance width="823"/>
  <unicode hex="00D8"/>
  <outline>
    <contour>
      <point x="414" y="743" type="move" name="top"/>
    </contour>
    <contour>
      <point x="116" y="29" type="line"/>
      <point x="202" y="-29" type="line"/>
      <point x="705" y="625" type="line"/>
      <point x="622" y="680" type="line"/>
    </contour>
    <component base="O"/>
  </outline>
</glyph>
<glyph name="Ucircumflex" format="1">
  <advance width="578"/>
  <unicode hex="00DB"/>
  <outline>
    <contour>
      <point x="313" y="743" type="move" name="top"/>
    </contour>
    <contour>
      <point x="241" y="23" type="move" name="ogonek"/>
    </contour>
  </outline>
</glyph>
<glyph name="ae" format="1">
  <advance width="920"/>
  <unicode hex="00E6"/>
  <outline>
    <contour>
      <point x="500" y="507" type="move" name="top"/>
    </contour>
    <contour>
      <point x="421" y="17" type="move" name="ogonek"/>
    </contour>
    <contour>
      <point x="647" y="412" type="curve"/>
      <point x="576" y="412"/>
      <point x="511" y="295"/>
      <point x="512" y="198" type="curve"/>
      <point x="762" y="358" type="line"/>
      <point x="716" y="390"/>
      <point x="675" y="412"/>
    </contour>
    <contour>
      <point x="541" y="104" type="curve"/>
      <point x="548" y="94"/>
      <point x="580" y="63"/>
      <point x="602" y="59" type="curve" smooth="yes"/>
      <point x="661" y="48"/>
      <point x="749" y="100"/>
      <point x="812" y="152" type="curve" smooth="yes"/>
      <point x="813" y="153"/>
      <point x="890" y="70"/>
      <point x="890" y="70" type="curve"/>
      <point x="785" y="-7"/>
      <point x="708" y="-47"/>
      <point x="624" y="-15" type="curve" smooth="yes"/>
      <point x="579" y="2"/>
      <point x="512" y="46"/>
      <point x="462" y="101" type="curve" smooth="yes"/>
      <point x="336" y="239"/>
      <point x="447" y="489"/>
      <point x="616" y="489" type="curve" smooth="yes"/>
      <point x="675" y="489"/>
      <point x="808" y="391"/>
      <point x="865" y="337" type="curve"/>
      <point x="863" y="330"/>
      <point x="541" y="104"/>
    </contour>
    <contour>
      <point x="405" y="322" type="curve" smooth="yes"/>
      <point x="407" y="300"/>
      <point x="410" y="251"/>
      <point x="410" y="251" type="curve"/>
      <point x="388" y="243"/>
      <point x="102" y="199"/>
      <point x="170" y="100" type="curve" smooth="yes"/>
      <point x="198" y="60"/>
      <point x="267" y="60"/>
      <point x="408" y="172" type="curve"/>
      <point x="419" y="86" type="line"/>
      <point x="419" y="86"/>
      <point x="321" y="-31"/>
      <point x="255" y="-30" type="curve" smooth="yes"/>
      <point x="186" y="-29"/>
      <point x="59" y="144"/>
      <point x="59" y="190" type="curve" smooth="yes"/>
      <point x="60" y="291"/>
      <point x="405" y="325"/>
    </contour>
    <contour>
      <point x="66" y="442" type="line"/>
      <point x="150" y="463"/>
      <point x="297" y="493"/>
      <point x="329" y="491" type="curve" smooth="yes"/>
      <point x="361" y="489"/>
      <point x="481" y="364"/>
      <point x="506" y="327" type="curve" smooth="yes"/>
      <point x="524" y="300"/>
      <point x="506" y="56"/>
      <point x="510" y="-29" type="curve"/>
      <point x="396" y="0" type="line"/>
      <point x="402" y="348" type="line" smooth="yes"/>
      <point x="404" y="435"/>
      <point x="273" y="397"/>
      <point x="120" y="351" type="curve"/>
    </contour>
  </outline>
</glyph>
<glyph name="eacute" format="1">
  <advance width="558"/>
  <unicode hex="00E9"/>
  <outline>
    <contour>
      <point x="263" y="507" type="move" name="top"/>
    </contour>
    <contour>
      <point x="279" y="43" type="move" name="ogonek"/>
    </contour>
    <component base="acute" xOffset="76"/>
    <component base="e"/>
  </outline>
</glyph>
<glyph name="ecircumflex" format="1">
  <advance width="558"/>
  <unicode hex="00EA"/>
  <outline>
    <contour>
      <point x="263" y="507" type="move" name="top"/>
    </contour>
    <contour>
      <point x="279" y="43" type="move" name="ogonek"/>
    </contour>
    <component base="circumflex" xOffset="112"/>
    <component base="e"/>
  </outline>
</glyph>
<glyph name="idieresis" format="1">
  <advance width="241"/>
  <unicode hex="00EF"/>
  <outline>
    <contour>
      <point x="183" y="507" type="move" name="top"/>
    </contour>
    <contour>
      <point x="53" y="7" type="move" name="ogonek"/>
    </contour>
    <component base="dieresis" xOffset="-53"/>
    <component base="dotlessi"/>
  </outline>
</glyph>
<glyph name="odieresis" format="1">
  <advance width="452"/>
  <unicode hex="00F6"/>
  <outline>
    <contour>
      <point x="287" y="507" type="move" name="top"/>
    </contour>
  </outline>
</glyph>
<glyph name="ucircumflex" format="1">
  <advance width="592"/>
  <unicode hex="00FB"/>
  <outline>
    <contour>
      <point x="287" y="507" type="move" name="top"/>
    </contour>
    <contour>
      <point x="283" y="7" type="move" name="ogonek"/>
    </contour>
    <component base="circumflex" xOffset="123"/>
    <component base="u"/>
  </outline>
</glyph>
<glyph name="yacute" format="1">
  <advance width="520"/>
  <unicode hex="00FD"/>
  <outline>
    <contour>
      <point x="310" y="507" type="move" name="top"/>
    </contour>
  </outline>
</glyph>
<glyph name="ydieresis" format="1">
  <advance width="554"/>
  <unicode hex="00FF"/>
  <outline>
    <contour>
      <point x="310" y="507" type="move" name="top"/>
    </contour>
    <component base="y"/>
    <component base="dieresis" xOffset="100"/>
  </outline>
</glyph>
<glyph name="Amacron" format="1">
  <advance width="657"/>
  <unicode hex="0100"/>
  <outline>
    <contour>
      <point x="332" y="743" type="move" name="top"/>
    </contour>
    <contour>
      <point x="397" y="8" type="move" name="ogonek"/>
    </contour>
    <component base="A"/>
    <component base="macron" xOffset="118" yOffset="167"/>
  </outline>
</glyph>
<glyph name="cacute" format="1">
  <advance width="535"/>
  <unicode hex="0107"/>
  <outline>
    <contour>
      <point x="290" y="507" type="move" name="top"/>
    </contour>
    <contour>
      <point x="175" y="7" type="move" name="cedilla"/>
    </contour>
    <component base="acute" xOffset="74"/>
    <component base="c"/>
  </outline>
</glyph>
<glyph name="Dcaron" format="1">
  <advance width="809"/>
  <unicode hex="010E"/>
  <outline>
    <contour>
      <point x="429" y="683" type="move" name="top"/>
    </contour>
    <component base="caron" xOffset="169" yOffset="187"/>
    <component base="D" xOffset="15"/>
  </outline>
</glyph>
<glyph name="Emacron" format="1">
  <advance width="551"/>
  <unicode hex="0112"/>
  <outline>
    <contour>
      <point x="342" y="743" type="move" name="top"/>
    </contour>
    <contour>
      <point x="440" y="101" type="move" name="ogonek"/>
    </contour>
  </outline>
</glyph>
<glyph name="Eogonek" format="1">
  <advance width="647"/>
  <unicode hex="0118"/>
  <outline>
    <contour>
      <point x="342" y="743" type="move" name="top"/>
    </contour>
    <contour>
      <point x="440" y="101" type="move" name="ogonek"/>
    </contour>
    <component base="ogonek" xOffset="404"/>
    <component base="E" xOffset="15"/>
  </outline>
</glyph>
<glyph name="Gcommaaccent" format="1">
  <advance width="823"/>
  <unicode hex="0122"/>
  <outline>
    <contour>
      <point x="461" y="723" type="move" name="top"/>
    </contour>
    <component base="comma" xOffset="293" yOffset="-177"/>
    <component base="G" xOffset="10"/>
  </outline>
</glyph>
<glyph name="Lcommaaccent" format="1">
  <advance width="670"/>
  <unicode hex="013B"/>
  <outline>
    <contour>
      <point x="338" y="743" type="move" name="top"/>
    </contour>
    <component base="comma" xOffset="202" yOffset="-177"/>
    <component base="L" xOffset="15"/>
  </outline>
</glyph>
<glyph name="Ncommaaccent" format="1">
  <advance width="762"/>
  <unicode hex="0145"/>
  <outline>
    <contour>
      <point x="381" y="743" type="move" name="top"/>
    </contour>
    <component base="comma" xOffset="252" yOffset="-177"/>
    <component base="N" xOffset="15"/>
  </outline>
</glyph>
<glyph name="Ncaron" format="1">
  <advance width="631"/>
  <unicode hex="0147"/>
  <outline>
    <contour>
      <point x="381" y="743" type="move" name="top"/>
    </contour>
  </outline>
</glyph>
<glyph name="ohungarumlaut" format="1">
  <advance width="452"/>
  <unicode hex="0151"/>
  <outline>
    <contour>
      <point x="287" y="507" type="move" name="top"/>
    </contour>
  </outline>
</glyph>
<glyph name="oe" format="1">
  <advance width="989"/>
  <unicode hex="0153"/>
  <outline>
    <contour>
      <point x="689" y="417" type="curve" smooth="yes"/>
      <point x="717" y="417"/>
      <point x="758" y="395"/>
      <point x="804" y="363" type="curve"/>
      <point x="554" y="203" type="line"/>
      <point x="553" y="300"/>
      <point x="618" y="417"/>
    </contour>
    <contour>
      <point x="583" y="109" type="curve"/>
      <point x="583" y="109"/>
      <point x="905" y="335"/>
      <point x="907" y="342" type="curve"/>
      <point x="850" y="396"/>
      <point x="717" y="494"/>
      <point x="658" y="494" type="curve" smooth="yes"/>
      <point x="489" y="494"/>
      <point x="378" y="244"/>
      <point x="504" y="106" type="curve" smooth="yes"/>
      <point x="554" y="51"/>
      <point x="621" y="7"/>
      <point x="666" y="-10" type="curve" smooth="yes"/>
      <point x="750" y="-42"/>
      <point x="827" y="-2"/>
      <point x="932" y="75" type="curve"/>
      <point x="932" y="75"/>
      <point x="855" y="158"/>
      <point x="854" y="157" type="curve" smooth="yes"/>
      <point x="791" y="105"/>
      <point x="703" y="53"/>
      <point x="644" y="64" type="curve" smooth="yes"/>
      <point x="622" y="68"/>
      <point x="590" y="99"/>
    </contour>
    <contour>
      <point x="394" y="381" type="curve" smooth="yes"/>
      <point x="542" y="285"/>
      <point x="376" y="-14"/>
      <point x="226" y="71" type="curve" smooth="yes"/>
      <point x="65" y="162"/>
      <point x="236" y="483"/>
    </contour>
    <contour>
      <point x="491" y="369" type="curve" smooth="yes"/>
      <point x="445" y="410"/>
      <point x="404" y="436"/>
      <point x="336" y="472" type="curve" smooth="yes"/>
      <point x="156" y="567"/>
      <point x="-69" y="251"/>
      <point x="139" y="73" type="curve" smooth="yes"/>
      <point x="167" y="49"/>
      <point x="189" y="29"/>
      <point x="249" y="-3" type="curve" smooth="yes"/>
      <point x="485" y="-129"/>
      <point x="652" y="225"/>
    </contour>
  </outline>
</glyph>
<glyph name="Rcaron" format="1">
  <advance width="694"/>
  <unicode hex="0158"/>
  <outline>
    <contour>
      <point x="354" y="743" type="move" name="top"/>
    </contour>
    <component base="caron" xOffset="154" yOffset="250"/>
    <component base="R"/>
  </outline>
</glyph>
<glyph name="tcaron" format="1">
  <advance width="427"/>
  <unicode hex="0165"/>
  <outline>
    <contour>
      <point x="91" y="7" type="move" name="cedilla"/>
    </contour>
    <component base="quoteright" xOffset="147" yOffset="-26"/>
    <component base="t" xOffset="13"/>
  </outline>
</glyph>
<glyph name="umacron" format="1">
  <advance width="592"/>
  <unicode hex="016B"/>
  <outline>
    <contour>
      <point x="287" y="507" type="move" name="top"/>
    </contour>
    <contour>
      <point x="283" y="7" type="move" name="ogonek"/>
    </contour>
    <component base="u" xOffset="15"/>
    <component base="macron" xOffset="90"/>
  </outline>
</glyph>
<glyph name="uogonek" format="1">
  <advance width="479"/>
  <unicode hex="0173"/>
  <outline>
    <contour>
      <point x="287" y="507" type="move" name="top"/>
    </contour>
    <contour>
      <point x="283" y="7" type="move" name="ogonek"/>
    </contour>
  </outline>
</glyph>
<glyph name="zacute" format="1">
  <advance width="459"/>
  <unicode hex="017A"/>
  <outline>
    <contour>
      <point x="257" y="507" type="move" name="top"/>
    </contour>
  </outline>
</glyph>
<glyph name="zcaron" format="1">
  <advance width="489"/>
  <unicode hex="017E"/>
  <outline>
    <contour>
      <point x="256" y="507" type="move" name="top"/>
    </contour>
    <component base="caron" xOffset="46"/>
    <component base="z"/>
  </outline>
</glyph>
<glyph name="caron" format="1">
  <advance width="350"/>
  <unicode hex="02C7"/>
  <outline>
    <contour>
      <point x="156" y="561" type="line"/>
      <point x="297" y="695" type="line"/>
      <point x="356" y="633" type="line"/>
      <point x="205" y="523" type="line"/>
      <point x="139" y="523" type="line"/>
      <point x="17" y="655" type="line"/>
      <point x="50" y="695" type="line"/>
    </contour>
  </outline>
</glyph>
<glyph name="pi" format="1">
  <advance width="760"/>
  <unicode hex="03C0"/>
  <outline>
    <contour>
      <point x="600" y="450" type="line"/>
      <point x="485" y="478" type="line"/>
      <point x="485" y="-1" type="line"/>
      <point x="600" y="-29" type="line"/>
    </contour>
    <contour>
      <point x="199" y="424" type="line"/>
      <point x="261" y="346"/>
      <point x="249" y="217"/>
      <point x="228" y="162" type="curve" smooth="yes"/>
      <point x="199" y="86"/>
      <point x="177" y="62"/>
      <point x="151" y="25" type="curve"/>
      <point x="163" y="6"/>
      <point x="229" y="-29"/>
      <point x="254" y="-29" type="curve" smooth="yes"/>
      <point x="302" y="-29"/>
      <point x="427" y="215"/>
      <point x="278" y="424" type="curve"/>
    </contour>
    <contour>
      <point x="127" y="389" type="line"/>
      <point x="694" y="389" type="line"/>
      <point x="614" y="479" type="line"/>
      <point x="47" y="479" type="line"/>
    </contour>
  </outline>
</glyph>
<glyph name="dvmvLL" format="1">
  <advance width="0"/>
  <unicode hex="0963"/>
  <outline>
    <contour>
      <point x="-231" y="-114" type="line"/>
      <point x="-411" y="-29"/>
      <point x="-375" y="-227"/>
      <point x="-294" y="-279" type="curve"/>
      <point x="-309" y="-301" type="line"/>
      <point x="-386" y="-263"/>
      <point x="-440" y="-168"/>
      <point x="-446" y="-127" type="curve"/>
      <point x="-451" y="-84"/>
      <point x="-351" y="-11"/>
      <point x="-314" y="-23" type="curve" smooth="yes"/>
      <point x="-286" y="-31"/>
      <point x="-242" y="-73"/>
      <point x="-217" y="-98" type="curve"/>
    </contour>
    <contour>
      <point x="-129" y="-311" type="line"/>
      <point x="-142" y="-296"/>
      <point x="-154" y="-280"/>
      <point x="-166" y="-264" type="curve" smooth="yes"/>
      <point x="-221" y="-189"/>
      <point x="-4" y="-151"/>
      <point x="-56" y="-100" type="curve" smooth="yes"/>
      <point x="-102" y="-56"/>
      <point x="-179" y="-140"/>
      <point x="-194" y="-200" type="curve"/>
      <point x="-262" y="-159" type="line"/>
      <point x="-255" y="-129"/>
      <point x="-199" y="-35"/>
      <point x="-118" y="-32" type="curve" smooth="yes"/>
      <point x="-93" y="-31"/>
      <point x="-1" y="-93"/>
      <point x="18" y="-123" type="curve" smooth="yes"/>
      <point x="75" y="-211"/>
      <point x="-146" y="-219"/>
      <point x="-99" y="-292" type="curve" smooth="yes"/>
    </contour>
    <contour>
      <point x="-41" y="-257" type="curve"/>
      <point x="-7" y="-306" type="line"/>
      <point x="-146" y="-332"/>
      <point x="-132" y="-450"/>
      <point x="-9" y="-349" type="curve"/>
      <point x="46" y="-389" type="line"/>
      <point x="-71" y="-501"/>
      <point x="-319" y="-339"/>
    </contour>
  </outline>
</glyph>
<glyph name="daggerdbl" format="1">
  <advance width="539"/>
  <unicode hex="2021"/>
  <outline>
    <contour>
      <point x="348" y="-199" type="line"/>
      <point x="233" y="-171" type="line"/>
      <point x="233" y="-3" type="line"/>
      <point x="123" y="-3" type="line"/>
      <point x="93" y="70" type="line"/>
      <point x="233" y="70" type="line"/>
      <point x="233" y="285" type="line"/>
      <point x="123" y="285" type="line"/>
      <point x="93" y="358" type="line"/>
      <point x="233" y="358" type="line"/>
      <point x="233" y="570" type="line"/>
      <point x="348" y="542" type="line"/>
      <point x="348" y="358" type="line"/>
      <point x="461" y="358" type="line"/>
      <point x="491" y="285" type="line"/>
      <point x="348" y="285" type="line"/>
      <point x="348" y="70" type="line"/>
      <point x="461" y="70" type="line"/>
      <point x="491" y="-3" type="line"/>
      <point x="348" y="-3" type="line"/>
    </contour>
  </outline>
</glyph>
<glyph name="guilsinglright" format="1">
  <advance width="389"/>
  <unicode hex="203A"/>
  <outline>
    <contour>
      <point x="369" y="285" type="line"/>
      <point x="288" y="222" type="line"/>
      <point x="60" y="421" type="line"/>
      <point x="152" y="489" type="line"/>
    </contour>
    <contour>
      <point x="314" y="321" type="line"/>
      <point x="369" y="285" type="line"/>
      <point x="114" y="67" type="line"/>
      <point x="67" y="119" type="line"/>
    </contour>
  </outline>
</glyph>
<glyph name="ruble" format="1">
  <advance width="664"/>
  <unicode hex="20BD"/>
  <outline>
    <contour>
      <point x="3" y="172" type="line"/>
      <point x="426" y="172" type="line"/>
      <point x="456" y="99" type="line"/>
      <point x="33" y="99" type="line"/>
    </contour>
    <component base="P" xOffset="15"/>
  </outline>
</glyph>
<glyph name="litre" format="1">
  <advance width="531"/>
  <unicode hex="2113"/>
  <outline>
    <contour>
      <point x="202" y="542" type="curve" smooth="yes"/>
      <point x="231" y="709"/>
      <point x="316" y="735"/>
      <point x="379" y="698" type="curve" smooth="yes"/>
      <point x="409" y="681"/>
      <point x="487" y="587"/>
      <point x="487" y="570" type="curve" smooth="yes"/>
      <point x="487" y="537"/>
      <point x="368" y="225"/>
      <point x="54" y="186" type="curve"/>
      <point x="13" y="218" type="line"/>
      <point x="292" y="295"/>
      <point x="416" y="596"/>
      <point x="385" y="625" type="curve" smooth="yes"/>
      <point x="353" y="655"/>
      <point x="297" y="578"/>
      <point x="285" y="435" type="curve" smooth="yes"/>
      <point x="276" y="320"/>
      <point x="259" y="231"/>
      <point x="241" y="110" type="curve" smooth="yes"/>
      <point x="231" y="41"/>
      <point x="302" y="17"/>
      <point x="372" y="89" type="curve" smooth="yes"/>
      <point x="378" y="95"/>
      <point x="389" y="50"/>
      <point x="397" y="54" type="curve"/>
      <point x="241" y="-104"/>
      <point x="132" y="-8"/>
      <point x="143" y="89" type="curve" smooth="yes"/>
      <point x="164" y="275"/>
      <point x="180" y="415"/>
    </contour>
  </outline>
</glyph>
<glyph name="radical" format="1">
  <advance width="708"/>
  <unicode hex="221A"/>
  <outline>
    <contour>
      <point x="406" y="-58" type="line"/>
      <point x="405" y="-57" type="line"/>
      <point x="405" y="-58" type="line"/>
      <point x="290" y="-30" type="line"/>
      <point x="175" y="257" type="line"/>
      <point x="121" y="181" type="line"/>
      <point x="21" y="221" type="line"/>
      <point x="127" y="372" type="line"/>
      <point x="129" y="371" type="line"/>
      <point x="129" y="372" type="line"/>
      <point x="244" y="344" type="line"/>
      <point x="341" y="100" type="line"/>
      <point x="561" y="667" type="line"/>
      <point x="676" y="639" type="line"/>
    </contour>
  </outline>
</glyph>
<glyph name="approxequal" format="1">
  <advance width="584"/>
  <unicode hex="2248"/>
  <outline>
    <contour>
      <point x="203" y="303" type="curve" smooth="yes"/>
      <point x="171" y="303"/>
      <point x="33" y="184"/>
      <point x="33" y="184" type="curve"/>
      <point x="118" y="94" type="line"/>
      <point x="118" y="94"/>
      <point x="214" y="191"/>
      <point x="245" y="192" type="curve" smooth="yes"/>
      <point x="260" y="193"/>
      <point x="336" y="69"/>
      <point x="378" y="69" type="curve" smooth="yes"/>
      <point x="428" y="69"/>
      <point x="558" y="184"/>
      <point x="558" y="184" type="curve"/>
      <point x="484" y="275" type="line"/>
      <point x="484" y="275"/>
      <point x="373" y="166"/>
      <point x="339" y="166" type="curve" smooth="yes"/>
      <point x="318" y="166"/>
      <point x="252" y="303"/>
    </contour>
    <contour>
      <point x="203" y="513" type="curve" smooth="yes"/>
      <point x="171" y="513"/>
      <point x="33" y="394"/>
      <point x="33" y="394" type="curve"/>
      <point x="118" y="304" type="line"/>
      <point x="118" y="304"/>
      <point x="214" y="401"/>
      <point x="245" y="402" type="curve" smooth="yes"/>
      <point x="260" y="403"/>
      <point x="336" y="279"/>
      <point x="378" y="279" type="curve" smooth="yes"/>
      <point x="428" y="279"/>
      <point x="558" y="394"/>
      <point x="558" y="394" type="curve"/>
      <point x="484" y="485" type="line"/>
      <point x="484" y="485"/>
      <point x="373" y="376"/>
      <point x="339" y="376" type="curve" smooth="yes"/>
      <point x="318" y="376"/>
      <point x="252" y="513"/>
    </contour>
  </outline>
</glyph>
<glyph name="lessequal" format="1">
  <advance width="513"/>
  <unicode hex="2264"/>
  <outline>
    <contour>
      <point x="464" y="219" type="line"/>
      <point x="409" y="155" type="line"/>
      <point x="158" y="282" type="line"/>
      <point x="43" y="341" type="line"/>
      <point x="362" y="582" type="line"/>
      <point x="459" y="520" type="line"/>
      <point x="220" y="331" type="line"/>
    </contour>
    <contour>
      <point x="16" y="164" type="line"/>
      <point x="437" y="105" type="line"/>
      <point x="467" y="32" type="line"/>
      <point x="46" y="91" type="line"/>
    </contour>
  </outline>
</glyph>
<glyph name="dvBH_NA" format="1">
  <advance width="844"/>
  <outline>
    <contour>
      <point x="344" y="384" type="line"/>
      <point x="343" y="348"/>
      <point x="189" y="330"/>
      <point x="174" y="345" type="curve" smooth="yes"/>
      <point x="119" y="400"/>
      <point x="93" y="414"/>
      <point x="42" y="462" type="curve"/>
      <point x="-21" y="519"/>
      <point x="101" y="679"/>
      <point x="187" y="607" type="curve" smooth="yes"/>
      <point x="250" y="554"/>
      <point x="308" y="510"/>
      <point x="346" y="467" type="curve"/>
    </contour>
    <contour>
      <point x="220" y="432" type="curve"/>
      <point x="220" y="472"/>
      <point x="221" y="521"/>
      <point x="214" y="528" type="curve" smooth="yes"/>
      <point x="163" y="580"/>
      <point x="90" y="465"/>
      <point x="124" y="437" type="curve" smooth="yes"/>
      <point x="138" y="426"/>
      <point x="183" y="426"/>
    </contour>
    <contour>
      <point x="660" y="537" type="line"/>
      <point x="784" y="537" type="line"/>
      <point x="784" y="-56" type="line"/>
      <point x="660" y="0" type="line"/>
    </contour>
    <contour>
      <point x="318" y="619" type="line"/>
      <point x="859" y="619" type="line"/>
      <point x="859" y="523" type="line"/>
      <point x="356" y="523" type="line"/>
    </contour>
    <contour>
      <point x="219" y="176" type="curve"/>
      <point x="153" y="184"/>
      <point x="137" y="138"/>
      <point x="157" y="115" type="curve" smooth="yes"/>
      <point x="173" y="97"/>
      <point x="220" y="99"/>
    </contour>
    <contour>
      <point x="344" y="172" type="line"/>
      <point x="344" y="-9"/>
      <point x="216" y="7"/>
      <point x="188" y="26" type="curve" smooth="yes"/>
      <point x="166" y="41"/>
      <point x="115" y="80"/>
      <point x="82" y="119" type="curve" smooth="yes"/>
      <point x="51" y="156"/>
      <point x="62" y="280"/>
      <point x="220" y="273" type="curve"/>
      <point x="220" y="350" type="line"/>
      <point x="344" y="391" type="line"/>
      <point x="344" y="270" type="line"/>
      <point x="711" y="271" type="line"/>
      <point x="711" y="172" type="line"/>
    </contour>
    <contour>
      <point x="771" y="113" type="line"/>
      <point x="539" y="52" type="line" smooth="yes"/>
      <point x="311" y="-10"/>
      <point x="561" y="-130"/>
      <point x="538" y="61" type="curve"/>
      <point x="577" y="77" type="line"/>
      <point x="694" y="6"/>
      <point x="570" y="-140"/>
      <point x="521" y="-117" type="curve" smooth="yes"/>
      <point x="466" y="-93"/>
      <point x="436" y="-77"/>
      <point x="395" y="-50" type="curve" smooth="yes"/>
      <point x="331" y="-8"/>
      <point x="360" y="74"/>
      <point x="413" y="113" type="curve"/>
      <point x="424" y="120"/>
      <point x="306" y="82"/>
      <point x="745" y="205" type="curve"/>
    </contour>
  </outline>
</glyph>
<glyph name="dvBH_R" format="1">
  <advance width="499"/>
  <outline>
    <contour>
      <point x="532" y="138" type="line"/>
      <point x="511" y="82"/>
      <point x="466" y="20"/>
      <point x="389" y="-56" type="curve"/>
      <point x="305" y="10" type="line"/>
      <point x="397" y="77"/>
      <point x="442" y="111"/>
      <point x="504" y="184" type="curve"/>
    </contour>
    <component base="dvBH"/>
  </outline>
</glyph>
<glyph name="dvB_BH_RA" format="1">
  <advance width="985"/>
  <outline>
    <contour>
      <point x="419" y="229" type="line"/>
      <point x="226" y="507"/>
      <point x="89" y="258"/>
      <point x="143" y="201" type="curve" smooth="yes"/>
      <point x="170" y="171"/>
      <point x="278" y="150"/>
      <point x="424" y="261" type="curve"/>
      <point x="464" y="242" type="line"/>
      <point x="464" y="242"/>
      <point x="366" y="71"/>
      <point x="264" y="71" type="curve" smooth="yes"/>
      <point x="158" y="71"/>
      <point x="83" y="191"/>
      <point x="46" y="263" type="curve" smooth="yes"/>
      <point x="1" y="348"/>
      <point x="188" y="478"/>
      <point x="256" y="456" type="curve" smooth="yes"/>
      <point x="290" y="445"/>
      <point x="424" y="307"/>
      <point x="449" y="262" type="curve"/>
    </contour>
    <contour>
      <point x="159" y="340" type="line"/>
      <point x="183" y="368" type="line"/>
      <point x="381" y="176" type="line"/>
      <point x="357" y="149" type="line"/>
    </contour>
    <contour>
      <point x="-16" y="619" type="line"/>
      <point x="424" y="619" type="line"/>
      <point x="424" y="523" type="line"/>
      <point x="-16" y="523" type="line"/>
    </contour>
    <contour>
      <point x="825" y="138" type="line"/>
      <point x="804" y="82"/>
      <point x="727" y="0"/>
      <point x="660" y="-69" type="curve"/>
      <point x="576" y="-3" type="line"/>
      <point x="680" y="62"/>
      <point x="735" y="111"/>
      <point x="797" y="184" type="curve"/>
    </contour>
    <component base="dvBHA" xOffset="294"/>
  </outline>
</glyph>
<glyph name="dvB_DA_mU" format="1">
  <advance width="974"/>
  <outline>
    <contour>
      <point x="760" y="619" type="move" name="abvm.bindu"/>
    </contour>
    <contour>
      <point x="740" y="618" type="move" name="abvm.e"/>
    </contour>
    <component base="dvDA_mU" xOffset="335"/>
    <component base="dvB"/>
  </outline>
</glyph>
<glyph name="dvB_JHA" format="1">
  <advance width="1098"/>
  <outline>
    <contour>
      <point x="411" y="314" type="line"/>
      <point x="261" y="445"/>
      <point x="87" y="258"/>
      <point x="141" y="201" type="curve" smooth="yes"/>
      <point x="168" y="171"/>
      <point x="294" y="120"/>
      <point x="407" y="306" type="curve"/>
      <point x="455" y="258" type="line"/>
      <point x="455" y="258"/>
      <point x="364" y="72"/>
      <point x="262" y="71" type="curve"/>
      <point x="156" y="71"/>
      <point x="81" y="191"/>
      <point x="44" y="263" type="curve" smooth="yes"/>
      <point x="-1" y="348"/>
      <point x="218" y="500"/>
      <point x="277" y="460" type="curve" smooth="yes"/>
      <point x="311" y="436"/>
      <point x="378" y="391"/>
      <point x="414" y="368" type="curve"/>
    </contour>
    <contour>
      <point x="157" y="340" type="line"/>
      <point x="181" y="368" type="line"/>
      <point x="379" y="176" type="line"/>
      <point x="355" y="149" type="line"/>
    </contour>
    <contour>
      <point x="-18" y="619" type="line"/>
      <point x="584" y="619" type="line"/>
      <point x="584" y="523" type="line"/>
      <point x="-18" y="523" type="line"/>
    </contour>
    <component base="dvJHA" xOffset="350"/>
  </outline>
</glyph>
<glyph name="dvB_L_YA" format="1">
  <advance width="1530"/>
  <outline>
    <contour>
      <point x="918" y="237" type="line"/>
      <point x="910" y="246"/>
      <point x="861" y="303"/>
      <point x="830" y="293" type="curve" smooth="yes"/>
      <point x="795" y="282"/>
      <point x="749" y="200"/>
      <point x="712" y="135" type="curve"/>
      <point x="635" y="200" type="line"/>
      <point x="653" y="258"/>
      <point x="735" y="355"/>
      <point x="822" y="394" type="curve" smooth="yes"/>
      <point x="843" y="403"/>
      <point x="949" y="268"/>
      <point x="955" y="255" type="curve"/>
    </contour>
    <contour>
      <point x="342" y="619" type="line"/>
      <point x="898" y="619" type="line"/>
      <point x="898" y="523" type="line"/>
      <point x="342" y="523" type="line"/>
    </contour>
    <contour>
      <point x="411" y="314" type="line"/>
      <point x="261" y="445"/>
      <point x="87" y="258"/>
      <point x="141" y="201" type="curve" smooth="yes"/>
      <point x="168" y="171"/>
      <point x="294" y="120"/>
      <point x="407" y="306" type="curve"/>
      <point x="432" y="214" type="line"/>
      <point x="432" y="214"/>
      <point x="364" y="72"/>
      <point x="262" y="71" type="curve"/>
      <point x="156" y="71"/>
      <point x="81" y="191"/>
      <point x="44" y="263" type="curve" smooth="yes"/>
      <point x="-1" y="348"/>
      <point x="215" y="495"/>
      <point x="277" y="460" type="curve" smooth="yes"/>
      <point x="316" y="438"/>
      <point x="410" y="378"/>
      <point x="444" y="351" type="curve"/>
    </contour>
    <contour>
      <point x="157" y="340" type="line"/>
      <point x="181" y="368" type="line"/>
      <point x="379" y="176" type="line"/>
      <point x="355" y="149" type="line"/>
    </contour>
    <contour>
      <point x="-18" y="619" type="line"/>
      <point x="584" y="619" type="line"/>
      <point x="584" y="523" type="line"/>
      <point x="-18" y="523" type="line"/>
    </contour>
    <contour>
      <point x="680" y="266" type="line"/>
      <point x="608" y="316"/>
      <point x="552" y="319"/>
      <point x="517" y="285" type="curve" smooth="yes"/>
      <point x="457" y="226"/>
      <point x="533" y="65"/>
      <point x="643" y="-23" type="curve"/>
      <point x="616" y="-57" type="line"/>
      <point x="517" y="30"/>
      <point x="382" y="190"/>
      <point x="374" y="253" type="curve" smooth="yes"/>
      <point x="366" y="319"/>
      <point x="512" y="432"/>
      <point x="567" y="414" type="curve" smooth="yes"/>
      <point x="607" y="401"/>
      <point x="672" y="336"/>
      <point x="708" y="298" type="curve"/>
    </contour>
    <component base="dvYA" xOffset="852"/>
  </outline>
</glyph>
<glyph name="dvCA" format="1">
  <advance width="756"/>
  <outline>
    <contour>
      <point x="418" y="319" type="line"/>
      <point x="302" y="322"/>
      <point x="217" y="229"/>
      <point x="281" y="169" type="curve" smooth="yes"/>
      <point x="337" y="116"/>
      <point x="511" y="221"/>
      <point x="564" y="335" type="curve"/>
      <point x="564" y="523" type="line"/>
      <point x="-70" y="523" type="line"/>
      <point x="-70" y="619" type="line"/>
      <point x="774" y="619" type="line"/>
      <point x="774" y="523" type="line"/>
      <point x="688" y="523" type="line"/>
      <point x="688" y="-56" type="line"/>
      <point x="564" y="0" type="line"/>
      <point x="564" y="154" type="line"/>
      <point x="470" y="70"/>
      <point x="341" y="50"/>
      <point x="297" y="92" type="curve" smooth="yes"/>
      <point x="237" y="148"/>
      <point x="218" y="159"/>
      <point x="165" y="220" type="curve" smooth="yes"/>
      <point x="140" y="248"/>
      <point x="154" y="285"/>
      <point x="184" y="319" type="curve"/>
      <point x="98" y="319" type="line"/>
      <point x="2" y="402" type="line"/>
      <point x="320" y="402" type="line"/>
    </contour>
  </outline>
</glyph>
<glyph name="dvC" format="1">
  <advance width="541"/>
  <outline>
    <contour>
      <point x="98" y="319" type="line"/>
      <point x="184" y="319" type="line"/>
      <point x="154" y="285"/>
      <point x="140" y="248"/>
      <point x="165" y="220" type="curve" smooth="yes"/>
      <point x="218" y="159"/>
      <point x="237" y="148"/>
      <point x="297" y="92" type="curve" smooth="yes"/>
      <point x="355" y="37"/>
      <point x="559" y="89"/>
      <point x="637" y="251" type="curve"/>
      <point x="569" y="347" type="line"/>
      <point x="523" y="229"/>
      <point x="339" y="114"/>
      <point x="281" y="169" type="curve" smooth="yes"/>
      <point x="218" y="227"/>
      <point x="298" y="317"/>
      <point x="409" y="319" type="curve" smooth="yes"/>
      <point x="418" y="319" type="line"/>
      <point x="320" y="402" type="line"/>
      <point x="2" y="402" type="line"/>
    </contour>
    <contour>
      <point x="-70" y="522" type="line"/>
      <point x="657" y="522" type="line"/>
      <point x="657" y="619" type="line"/>
      <point x="-70" y="619" type="line"/>
    </contour>
  </outline>
</glyph>
<glyph name="dvC_CA" format="1">
  <advance width="1129"/>
  <outline>
    <contour>
      <point x="138" y="321" type="line"/>
      <point x="236" y="321" type="line"/>
      <point x="221" y="287"/>
      <point x="220" y="250"/>
      <point x="245" y="222" type="curve" smooth="yes"/>
      <point x="298" y="161"/>
      <point x="305" y="160"/>
      <point x="365" y="104" type="curve" smooth="yes"/>
      <point x="423" y="49"/>
      <point x="584" y="61"/>
      <point x="680" y="211" type="curve"/>
      <point x="597" y="282" type="line"/>
      <point x="435" y="10"/>
      <point x="191" y="232"/>
      <point x="428" y="321" type="curve"/>
      <point x="330" y="404" type="line"/>
      <point x="42" y="404" type="line"/>
    </contour>
    <contour>
      <point x="-9" y="523" type="line"/>
      <point x="436" y="523" type="line"/>
      <point x="436" y="619" type="line"/>
      <point x="-9" y="619" type="line"/>
    </contour>
    <component base="dvCA" xOffset="437"/>
  </outline>
</glyph>
<glyph name="dvC_MA" format="1">
  <advance width="1207"/>
  <outline>
    <contour>
      <point x="-40" y="619" type="line"/>
      <point x="687" y="619" type="line"/>
      <point x="687" y="523" type="line"/>
      <point x="-40" y="523" type="line"/>
    </contour>
    <contour>
      <point x="22" y="402" type="line"/>
      <point x="340" y="402" type="line"/>
      <point x="438" y="319" type="line"/>
      <point x="118" y="319" type="line"/>
    </contour>
    <contour>
      <point x="438" y="319" type="line"/>
      <point x="174" y="228"/>
      <point x="349" y="56"/>
      <point x="577" y="234" type="curve"/>
      <point x="632" y="156" type="line"/>
      <point x="522" y="58"/>
      <point x="379" y="52"/>
      <point x="333" y="89" type="curve" smooth="yes"/>
      <point x="272" y="138"/>
      <point x="248" y="159"/>
      <point x="195" y="220" type="curve" smooth="yes"/>
      <point x="139" y="284"/>
      <point x="275" y="401"/>
      <point x="348" y="395" type="curve"/>
    </contour>
    <component base="dvMA" xOffset="526"/>
  </outline>
</glyph>
<glyph name="dvC_NA" format="1">
  <advance width="788"/>
  <outline>
    <contour>
      <point x="623" y="140" type="line"/>
      <point x="327" y="27" type="line" smooth="yes"/>
      <point x="106" y="-57"/>
      <point x="367" y="-152"/>
      <point x="325" y="36" type="curve"/>
      <point x="362" y="55" type="line"/>
      <point x="486" y="-4"/>
      <point x="377" y="-161"/>
      <point x="326" y="-143" type="curve"/>
      <point x="268" y="-125"/>
      <point x="237" y="-112"/>
      <point x="194" y="-89" type="curve" smooth="yes"/>
      <point x="126" y="-53"/>
      <point x="147" y="31"/>
      <point x="196" y="75" type="curve" smooth="yes"/>
      <point x="206" y="83"/>
      <point x="163" y="64"/>
      <point x="588" y="229" type="curve"/>
    </contour>
    <component base="dvCA" xOffset="32"/>
  </outline>
</glyph>
<glyph name="dvC_R" format="1">
  <advance width="555"/>
  <outline>
    <contour>
      <point x="629" y="253" type="line"/>
      <point x="607" y="196"/>
      <point x="473" y="52"/>
      <point x="378" y="-38" type="curve"/>
      <point x="294" y="28" type="line"/>
      <point x="383" y="94"/>
      <point x="536" y="229"/>
      <point x="598" y="302" type="curve"/>
    </contour>
    <contour>
      <point x="-8" y="402" type="line"/>
      <point x="310" y="402" type="line"/>
      <point x="408" y="319" type="line"/>
      <point x="88" y="319" type="line"/>
    </contour>
    <contour>
      <point x="408" y="319" type="line"/>
      <point x="97" y="212"/>
      <point x="310" y="49"/>
      <point x="569" y="347" type="curve"/>
      <point x="647" y="275" type="line"/>
      <point x="522" y="94"/>
      <point x="333" y="64"/>
      <point x="285" y="107" type="curve" smooth="yes"/>
      <point x="235" y="152"/>
      <point x="216" y="172"/>
      <point x="174" y="225" type="curve" smooth="yes"/>
      <point x="121" y="292"/>
      <point x="245" y="401"/>
      <point x="318" y="395" type="curve"/>
    </contour>
    <contour>
      <point x="-70" y="619" type="line"/>
      <point x="744" y="619" type="line"/>
      <point x="744" y="523" type="line"/>
      <point x="-70" y="523" type="line"/>
    </contour>
  </outline>
</glyph>
<glyph name="dvDA_mvR" format="1">
  <advance width="504"/>
  <outline>
    <contour>
      <point x="-20" y="619" type="line"/>
      <point x="520" y="619" type="line"/>
      <point x="520" y="523" type="line"/>
      <point x="-20" y="523" type="line"/>
    </contour>
    <contour>
      <point x="470" y="65" type="line"/>
      <point x="387" y="16"/>
      <point x="245" y="-40"/>
      <point x="202" y="-10" type="curve" smooth="yes"/>
      <point x="139" y="34"/>
      <point x="110" y="70"/>
      <point x="58" y="136" type="curve" smooth="yes"/>
      <point x="-3" y="213"/>
      <point x="165" y="316"/>
      <point x="312" y="292" type="curve"/>
      <point x="379" y="212" type="line"/>
      <point x="215" y="227"/>
      <point x="112" y="162"/>
      <point x="159" y="97" type="curve" smooth="yes"/>
      <point x="179" y="69"/>
      <point x="251" y="55"/>
      <point x="395" y="140" type="curve"/>
    </contour>
    <contour>
      <point x="110" y="454" type="curve" smooth="yes"/>
      <point x="127" y="461"/>
      <point x="248" y="469"/>
      <point x="248" y="469" type="curve"/>
      <point x="250" y="547" type="line"/>
      <point x="360" y="546" type="line"/>
      <point x="359" y="391" type="line"/>
      <point x="359" y="391"/>
      <point x="246" y="388"/>
      <point x="205" y="388" type="curve" smooth="yes"/>
      <point x="139" y="388"/>
      <point x="92" y="310"/>
      <point x="154" y="264" type="curve"/>
      <point x="116" y="240" type="line"/>
      <point x="23" y="318"/>
      <point x="40" y="426"/>
    </contour>
  </outline>
</glyph>
<glyph name="dvDDHA" format="1">
  <advance width="617"/>
  <outline>
    <contour>
      <point x="431" y="619" type="move" name="abvm.bindu"/>
    </contour>
    <contour>
      <point x="289" y="-13" type="move" name="blwm.virama"/>
    </contour>
    <contour>
      <point x="420" y="619" type="move" name="abvm.e"/>
    </contour>
    <contour>
      <point x="309" y="-19" type="move" name="blwm.u"/>
    </contour>
    <contour>
      <point x="349" y="468" type="line"/>
      <point x="349" y="523" type="line"/>
      <point x="-8" y="523" type="line"/>
      <point x="-8" y="619" type="line"/>
      <point x="620" y="619" type="line"/>
      <point x="620" y="523" type="line"/>
      <point x="460" y="523" type="line"/>
      <point x="460" y="382" type="line"/>
      <point x="269" y="382" type="line" smooth="yes"/>
      <point x="164" y="382"/>
      <point x="121" y="92"/>
      <point x="278" y="80" type="curve" smooth="yes"/>
      <point x="301" y="78"/>
      <point x="322" y="80"/>
      <point x="340" y="85" type="curve"/>
      <point x="320" y="107"/>
      <point x="296" y="137"/>
      <point x="285" y="162" type="curve" smooth="yes"/>
      <point x="255" y="232"/>
      <point x="390" y="319"/>
      <point x="415" y="319" type="curve" smooth="yes"/>
      <point x="440" y="319"/>
      <point x="566" y="190"/>
      <point x="572" y="169" type="curve" smooth="yes"/>
      <point x="581" y="133"/>
      <point x="533" y="77"/>
      <point x="483" y="37" type="curve"/>
      <point x="447" y="6"/>
      <point x="404" y="-14"/>
      <point x="343" y="-20" type="curve" smooth="yes"/>
      <point x="293" y="-24"/>
      <point x="261" y="-4"/>
      <point x="228" y="23" type="curve" smooth="yes"/>
      <point x="164" y="75"/>
      <point x="102" y="125"/>
      <point x="60" y="187" type="curve" smooth="yes"/>
      <point x="10" y="261"/>
      <point x="88" y="449"/>
      <point x="165" y="457" type="curve"/>
    </contour>
  </outline>
</glyph>
<glyph name="dvDDHxA" format="1">
  <advance width="607"/>
  <outline>
    <contour>
      <point x="431" y="619" type="move" name="abvm.bindu"/>
    </contour>
    <contour>
      <point x="306" y="-18" type="move" name="blwm.virama"/>
    </contour>
    <contour>
      <point x="443" y="619" type="move" name="abvm.e"/>
    </contour>
    <contour>
      <point x="322" y="-20" type="move" name="blwm.u"/>
    </contour>
    <component base="dvDDHA"/>
    <component base="dvNukta" xOffset="490" yOffset="70"/>
  </outline>
</glyph>
<glyph name="dvDD_VA" format="1">
  <advance width="620"/>
  <outline>
    <contour>
      <point x="419" y="619" type="move" name="abvm.bindu"/>
    </contour>
    <contour>
      <point x="446" y="-265" type="move" name="blwm.virama"/>
    </contour>
    <contour>
      <point x="399" y="619" type="move" name="abvm.e"/>
    </contour>
    <contour>
      <point x="431" y="-255" type="move" name="blwm.u"/>
    </contour>
    <contour>
      <point x="79" y="248" type="line"/>
      <point x="266" y="7"/>
      <point x="455" y="116"/>
      <point x="488" y="237" type="curve" smooth="yes"/>
      <point x="506" y="303"/>
      <point x="295" y="146"/>
      <point x="239" y="186" type="curve" smooth="yes"/>
      <point x="191" y="220"/>
      <point x="137" y="260"/>
      <point x="99" y="300" type="curve" smooth="yes"/>
      <point x="58" y="345"/>
      <point x="134" y="455"/>
      <point x="188" y="459" type="curve" smooth="yes"/>
      <point x="349" y="470" type="line"/>
      <point x="349" y="555" type="line"/>
      <point x="461" y="555" type="line"/>
      <point x="461" y="393" type="line"/>
      <point x="240" y="393" type="line" smooth="yes"/>
      <point x="194" y="393"/>
      <point x="162" y="263"/>
      <point x="248" y="286" type="curve" smooth="yes"/>
      <point x="294" y="298"/>
      <point x="442" y="351"/>
      <point x="456" y="339" type="curve" smooth="yes"/>
      <point x="504" y="299"/>
      <point x="581" y="198"/>
      <point x="570" y="167" type="curve" smooth="yes"/>
      <point x="495" y="-49"/>
      <point x="231" y="-28"/>
      <point x="59" y="229" type="curve"/>
    </contour>
    <contour>
      <point x="-10" y="619" type="line"/>
      <point x="649" y="619" type="line"/>
      <point x="649" y="523" type="line"/>
      <point x="-10" y="523" type="line"/>
    </contour>
    <contour>
      <point x="265" y="46" type="line"/>
      <point x="187" y="9"/>
      <point x="160" y="-53"/>
      <point x="193" y="-89" type="curve" smooth="yes"/>
      <point x="221" y="-118"/>
      <point x="334" y="-162"/>
      <point x="447" y="24" type="curve"/>
      <point x="470" y="-87" type="line"/>
      <point x="307" y="-316"/>
      <point x="183" y="-197"/>
      <point x="96" y="-27" type="curve" smooth="yes"/>
      <point x="67" y="28"/>
      <point x="121" y="90"/>
      <point x="198" y="128" type="curve"/>
    </contour>
    <contour>
      <point x="386" y="122" type="line"/>
      <point x="496" y="130" type="line"/>
      <point x="496" y="-278" type="line"/>
      <point x="386" y="-230" type="line"/>
    </contour>
  </outline>
</glyph>
<glyph name="dvDH" format="1">
  <advance width="478"/>
  <outline>
    <contour>
      <point x="93" y="449" type="line"/>
      <point x="185" y="423"/>
      <point x="279" y="517"/>
      <point x="256" y="537" type="curve" smooth="yes"/>
      <point x="213" y="573"/>
      <point x="10" y="471"/>
      <point x="214" y="331" type="curve"/>
      <point x="181" y="309" type="line"/>
      <point x="145" y="332"/>
      <point x="66" y="396"/>
      <point x="35" y="429" type="curve" smooth="yes"/>
      <point x="-51" y="521"/>
      <point x="177" y="644"/>
      <point x="214" y="625" type="curve" smooth="yes"/>
      <point x="269" y="597"/>
      <point x="306" y="565"/>
      <point x="333" y="532" type="curve" smooth="yes"/>
      <point x="385" y="469"/>
      <point x="259" y="361"/>
      <point x="152" y="377" type="curve"/>
    </contour>
    <contour>
      <point x="382" y="287" type="line"/>
      <point x="274" y="268"/>
      <point x="141" y="187"/>
      <point x="204" y="127" type="curve" smooth="yes"/>
      <point x="262" y="72"/>
      <point x="461" y="199"/>
      <point x="508" y="317" type="curve"/>
      <point x="576" y="221" type="line"/>
      <point x="497" y="59"/>
      <point x="279" y="-4"/>
      <point x="220" y="50" type="curve" smooth="yes"/>
      <point x="178" y="88"/>
      <point x="130" y="128"/>
      <point x="88" y="178" type="curve" smooth="yes"/>
      <point x="33" y="243"/>
      <point x="235" y="370"/>
      <point x="308" y="364" type="curve"/>
    </contour>
    <contour>
      <point x="375" y="619" type="line"/>
      <point x="697" y="619" type="line"/>
      <point x="697" y="523" type="line"/>
      <point x="414" y="523" type="line"/>
    </contour>
  </outline>
</glyph>
<glyph name="dvDH_R" format="1">
  <advance width="487"/>
  <outline>
    <contour>
      <point x="539" y="154" type="line"/>
      <point x="518" y="98"/>
      <point x="432" y="2"/>
      <point x="359" y="-64" type="curve"/>
      <point x="275" y="2" type="line"/>
      <point x="364" y="68"/>
      <point x="446" y="130"/>
      <point x="508" y="203" type="curve"/>
    </contour>
    <component base="dvDH"/>
  </outline>
</glyph>
<glyph name="dvD_G_RA" format="1">
  <advance width="608"/>
  <outline>
    <contour>
      <point x="424" y="619" type="move" name="abvm.bindu"/>
    </contour>
    <contour>
      <point x="313" y="-407" type="move" name="blwm.virama"/>
    </contour>
    <contour>
      <point x="412" y="619" type="move" name="abvm.e"/>
    </contour>
    <contour>
      <point x="313" y="-397" type="move" name="blwm.u"/>
    </contour>
    <contour>
      <point x="501" y="21" type="line"/>
      <point x="488" y="-33"/>
      <point x="489" y="-102"/>
      <point x="439" y="-198" type="curve"/>
      <point x="362" y="-181" type="line"/>
      <point x="415" y="-86"/>
      <point x="440" y="-50"/>
      <point x="453" y="45" type="curve"/>
    </contour>
    <component base="dvD_GA"/>
  </outline>
</glyph>
<glyph name="dvD_NA" format="1">
  <advance width="605"/>
  <outline>
    <contour>
      <point x="450" y="662" type="move" name="abvm.bindu"/>
    </contour>
    <contour>
      <point x="375" y="-204" type="move" name="blwm.virama"/>
    </contour>
    <contour>
      <point x="450" y="672" type="move" name="abvm.e"/>
    </contour>
    <contour>
      <point x="394" y="-194" type="move" name="blwm.u"/>
    </contour>
    <contour>
      <point x="526" y="17" type="line"/>
      <point x="418" y="-15"/>
      <point x="385" y="-35"/>
      <point x="325" y="-62" type="curve"/>
      <point x="323" y="-62"/>
      <point x="322" y="-63"/>
      <point x="320" y="-64" type="curve"/>
      <point x="474" y="-142"/>
      <point x="330" y="-277"/>
      <point x="275" y="-254" type="curve"/>
      <point x="219" y="-232"/>
      <point x="219" y="-231"/>
      <point x="165" y="-206" type="curve" smooth="yes"/>
      <point x="90" y="-171"/>
      <point x="129" y="-49"/>
      <point x="172" y="-25" type="curve" smooth="yes"/>
      <point x="232" y="9"/>
      <point x="323" y="40"/>
      <point x="472" y="70" type="curve"/>
    </contour>
    <component base="dvDA"/>
  </outline>
</glyph>
<glyph name="dvD_VA" format="1">
  <advance width="627"/>
  <outline>
    <contour>
      <point x="450" y="662" type="move" name="abvm.bindu"/>
    </contour>
    <contour>
      <point x="315" y="-275" type="move" name="blwm.virama"/>
    </contour>
    <contour>
      <point x="450" y="672" type="move" name="abvm.e"/>
    </contour>
    <contour>
      <point x="315" y="-265" type="move" name="blwm.u"/>
    </contour>
    <contour>
      <point x="553" y="-70" type="line"/>
      <point x="529" y="-40" type="line"/>
      <point x="369" y="-255"/>
      <point x="211" y="-184"/>
      <point x="126" y="-17" type="curve" smooth="yes"/>
      <point x="103" y="27"/>
      <point x="132" y="75"/>
      <point x="185" y="112" type="curve"/>
      <point x="145" y="147"/>
      <point x="114" y="177"/>
      <point x="83" y="224" type="curve" smooth="yes"/>
      <point x="33" y="298"/>
      <point x="99" y="447"/>
      <point x="176" y="455" type="curve"/>
      <point x="336" y="468" type="line"/>
      <point x="336" y="523" type="line"/>
      <point x="-30" y="523" type="line"/>
      <point x="-30" y="619" type="line"/>
      <point x="636" y="619" type="line"/>
      <point x="636" y="523" type="line"/>
      <point x="447" y="523" type="line"/>
      <point x="447" y="391" type="line"/>
      <point x="280" y="389" type="line" smooth="yes"/>
      <point x="175" y="388"/>
      <point x="103" y="136"/>
      <point x="285" y="123" type="curve" smooth="yes"/>
      <point x="323" y="120"/>
      <point x="355" y="130"/>
      <point x="380" y="147" type="curve"/>
      <point x="334" y="207"/>
      <point x="328" y="220"/>
      <point x="332" y="228" type="curve" smooth="yes"/>
      <point x="347" y="258"/>
      <point x="384" y="286"/>
      <point x="402" y="297" type="curve" smooth="yes"/>
      <point x="449" y="327"/>
      <point x="484" y="299"/>
      <point x="516" y="261" type="curve" smooth="yes"/>
      <point x="543" y="229"/>
      <point x="560" y="183"/>
      <point x="530" y="153" type="curve" smooth="yes"/>
      <point x="477" y="100" type="line"/>
      <point x="592" y="-43" type="line"/>
    </contour>
    <contour>
      <point x="276" y="46" type="curve"/>
      <point x="213" y="8"/>
      <point x="193" y="-46"/>
      <point x="223" y="-79" type="curve" smooth="yes"/>
      <point x="250" y="-107"/>
      <point x="347" y="-128"/>
      <point x="458" y="48" type="curve"/>
      <point x="452" y="57"/>
      <point x="445" y="65"/>
      <point x="439" y="73" type="curve"/>
      <point x="390" y="34"/>
      <point x="336" y="18"/>
    </contour>
  </outline>
</glyph>
<glyph name="dvEight" format="1">
  <advance width="509"/>
  <outline>
    <contour>
      <point x="412" y="127" type="line"/>
      <point x="328" y="56"/>
      <point x="176" y="30"/>
      <point x="114" y="103" type="curve" smooth="yes"/>
      <point x="41" y="189"/>
      <point x="261" y="405"/>
      <point x="340" y="472" type="curve"/>
      <point x="249" y="530" type="line"/>
      <point x="181" y="465"/>
      <point x="-40" y="224"/>
      <point x="1" y="170" type="curve" smooth="yes"/>
      <point x="51" y="105"/>
      <point x="88" y="59"/>
      <point x="147" y="0" type="curve" smooth="yes"/>
      <point x="213" y="-66"/>
      <point x="343" y="-11"/>
      <point x="443" y="82" type="curve"/>
    </contour>
  </outline>
</glyph>
<glyph name="dvFive" format="1">
  <advance width="618"/>
  <outline>
    <contour>
      <point x="237" y="525" type="line"/>
      <point x="67" y="389"/>
      <point x="20" y="314"/>
      <point x="95" y="236" type="curve"/>
      <point x="146" y="181"/>
      <point x="172" y="151"/>
      <point x="242" y="108" type="curve" smooth="yes"/>
      <point x="292" y="76"/>
      <point x="344" y="75"/>
      <point x="390" y="92" type="curve"/>
      <point x="384" y="42"/>
      <point x="373" y="-16"/>
      <point x="358" y="-83" type="curve"/>
      <point x="470" y="-122" type="line"/>
      <point x="494" y="172" type="line"/>
      <point x="502" y="182"/>
      <point x="509" y="193"/>
      <point x="515" y="204" type="curve"/>
      <point x="526" y="219" type="line" smooth="yes"/>
      <point x="550" y="252"/>
      <point x="558" y="290"/>
      <point x="542" y="328" type="curve" smooth="yes"/>
      <point x="536" y="342"/>
      <point x="421" y="348"/>
      <point x="406" y="329" type="curve" smooth="yes"/>
      <point x="402" y="324"/>
      <point x="404" y="296"/>
      <point x="403" y="246" type="curve"/>
      <point x="355" y="185"/>
      <point x="283" y="139"/>
      <point x="226" y="187" type="curve" smooth="yes"/>
      <point x="139" y="259"/>
      <point x="186" y="351"/>
      <point x="332" y="457" type="curve"/>
    </contour>
  </outline>
</glyph>
<glyph name="dvGH_NA" format="1">
  <advance width="708"/>
  <outline>
    <contour>
      <point x="553" y="92" type="line"/>
      <point x="288" y="15" type="line"/>
      <point x="379" y="-57"/>
      <point x="268" y="-188"/>
      <point x="220" y="-169" type="curve"/>
      <point x="166" y="-144"/>
      <point x="136" y="-130"/>
      <point x="93" y="-104" type="curve"/>
      <point x="29" y="-62"/>
      <point x="53" y="23"/>
      <point x="108" y="59" type="curve"/>
      <point x="117" y="67"/>
      <point x="89" y="53"/>
      <point x="526" y="184" type="curve"/>
    </contour>
    <component base="dvGHA"/>
  </outline>
</glyph>
<glyph name="dvHA" format="1">
  <advance width="520"/>
  <outline>
    <contour>
      <point x="422" y="662" type="move" name="abvm.bindu"/>
    </contour>
    <contour>
      <point x="280" y="-141" type="move" name="blwm.virama"/>
    </contour>
    <contour>
      <point x="420" y="621" type="move" name="abvm.e"/>
    </contour>
    <contour>
      <point x="397" y="-6" type="move" name="blwm.u"/>
    </contour>
    <contour>
      <point x="154" y="236" type="line"/>
      <point x="84" y="273"/>
      <point x="118" y="381"/>
      <point x="201" y="381" type="curve" smooth="yes"/>
      <point x="422" y="381" type="line"/>
      <point x="422" y="544" type="line"/>
      <point x="311" y="544" type="line"/>
      <point x="311" y="466" type="line"/>
      <point x="127" y="455" type="line" smooth="yes"/>
      <point x="73" y="452"/>
      <point x="14" y="328"/>
      <point x="56" y="283" type="curve" smooth="yes"/>
      <point x="77" y="260"/>
      <point x="104" y="235"/>
      <point x="133" y="210" type="curve"/>
    </contour>
    <contour>
      <point x="-13" y="523" type="line"/>
      <point x="527" y="523" type="line"/>
      <point x="527" y="619" type="line"/>
      <point x="-13" y="619" type="line"/>
    </contour>
    <contour>
      <point x="308" y="309" type="curve" smooth="yes"/>
      <point x="242" y="311"/>
      <point x="34" y="185"/>
      <point x="36" y="102" type="curve" smooth="yes"/>
      <point x="39" y="5"/>
      <point x="187" y="-90"/>
      <point x="311" y="-199" type="curve"/>
      <point x="336" y="-164" type="line"/>
      <point x="260" y="-102"/>
      <point x="137" y="-15"/>
      <point x="140" y="54" type="curve"/>
      <point x="142" y="129"/>
      <point x="345" y="255"/>
      <point x="385" y="198" type="curve" smooth="yes"/>
      <point x="415" y="156"/>
      <point x="356" y="96"/>
      <point x="298" y="71" type="curve"/>
      <point x="382" y="-8" type="line"/>
      <point x="417" y="6"/>
      <point x="497" y="67"/>
      <point x="494" y="138" type="curve" smooth="yes"/>
      <point x="493" y="163"/>
      <point x="361" y="308"/>
    </contour>
  </outline>
</glyph>
<glyph name="dvHA_mUU" format="1">
  <advance width="518"/>
  <outline>
    <contour>
      <point x="422" y="662" type="move" name="abvm.bindu"/>
    </contour>
    <contour>
      <point x="422" y="672" type="move" name="abvm.e"/>
    </contour>
    <contour>
      <point x="154" y="236" type="line"/>
      <point x="84" y="273"/>
      <point x="118" y="381"/>
      <point x="201" y="381" type="curve" smooth="yes"/>
      <point x="422" y="381" type="line"/>
      <point x="422" y="544" type="line"/>
      <point x="311" y="544" type="line"/>
      <point x="311" y="466" type="line"/>
      <point x="127" y="455" type="line" smooth="yes"/>
      <point x="73" y="452"/>
      <point x="14" y="328"/>
      <point x="56" y="283" type="curve" smooth="yes"/>
      <point x="77" y="260"/>
      <point x="104" y="235"/>
      <point x="133" y="210" type="curve"/>
    </contour>
    <contour>
      <point x="-13" y="523" type="line"/>
      <point x="527" y="523" type="line"/>
      <point x="527" y="619" type="line"/>
      <point x="-13" y="619" type="line"/>
    </contour>
    <contour>
      <point x="308" y="309" type="curve" smooth="yes"/>
      <point x="242" y="311"/>
      <point x="34" y="185"/>
      <point x="36" y="102" type="curve" smooth="yes"/>
      <point x="39" y="5"/>
      <point x="212" y="-83"/>
      <point x="363" y="-167" type="curve"/>
      <point x="381" y="-151" type="line"/>
      <point x="311" y="-87"/>
      <point x="137" y="-15"/>
      <point x="140" y="54" type="curve"/>
      <point x="142" y="129"/>
      <point x="345" y="255"/>
      <point x="385" y="198" type="curve" smooth="yes"/>
      <point x="415" y="156"/>
      <point x="356" y="96"/>
      <point x="298" y="71" type="curve"/>
      <point x="382" y="-8" type="line"/>
      <point x="417" y="6"/>
      <point x="497" y="67"/>
      <point x="494" y="138" type="curve" smooth="yes"/>
      <point x="493" y="163"/>
      <point x="361" y="308"/>
    </contour>
    <contour>
      <point x="220" y="-407" type="curve" smooth="yes"/>
      <point x="243" y="-413"/>
      <point x="326" y="-387"/>
      <point x="381" y="-354" type="curve"/>
      <point x="319" y="-280" type="line"/>
      <point x="269" y="-304" type="line" smooth="yes"/>
      <point x="188" y="-343"/>
      <point x="113" y="-240"/>
      <point x="188" y="-180" type="curve" smooth="yes"/>
      <point x="279" y="-107"/>
      <point x="373" y="-202"/>
      <point x="559" y="-343" type="curve"/>
      <point x="577" y="-322" type="line"/>
      <point x="468" y="-214"/>
      <point x="296" y="-76"/>
      <point x="250" y="-68" type="curve" smooth="yes"/>
      <point x="128" y="-48"/>
      <point x="-12" y="-192"/>
      <point x="74" y="-283" type="curve" smooth="yes"/>
      <point x="121" y="-332"/>
      <point x="192" y="-401"/>
    </contour>
  </outline>
</glyph>
<glyph name="dvHA_mvR" format="1">
  <advance width="520"/>
  <outline>
    <contour>
      <point x="382" y="621" type="move" name="abvm.bindu"/>
    </contour>
    <contour>
      <point x="374" y="620" type="move" name="abvm.e"/>
    </contour>
    <contour>
      <point x="-13" y="619" type="line"/>
      <point x="527" y="619" type="line"/>
      <point x="527" y="523" type="line"/>
      <point x="-13" y="523" type="line"/>
    </contour>
    <contour>
      <point x="133" y="210" type="line"/>
      <point x="104" y="235"/>
      <point x="77" y="260"/>
      <point x="56" y="283" type="curve" smooth="yes"/>
      <point x="14" y="328"/>
      <point x="73" y="452"/>
      <point x="127" y="455" type="curve" smooth="yes"/>
      <point x="311" y="466" type="line"/>
      <point x="311" y="544" type="line"/>
      <point x="422" y="544" type="line"/>
      <point x="422" y="381" type="line"/>
      <point x="201" y="381" type="line" smooth="yes"/>
      <point x="118" y="381"/>
      <point x="84" y="273"/>
      <point x="154" y="236" type="curve"/>
    </contour>
    <contour>
      <point x="308" y="309" type="curve" smooth="yes"/>
      <point x="361" y="308"/>
      <point x="494" y="156"/>
      <point x="481" y="134" type="curve" smooth="yes"/>
      <point x="444" y="70"/>
      <point x="215" y="67"/>
      <point x="248" y="9" type="curve" smooth="yes"/>
      <point x="273" y="-35"/>
      <point x="338" y="-18"/>
      <point x="386" y="23" type="curve"/>
      <point x="448" y="-29" type="line"/>
      <point x="402" y="-68"/>
      <point x="317" y="-90"/>
      <point x="282" y="-79" type="curve" smooth="yes"/>
      <point x="256" y="-71"/>
      <point x="193" y="24"/>
      <point x="169" y="67" type="curve" smooth="yes"/>
      <point x="137" y="124"/>
      <point x="411" y="147"/>
      <point x="377" y="198" type="curve" smooth="yes"/>
      <point x="322" y="281"/>
      <point x="21" y="133"/>
      <point x="178" y="-65" type="curve" smooth="yes"/>
      <point x="209" y="-104"/>
      <point x="269" y="-163"/>
      <point x="405" y="-105" type="curve"/>
      <point x="470" y="-185" type="line"/>
      <point x="402" y="-209"/>
      <point x="271" y="-218"/>
      <point x="253" y="-204" type="curve" smooth="yes"/>
      <point x="176" y="-145"/>
      <point x="38" y="25"/>
      <point x="36" y="102" type="curve" smooth="yes"/>
      <point x="34" y="185"/>
      <point x="242" y="311"/>
    </contour>
  </outline>
</glyph>
<glyph name="dvH_LA" format="1">
  <advance width="775"/>
  <outline>
    <contour>
      <point x="501" y="662" type="move" name="abvm.bindu"/>
    </contour>
    <contour>
      <point x="402" y="-322" type="move" name="blwm.virama"/>
    </contour>
    <contour>
      <point x="502" y="672" type="move" name="abvm.e"/>
    </contour>
    <contour>
      <point x="402" y="-332" type="move" name="blwm.u"/>
    </contour>
  </outline>
</glyph>
<glyph name="dvH_MA" format="1">
  <advance width="781"/>
  <outline>
    <contour>
      <point x="496" y="34" type="line"/>
      <point x="496" y="-4" type="line" smooth="yes"/>
      <point x="496" y="-109"/>
      <point x="373" y="-100"/>
      <point x="347" y="-78" type="curve" smooth="yes"/>
      <point x="326" y="-61"/>
      <point x="306" y="-42"/>
      <point x="279" y="-12" type="curve" smooth="yes"/>
      <point x="232" y="40"/>
      <point x="271" y="130"/>
      <point x="332" y="130" type="curve" smooth="yes"/>
      <point x="412" y="130" type="line"/>
      <point x="359" y="316"/>
      <point x="51" y="120"/>
      <point x="199" y="-66" type="curve" smooth="yes"/>
      <point x="230" y="-104"/>
      <point x="310" y="-191"/>
      <point x="446" y="-133" type="curve"/>
      <point x="511" y="-213" type="line"/>
      <point x="443" y="-237"/>
      <point x="312" y="-246"/>
      <point x="294" y="-232" type="curve" smooth="yes"/>
      <point x="217" y="-173"/>
      <point x="38" y="25"/>
      <point x="36" y="102" type="curve" smooth="yes"/>
      <point x="35" y="137"/>
      <point x="75" y="180"/>
      <point x="126" y="218" type="curve"/>
      <point x="101" y="240"/>
      <point x="72" y="265"/>
      <point x="56" y="283" type="curve" smooth="yes"/>
      <point x="14" y="328"/>
      <point x="73" y="452"/>
      <point x="127" y="455" type="curve" smooth="yes"/>
      <point x="321" y="466" type="line"/>
      <point x="321" y="523" type="line"/>
      <point x="-13" y="523" type="line"/>
      <point x="-13" y="619" type="line"/>
      <point x="790" y="619" type="line"/>
      <point x="790" y="523" type="line"/>
      <point x="721" y="523" type="line"/>
      <point x="721" y="-58" type="line"/>
      <point x="597" y="-2" type="line"/>
      <point x="597" y="34" type="line"/>
    </contour>
    <contour>
      <point x="201" y="381" type="line"/>
      <point x="124" y="381"/>
      <point x="102" y="281"/>
      <point x="153" y="236" type="curve"/>
      <point x="216" y="277"/>
      <point x="287" y="308"/>
      <point x="320" y="308" type="curve" smooth="yes"/>
      <point x="347" y="308"/>
      <point x="477" y="179"/>
      <point x="496" y="130" type="curve"/>
      <point x="597" y="130" type="line"/>
      <point x="597" y="523" type="line"/>
      <point x="432" y="523" type="line"/>
      <point x="432" y="381" type="line"/>
    </contour>
    <contour>
      <point x="391" y="35" type="line"/>
      <point x="324" y="37"/>
      <point x="324" y="6"/>
      <point x="342" y="-13" type="curve" smooth="yes"/>
      <point x="363" y="-36"/>
      <point x="410" y="-43"/>
      <point x="411" y="35" type="curve"/>
    </contour>
  </outline>
</glyph>
<glyph name="dvH_NA" format="1">
  <advance width="674"/>
  <outline>
    <contour>
      <point x="501" y="662" type="move" name="abvm.bindu"/>
    </contour>
    <contour>
      <point x="392" y="-322" type="move" name="blwm.virama"/>
    </contour>
    <contour>
      <point x="501" y="672" type="move" name="abvm.e"/>
    </contour>
    <contour>
      <point x="392" y="-332" type="move" name="blwm.u"/>
    </contour>
    <contour>
      <point x="399" y="327" type="curve" smooth="yes"/>
      <point x="452" y="326"/>
      <point x="676" y="40"/>
      <point x="663" y="18" type="curve" smooth="yes"/>
      <point x="652" y="-1"/>
      <point x="617" y="-56"/>
      <point x="558" y="-84" type="curve"/>
      <point x="496" y="-2" type="line"/>
      <point x="540" y="10"/>
      <point x="562" y="45"/>
      <point x="538" y="97" type="curve"/>
      <point x="480" y="93"/>
      <point x="469" y="92"/>
      <point x="416" y="80" type="curve" smooth="yes"/>
      <point x="414" y="79"/>
      <point x="413" y="79"/>
      <point x="412" y="79" type="curve" smooth="yes"/>
      <point x="535" y="-42"/>
      <point x="358" y="-127"/>
      <point x="313" y="-89" type="curve"/>
      <point x="265" y="-52"/>
      <point x="265" y="-51"/>
      <point x="221" y="-11" type="curve" smooth="yes"/>
      <point x="160" y="44"/>
      <point x="233" y="149"/>
      <point x="281" y="160" type="curve" smooth="yes"/>
      <point x="339" y="173"/>
      <point x="375" y="178"/>
      <point x="483" y="170" type="curve"/>
      <point x="322" y="330"/>
      <point x="10" y="141"/>
      <point x="209" y="-96" type="curve" smooth="yes"/>
      <point x="241" y="-134"/>
      <point x="320" y="-221"/>
      <point x="456" y="-163" type="curve"/>
      <point x="521" y="-243" type="line"/>
      <point x="453" y="-267"/>
      <point x="322" y="-276"/>
      <point x="304" y="-262" type="curve" smooth="yes"/>
      <point x="227" y="-203"/>
      <point x="38" y="25"/>
      <point x="36" y="102" type="curve" smooth="yes"/>
      <point x="35" y="133"/>
      <point x="78" y="173"/>
      <point x="135" y="211" type="curve"/>
      <point x="107" y="235"/>
      <point x="74" y="263"/>
      <point x="56" y="283" type="curve" smooth="yes"/>
      <point x="14" y="328"/>
      <point x="73" y="452"/>
      <point x="127" y="455" type="curve"/>
      <point x="441" y="466" type="line"/>
      <point x="441" y="523" type="line"/>
      <point x="-13" y="523" type="line"/>
      <point x="-13" y="619" type="line"/>
      <point x="680" y="619" type="line"/>
      <point x="680" y="523" type="line"/>
      <point x="552" y="523" type="line"/>
      <point x="552" y="381" type="line"/>
      <point x="201" y="381" type="line" smooth="yes"/>
      <point x="120" y="381"/>
      <point x="100" y="270"/>
      <point x="163" y="229" type="curve"/>
      <point x="252" y="283"/>
      <point x="362" y="328"/>
    </contour>
  </outline>
</glyph>
<glyph name="dvH_RA" format="1">
  <advance width="605"/>
  <outline>
    <contour>
      <point x="462" y="662" type="move" name="abvm.bindu"/>
    </contour>
    <contour>
      <point x="357" y="-290" type="move" name="blwm.virama"/>
    </contour>
    <contour>
      <point x="462" y="672" type="move" name="abvm.e"/>
    </contour>
    <contour>
      <point x="357" y="-300" type="move" name="blwm.u"/>
    </contour>
  </outline>
</glyph>
<glyph name="dvI" format="1">
  <advance width="591"/>
  <outline>
    <contour>
      <point x="435" y="662" type="move" name="abvm.bindu"/>
    </contour>
    <contour>
      <point x="539" y="-140" type="line"/>
      <point x="446" y="-80"/>
      <point x="202" y="134"/>
      <point x="155" y="156" type="curve"/>
      <point x="120" y="147"/>
      <point x="83" y="106"/>
      <point x="83" y="92" type="curve" smooth="yes"/>
      <point x="83" y="48"/>
      <point x="134" y="5"/>
      <point x="141" y="-1" type="curve"/>
      <point x="168" y="-29"/>
      <point x="251" y="-16"/>
      <point x="306" y="-12" type="curve"/>
      <point x="377" y="-71"/>
      <point x="436" y="-123"/>
      <point x="500" y="-182" type="curve"/>
    </contour>
    <contour>
      <point x="-5" y="522" type="line"/>
      <point x="597" y="522" type="line"/>
      <point x="597" y="619" type="line"/>
      <point x="-5" y="619" type="line"/>
    </contour>
    <contour>
      <point x="266" y="0" type="line"/>
      <point x="516" y="-62"/>
      <point x="610" y="160"/>
      <point x="569" y="200" type="curve" smooth="yes"/>
      <point x="536" y="233"/>
      <point x="483" y="282"/>
      <point x="431" y="320" type="curve" smooth="yes"/>
      <point x="416" y="330"/>
      <point x="281" y="280"/>
      <point x="235" y="268" type="curve" smooth="yes"/>
      <point x="148" y="245"/>
      <point x="181" y="384"/>
      <point x="227" y="384" type="curve" smooth="yes"/>
      <point x="450" y="384" type="line"/>
      <point x="447" y="557" type="line"/>
      <point x="336" y="557" type="line"/>
      <point x="336" y="479" type="line"/>
      <point x="152" y="468" type="line"/>
      <point x="98" y="464"/>
      <point x="40" y="340"/>
      <point x="81" y="295" type="curve" smooth="yes"/>
      <point x="118" y="255"/>
      <point x="176" y="208"/>
      <point x="226" y="168" type="curve" smooth="yes"/>
      <point x="279" y="125"/>
      <point x="432" y="272"/>
      <point x="479" y="224" type="curve" smooth="yes"/>
      <point x="533" y="170"/>
      <point x="363" y="39"/>
      <point x="229" y="89" type="curve"/>
    </contour>
  </outline>
</glyph>
<glyph name="dvJH" format="1">
  <advance width="504"/>
  <outline>
    <contour>
      <point x="-6" y="522" type="line"/>
      <point x="277" y="522" type="line"/>
      <point x="277" y="476" type="line"/>
      <point x="114" y="465" type="line" smooth="yes"/>
      <point x="60" y="461"/>
      <point x="1" y="337"/>
      <point x="43" y="292" type="curve" smooth="yes"/>
      <point x="80" y="252"/>
      <point x="138" y="205"/>
      <point x="187" y="165" type="curve" smooth="yes"/>
      <point x="241" y="122"/>
      <point x="371" y="264"/>
      <point x="418" y="216" type="curve" smooth="yes"/>
      <point x="468" y="166"/>
      <point x="344" y="53"/>
      <point x="219" y="78" type="curve"/>
      <point x="171" y="116"/>
      <point x="133" y="145"/>
      <point x="117" y="153" type="curve"/>
      <point x="82" y="144"/>
      <point x="45" y="103"/>
      <point x="45" y="89" type="curve" smooth="yes"/>
      <point x="45" y="45"/>
      <point x="96" y="2"/>
      <point x="103" y="-4" type="curve"/>
      <point x="130" y="-32"/>
      <point x="213" y="-19"/>
      <point x="268" y="-15" type="curve"/>
      <point x="339" y="-74"/>
      <point x="397" y="-126"/>
      <point x="461" y="-185" type="curve"/>
      <point x="500" y="-143" type="line"/>
      <point x="462" y="-118"/>
      <point x="397" y="-67"/>
      <point x="331" y="-13" type="curve"/>
      <point x="497" y="-2"/>
      <point x="542" y="158"/>
      <point x="508" y="192" type="curve" smooth="yes"/>
      <point x="491" y="208"/>
      <point x="469" y="229"/>
      <point x="445" y="250" type="curve"/>
      <point x="513" y="226"/>
      <point x="544" y="225"/>
      <point x="626" y="262" type="curve"/>
      <point x="625" y="264"/>
      <point x="588" y="355"/>
      <point x="586" y="354" type="curve" smooth="yes"/>
      <point x="512" y="300"/>
      <point x="467" y="293"/>
      <point x="368" y="312" type="curve"/>
      <point x="349" y="319"/>
      <point x="242" y="276"/>
      <point x="197" y="265" type="curve" smooth="yes"/>
      <point x="110" y="242"/>
      <point x="143" y="381"/>
      <point x="188" y="381" type="curve" smooth="yes"/>
      <point x="391" y="381" type="line"/>
      <point x="388" y="522" type="line"/>
      <point x="773" y="522" type="line"/>
      <point x="773" y="619" type="line"/>
      <point x="-6" y="619" type="line"/>
    </contour>
  </outline>
</glyph>
<glyph name="dvJH_R" format="1">
  <advance width="630"/>
  <outline>
    <contour>
      <point x="677" y="159" type="line"/>
      <point x="656" y="103"/>
      <point x="583" y="-13"/>
      <point x="521" y="-87" type="curve"/>
      <point x="437" y="-21" type="line"/>
      <point x="521" y="49"/>
      <point x="584" y="135"/>
      <point x="646" y="208" type="curve"/>
    </contour>
    <component base="dvJH"/>
  </outline>
</glyph>
<glyph name="dvJ_DA" format="1">
  <advance width="1119"/>
  <outline>
    <contour>
      <point x="954" y="619" type="move" name="abvm.bindu"/>
    </contour>
    <contour>
      <point x="762" y="24" type="move" name="blwm.virama"/>
    </contour>
    <contour>
      <point x="959" y="620" type="move" name="abvm.e"/>
    </contour>
    <contour>
      <point x="792" y="3" type="move" name="blwm.u"/>
    </contour>
    <component base="dvDA" xOffset="538"/>
    <component base="dvJ" xOffset="-9"/>
  </outline>
</glyph>
<glyph name="dvJ_KA" format="1">
  <advance width="1427"/>
  <outline>
    <contour>
      <point x="1030" y="619" type="move" name="abvm.bindu"/>
    </contour>
    <contour>
      <point x="964" y="0" type="move" name="blwm.virama"/>
    </contour>
    <contour>
      <point x="1024" y="619" type="move" name="abvm.e"/>
    </contour>
    <contour>
      <point x="1002" y="-21" type="move" name="blwm.u"/>
    </contour>
    <component base="dvKA" xOffset="583"/>
    <component base="dvJ" xOffset="-10"/>
  </outline>
</glyph>
<glyph name="dvJ_NYA" format="1">
  <advance width="745"/>
  <outline>
    <contour>
      <point x="463" y="-170" type="line"/>
      <point x="399" y="-111"/>
      <point x="341" y="-59"/>
      <point x="270" y="0" type="curve"/>
      <point x="215" y="-4"/>
      <point x="132" y="-17"/>
      <point x="105" y="11" type="curve"/>
      <point x="98" y="17"/>
      <point x="47" y="60"/>
      <point x="47" y="104" type="curve" smooth="yes"/>
      <point x="47" y="118"/>
      <point x="84" y="159"/>
      <point x="119" y="168" type="curve"/>
      <point x="166" y="146"/>
      <point x="410" y="-68"/>
      <point x="502" y="-128" type="curve"/>
    </contour>
    <contour>
      <point x="272" y="350" type="line"/>
      <point x="330" y="309"/>
      <point x="406" y="247"/>
      <point x="439" y="203" type="curve" smooth="yes"/>
      <point x="472" y="159"/>
      <point x="359" y="-40"/>
      <point x="165" y="9" type="curve"/>
      <point x="211" y="98" type="line"/>
      <point x="327" y="93"/>
      <point x="369" y="238"/>
      <point x="241" y="322" type="curve"/>
    </contour>
    <contour>
      <point x="545" y="537" type="line"/>
      <point x="669" y="537" type="line"/>
      <point x="669" y="-56" type="line"/>
      <point x="545" y="0" type="line"/>
    </contour>
    <contour>
      <point x="-59" y="619" type="line"/>
      <point x="755" y="619" type="line"/>
      <point x="755" y="523" type="line"/>
      <point x="-59" y="523" type="line"/>
    </contour>
    <contour>
      <point x="72" y="401" type="line"/>
      <point x="579" y="402" type="line"/>
      <point x="585" y="305" type="line"/>
      <point x="181" y="305" type="line"/>
    </contour>
  </outline>
</glyph>
<glyph name="dvJ_NY" format="1">
  <advance width="561"/>
  <outline>
    <contour>
      <point x="72" y="401" type="line"/>
      <point x="629" y="402" type="line"/>
      <point x="635" y="305" type="line"/>
      <point x="339" y="305" type="line"/>
      <point x="382" y="271"/>
      <point x="423" y="233"/>
      <point x="446" y="203" type="curve" smooth="yes"/>
      <point x="469" y="172"/>
      <point x="419" y="63"/>
      <point x="319" y="19" type="curve"/>
      <point x="392" y="-40"/>
      <point x="466" y="-100"/>
      <point x="509" y="-128" type="curve"/>
      <point x="470" y="-170" type="line"/>
      <point x="406" y="-111"/>
      <point x="348" y="-59"/>
      <point x="277" y="0" type="curve"/>
      <point x="222" y="-4"/>
      <point x="139" y="-17"/>
      <point x="112" y="11" type="curve"/>
      <point x="105" y="17"/>
      <point x="54" y="60"/>
      <point x="54" y="104" type="curve" smooth="yes"/>
      <point x="54" y="118"/>
      <point x="91" y="159"/>
      <point x="126" y="168" type="curve"/>
      <point x="141" y="161"/>
      <point x="177" y="133"/>
      <point x="222" y="98" type="curve"/>
      <point x="327" y="96"/>
      <point x="369" y="221"/>
      <point x="270" y="305" type="curve"/>
      <point x="181" y="305" type="line"/>
    </contour>
    <contour>
      <point x="-52" y="619" type="line"/>
      <point x="762" y="619" type="line"/>
      <point x="762" y="522" type="line"/>
      <point x="-52" y="522" type="line"/>
    </contour>
  </outline>
</glyph>
<glyph name="dvKH_NA" format="1">
  <advance width="865"/>
  <outline>
    <contour>
      <point x="872" y="619" type="line"/>
      <point x="872" y="523" type="line"/>
      <point x="796" y="523" type="line"/>
      <point x="796" y="-56" type="line"/>
      <point x="672" y="0" type="line"/>
      <point x="672" y="104" type="line"/>
      <point x="594" y="74"/>
      <point x="552" y="49"/>
      <point x="508" y="29" type="curve" smooth="yes"/>
      <point x="500" y="25" type="line"/>
      <point x="653" y="-53"/>
      <point x="513" y="-194"/>
      <point x="458" y="-171" type="curve"/>
      <point x="402" y="-149"/>
      <point x="402" y="-149"/>
      <point x="348" y="-123" type="curve"/>
      <point x="286" y="-95"/>
      <point x="302" y="-6"/>
      <point x="333" y="37" type="curve"/>
      <point x="169" y="47"/>
      <point x="41" y="170"/>
      <point x="37" y="291" type="curve"/>
      <point x="49" y="324"/>
      <point x="65" y="359"/>
      <point x="83" y="380" type="curve" smooth="yes"/>
      <point x="97" y="397"/>
      <point x="139" y="368"/>
      <point x="158" y="349" type="curve" smooth="yes"/>
      <point x="171" y="336"/>
      <point x="171" y="305"/>
      <point x="182" y="273" type="curve"/>
      <point x="294" y="310"/>
      <point x="284" y="432"/>
      <point x="251" y="523" type="curve"/>
      <point x="-15" y="523" type="line"/>
      <point x="-15" y="619" type="line"/>
    </contour>
    <contour>
      <point x="580" y="459" type="curve"/>
      <point x="602" y="443"/>
      <point x="639" y="418"/>
      <point x="672" y="396" type="curve"/>
      <point x="672" y="523" type="line"/>
      <point x="317" y="523" type="line"/>
      <point x="352" y="469"/>
      <point x="371" y="410"/>
      <point x="369" y="354" type="curve"/>
      <point x="424" y="423"/>
      <point x="539" y="486"/>
    </contour>
    <contour>
      <point x="440" y="211" type="curve" smooth="yes"/>
      <point x="463" y="184"/>
      <point x="563" y="159"/>
      <point x="672" y="270" type="curve"/>
      <point x="672" y="341" type="line"/>
      <point x="533" y="413"/>
      <point x="393" y="264"/>
    </contour>
    <contour>
      <point x="346" y="260" type="curve"/>
      <point x="320" y="208"/>
      <point x="271" y="166"/>
      <point x="197" y="143" type="curve"/>
      <point x="219" y="110"/>
      <point x="287" y="88"/>
      <point x="352" y="87" type="curve" smooth="yes"/>
      <point x="386" y="86"/>
      <point x="419" y="90"/>
      <point x="451" y="97" type="curve"/>
      <point x="471" y="104"/>
      <point x="493" y="112"/>
      <point x="515" y="119" type="curve"/>
      <point x="449" y="135"/>
      <point x="386" y="185"/>
    </contour>
  </outline>
</glyph>
<glyph name="dvK" format="1">
  <advance width="678"/>
  <outline>
    <contour>
      <point x="-27" y="619" type="line"/>
      <point x="843" y="619" type="line"/>
      <point x="843" y="523" type="line"/>
      <point x="500" y="523" type="line"/>
      <point x="500" y="391" type="line"/>
      <point x="533" y="421"/>
      <point x="583" y="468"/>
      <point x="641" y="466" type="curve" smooth="yes"/>
      <point x="682" y="464"/>
      <point x="782" y="375"/>
      <point x="823" y="290" type="curve"/>
      <point x="761" y="248" type="line"/>
      <point x="690" y="403"/>
      <point x="540" y="328"/>
      <point x="500" y="247" type="curve"/>
      <point x="500" y="-56" type="line"/>
      <point x="375" y="0" type="line"/>
      <point x="375" y="140" type="line"/>
      <point x="345" y="105"/>
      <point x="303" y="70"/>
      <point x="253" y="70" type="curve" smooth="yes"/>
      <point x="147" y="70"/>
      <point x="72" y="190"/>
      <point x="35" y="262" type="curve" smooth="yes"/>
      <point x="-10" y="347"/>
      <point x="209" y="499"/>
      <point x="268" y="459" type="curve"/>
      <point x="294" y="440"/>
      <point x="339" y="409"/>
      <point x="375" y="386" type="curve"/>
      <point x="375" y="523" type="line"/>
      <point x="-27" y="523" type="line"/>
    </contour>
    <contour>
      <point x="132" y="200" type="curve"/>
      <point x="157" y="172"/>
      <point x="268" y="126"/>
      <point x="375" y="270" type="curve"/>
      <point x="375" y="333" type="line"/>
      <point x="232" y="422"/>
      <point x="81" y="253"/>
    </contour>
  </outline>
</glyph>
<glyph name="dvK_DA_mUU" format="1">
  <advance width="1246"/>
  <outline>
    <contour>
      <point x="1070" y="619" type="move" name="abvm.bindu"/>
    </contour>
    <contour>
      <point x="1051" y="619" type="move" name="abvm.e"/>
    </contour>
    <component base="dvDA" xOffset="640"/>
    <component base="dvmUU" xOffset="1094"/>
    <component base="dvK"/>
  </outline>
</glyph>
<glyph name="dvK_DA_mU" format="1">
  <advance width="1306"/>
  <outline>
    <contour>
      <point x="1083" y="618" type="move" name="abvm.bindu"/>
    </contour>
    <contour>
      <point x="1069" y="619" type="move" name="abvm.e"/>
    </contour>
    <component base="dvDA_mU" xOffset="685"/>
    <component base="dvK"/>
  </outline>
</glyph>
<glyph name="dvK_SSA" format="1">
  <advance width="721"/>
  <outline>
    <contour>
      <point x="534" y="538" type="line"/>
      <point x="658" y="538" type="line"/>
      <point x="658" y="-55" type="line"/>
      <point x="534" y="1" type="line"/>
    </contour>
    <contour>
      <point x="402" y="619" type="line"/>
      <point x="731" y="619" type="line"/>
      <point x="731" y="522" type="line"/>
      <point x="441" y="522" type="line"/>
    </contour>
    <contour>
      <point x="277" y="339" type="line"/>
      <point x="391" y="296"/>
      <point x="514" y="359"/>
      <point x="537" y="414" type="curve" smooth="yes"/>
      <point x="538" y="415"/>
      <point x="591" y="328"/>
      <point x="592" y="327" type="curve"/>
      <point x="502" y="245"/>
      <point x="378" y="258"/>
      <point x="269" y="311" type="curve"/>
    </contour>
    <contour>
      <point x="399" y="456" type="curve" smooth="yes"/>
      <point x="465" y="341"/>
      <point x="45" y="214"/>
      <point x="161" y="89" type="curve" smooth="yes"/>
      <point x="231" y="14"/>
      <point x="354" y="114"/>
      <point x="395" y="191" type="curve"/>
      <point x="480" y="116" type="line"/>
      <point x="422" y="1"/>
      <point x="279" y="-83"/>
      <point x="167" y="9" type="curve" smooth="yes"/>
      <point x="103" y="61"/>
      <point x="95" y="76"/>
      <point x="51" y="137" type="curve" smooth="yes"/>
      <point x="-45" y="269"/>
      <point x="402" y="402"/>
      <point x="294" y="523" type="curve" smooth="yes"/>
      <point x="245" y="578"/>
      <point x="100" y="464"/>
      <point x="210" y="378" type="curve" smooth="yes"/>
      <point x="239" y="355"/>
      <point x="279" y="339"/>
      <point x="299" y="331" type="curve"/>
      <point x="290" y="302" type="line"/>
      <point x="203" y="331"/>
      <point x="115" y="385"/>
      <point x="78" y="444" type="curve" smooth="yes"/>
      <point x="48" y="492"/>
      <point x="137" y="625"/>
      <point x="232" y="625" type="curve" smooth="yes"/>
      <point x="257" y="625"/>
      <point x="365" y="515"/>
    </contour>
    <contour>
      <point x="492" y="-146" type="line"/>
      <point x="287" y="111"/>
      <point x="264" y="138"/>
      <point x="271" y="152" type="curve" smooth="yes"/>
      <point x="286" y="182"/>
      <point x="323" y="210"/>
      <point x="341" y="221" type="curve" smooth="yes"/>
      <point x="388" y="251"/>
      <point x="423" y="223"/>
      <point x="455" y="185" type="curve" smooth="yes"/>
      <point x="482" y="153"/>
      <point x="501" y="105"/>
      <point x="469" y="77" type="curve" smooth="yes"/>
      <point x="413" y="27" type="line"/>
      <point x="531" y="-119" type="line"/>
    </contour>
  </outline>
</glyph>
<glyph name="dvK_SS_MA" format="1">
  <advance width="1175"/>
  <outline>
    <contour>
      <point x="288" y="339" type="line"/>
      <point x="402" y="296"/>
      <point x="636" y="396"/>
      <point x="676" y="480" type="curve" smooth="yes"/>
      <point x="677" y="481"/>
      <point x="730" y="394"/>
      <point x="731" y="393" type="curve"/>
      <point x="634" y="285"/>
      <point x="389" y="258"/>
      <point x="280" y="311" type="curve"/>
    </contour>
    <contour>
      <point x="410" y="456" type="curve" smooth="yes"/>
      <point x="476" y="341"/>
      <point x="56" y="214"/>
      <point x="172" y="89" type="curve" smooth="yes"/>
      <point x="242" y="14"/>
      <point x="365" y="114"/>
      <point x="406" y="191" type="curve"/>
      <point x="491" y="116" type="line"/>
      <point x="433" y="1"/>
      <point x="290" y="-83"/>
      <point x="178" y="9" type="curve" smooth="yes"/>
      <point x="114" y="61"/>
      <point x="106" y="76"/>
      <point x="62" y="137" type="curve" smooth="yes"/>
      <point x="-34" y="269"/>
      <point x="425" y="386"/>
      <point x="298" y="530" type="curve" smooth="yes"/>
      <point x="247" y="588"/>
      <point x="111" y="464"/>
      <point x="221" y="378" type="curve" smooth="yes"/>
      <point x="250" y="355"/>
      <point x="290" y="339"/>
      <point x="310" y="331" type="curve"/>
      <point x="301" y="302" type="line"/>
      <point x="214" y="331"/>
      <point x="126" y="385"/>
      <point x="89" y="444" type="curve" smooth="yes"/>
      <point x="59" y="492"/>
      <point x="148" y="625"/>
      <point x="243" y="625" type="curve" smooth="yes"/>
      <point x="268" y="625"/>
      <point x="376" y="515"/>
    </contour>
    <contour>
      <point x="503" y="-146" type="line"/>
      <point x="298" y="111"/>
      <point x="275" y="138"/>
      <point x="282" y="152" type="curve" smooth="yes"/>
      <point x="297" y="182"/>
      <point x="334" y="210"/>
      <point x="352" y="221" type="curve" smooth="yes"/>
      <point x="399" y="251"/>
      <point x="434" y="223"/>
      <point x="466" y="185" type="curve" smooth="yes"/>
      <point x="493" y="153"/>
      <point x="512" y="105"/>
      <point x="480" y="77" type="curve" smooth="yes"/>
      <point x="424" y="27" type="line"/>
      <point x="542" y="-119" type="line"/>
    </contour>
    <contour>
      <point x="421" y="619" type="line"/>
      <point x="748" y="619" type="line"/>
      <point x="748" y="523" type="line"/>
      <point x="460" y="523" type="line"/>
    </contour>
    <component base="dvMA" xOffset="494"/>
  </outline>
</glyph>
<glyph name="dvK_SS_M_YA" format="1">
  <advance width="1543"/>
  <outline>
    <contour>
      <point x="504" y="-146" type="line"/>
      <point x="387" y="1" type="line"/>
      <point x="323" y="-38"/>
      <point x="245" y="-45"/>
      <point x="179" y="9" type="curve" smooth="yes"/>
      <point x="115" y="61"/>
      <point x="107" y="76"/>
      <point x="63" y="137" type="curve" smooth="yes"/>
      <point x="12" y="207"/>
      <point x="118" y="273"/>
      <point x="210" y="342" type="curve"/>
      <point x="158" y="370"/>
      <point x="113" y="406"/>
      <point x="90" y="444" type="curve" smooth="yes"/>
      <point x="60" y="492"/>
      <point x="149" y="625"/>
      <point x="244" y="625" type="curve" smooth="yes"/>
      <point x="269" y="625"/>
      <point x="377" y="515"/>
      <point x="411" y="456" type="curve" smooth="yes"/>
      <point x="434" y="415"/>
      <point x="396" y="372"/>
      <point x="342" y="329" type="curve"/>
      <point x="464" y="323"/>
      <point x="642" y="407"/>
      <point x="677" y="480" type="curve" smooth="yes"/>
      <point x="678" y="481"/>
      <point x="731" y="394"/>
      <point x="732" y="393" type="curve"/>
      <point x="642" y="293"/>
      <point x="424" y="262"/>
      <point x="306" y="301" type="curve"/>
      <point x="214" y="231"/>
      <point x="107" y="160"/>
      <point x="173" y="89" type="curve" smooth="yes"/>
      <point x="212" y="47"/>
      <point x="267" y="59"/>
      <point x="315" y="92" type="curve"/>
      <point x="283" y="134"/>
      <point x="279" y="145"/>
      <point x="283" y="152" type="curve" smooth="yes"/>
      <point x="298" y="182"/>
      <point x="335" y="210"/>
      <point x="353" y="221" type="curve" smooth="yes"/>
      <point x="400" y="251"/>
      <point x="435" y="223"/>
      <point x="467" y="185" type="curve" smooth="yes"/>
      <point x="494" y="153"/>
      <point x="513" y="105"/>
      <point x="481" y="77" type="curve" smooth="yes"/>
      <point x="425" y="27" type="line"/>
      <point x="543" y="-119" type="line"/>
    </contour>
    <contour>
      <point x="422" y="619" type="line"/>
      <point x="749" y="619" type="line"/>
      <point x="749" y="523" type="line"/>
      <point x="461" y="523" type="line"/>
    </contour>
    <contour>
      <point x="299" y="530" type="curve" smooth="yes"/>
      <point x="248" y="588"/>
      <point x="112" y="464"/>
      <point x="222" y="378" type="curve"/>
      <point x="227" y="373"/>
      <point x="233" y="369"/>
      <point x="240" y="365" type="curve"/>
      <point x="305" y="417"/>
      <point x="350" y="471"/>
    </contour>
    <component base="dvYA" xOffset="868"/>
    <component base="dvM" xOffset="495"/>
  </outline>
</glyph>
<glyph name="dvK_TA" format="1">
  <advance width="1011"/>
  <outline>
    <contour>
      <point x="647" y="662" type="move" name="abvm.bindu"/>
    </contour>
    <contour>
      <point x="593" y="0" type="move" name="blwm.virama"/>
    </contour>
    <contour>
      <point x="647" y="672" type="move" name="abvm.e"/>
    </contour>
    <contour>
      <point x="593" y="-10" type="move" name="blwm.u"/>
    </contour>
  </outline>
</glyph>
<glyph name="dvK_TTA" format="1">
  <advance width="1144"/>
  <outline>
    <contour>
      <point x="1002" y="662" type="move" name="abvm.bindu"/>
    </contour>
    <contour>
      <point x="832" y="0" type="move" name="blwm.virama"/>
    </contour>
    <contour>
      <point x="1021" y="672" type="move" name="abvm.e"/>
    </contour>
    <contour>
      <point x="891" y="-10" type="move" name="blwm.u"/>
    </contour>
    <component base="dvTTA" xOffset="521"/>
  </outline>
</glyph>
<glyph name="dvK_T_RA" format="1">
  <advance width="1202"/>
  <outline>
    <contour>
      <point x="511" y="385" type="line"/>
      <point x="544" y="415"/>
      <point x="597" y="468"/>
      <point x="659" y="466" type="curve" smooth="yes"/>
      <point x="685" y="465"/>
      <point x="735" y="428"/>
      <point x="778" y="380" type="curve"/>
      <point x="743" y="317" type="line"/>
      <point x="666" y="388"/>
      <point x="549" y="313"/>
      <point x="517" y="245" type="curve"/>
    </contour>
    <contour>
      <point x="393" y="537" type="line"/>
      <point x="518" y="537" type="line"/>
      <point x="518" y="-56" type="line"/>
      <point x="393" y="0" type="line"/>
    </contour>
    <contour>
      <point x="-9" y="619" type="line"/>
      <point x="861" y="619" type="line"/>
      <point x="861" y="523" type="line"/>
      <point x="-9" y="523" type="line"/>
    </contour>
    <contour>
      <point x="420" y="313" type="line"/>
      <point x="270" y="444"/>
      <point x="96" y="257"/>
      <point x="150" y="200" type="curve" smooth="yes"/>
      <point x="177" y="170"/>
      <point x="303" y="119"/>
      <point x="416" y="305" type="curve"/>
      <point x="441" y="213" type="line"/>
      <point x="441" y="213"/>
      <point x="373" y="71"/>
      <point x="271" y="70" type="curve"/>
      <point x="165" y="70"/>
      <point x="90" y="190"/>
      <point x="53" y="262" type="curve" smooth="yes"/>
      <point x="8" y="347"/>
      <point x="227" y="499"/>
      <point x="286" y="459" type="curve" smooth="yes"/>
      <point x="320" y="435"/>
      <point x="387" y="390"/>
      <point x="423" y="367" type="curve"/>
    </contour>
    <component base="dvT_RA" xOffset="687"/>
  </outline>
</glyph>
<glyph name="dvKx_RA" format="1">
  <advance width="896"/>
  <outline>
    <contour>
      <point x="508" y="662" type="move" name="abvm.bindu"/>
    </contour>
    <contour>
      <point x="445" y="0" type="move" name="blwm.virama"/>
    </contour>
    <contour>
      <point x="508" y="672" type="move" name="abvm.e"/>
    </contour>
    <contour>
      <point x="445" y="-10" type="move" name="blwm.u"/>
    </contour>
    <contour>
      <point x="-60" y="619" type="line"/>
      <point x="54" y="619" type="line"/>
      <point x="54" y="523" type="line"/>
      <point x="-60" y="523" type="line"/>
    </contour>
    <component base="dvK_RA" xOffset="45"/>
    <component base="dvNukta" xScale="0.731000006199" yScale="0.731999993324" xOffset="333" yOffset="204"/>
  </outline>
</glyph>
<glyph name="dvL_DA" format="1">
  <advance width="965"/>
  <outline>
    <contour>
      <point x="833" y="619" type="move" name="abvm.bindu"/>
    </contour>
    <contour>
      <point x="947" y="-67" type="move" name="blwm.virama"/>
    </contour>
    <contour>
      <point x="826" y="619" type="move" name="abvm.e"/>
    </contour>
    <contour>
      <point x="955" y="-79" type="move" name="blwm.u"/>
    </contour>
    <component base="dvL" xOffset="5"/>
    <component base="dvDA" xOffset="406"/>
  </outline>
</glyph>
<glyph name="dvL_DA_mUU" format="1">
  <advance width="1006"/>
  <outline>
    <contour>
      <point x="836" y="619" type="move" name="abvm.bindu"/>
    </contour>
    <contour>
      <point x="814" y="619" type="move" name="abvm.e"/>
    </contour>
    <component base="dvL"/>
    <component base="dvDA" xOffset="400"/>
    <component base="dvmUU" xOffset="854"/>
  </outline>
</glyph>
<glyph name="dvL_D_RA" format="1">
  <advance width="997"/>
  <outline>
    <contour>
      <point x="810" y="617" type="move" name="abvm.bindu"/>
    </contour>
    <contour>
      <point x="959" y="-100" type="move" name="blwm.virama"/>
    </contour>
    <contour>
      <point x="805" y="619" type="move" name="abvm.e"/>
    </contour>
    <contour>
      <point x="946" y="-87" type="move" name="blwm.u"/>
    </contour>
    <contour>
      <point x="814" y="74" type="line"/>
      <point x="865" y="26" type="line"/>
      <point x="636" y="-142" type="line"/>
      <point x="561" y="-67" type="line"/>
    </contour>
    <component base="dvL"/>
    <component base="dvDA" xOffset="396"/>
  </outline>
</glyph>
<glyph name="dvM_HA" format="1">
  <advance width="933"/>
  <outline>
    <contour>
      <point x="790" y="619" type="move" name="abvm.bindu"/>
    </contour>
    <contour>
      <point x="688" y="-141" type="move" name="blwm.virama"/>
    </contour>
    <contour>
      <point x="781" y="619" type="move" name="abvm.e"/>
    </contour>
    <contour>
      <point x="706" y="-164" type="move" name="blwm.u"/>
    </contour>
    <component base="dvM" xOffset="-7"/>
    <component base="dvHA" xOffset="380"/>
  </outline>
</glyph>
<glyph name="dvNA" format="1">
  <advance width="671"/>
  <outline>
    <contour>
      <point x="-30" y="522" type="line"/>
      <point x="687" y="522" type="line"/>
      <point x="687" y="619" type="line"/>
      <point x="-30" y="619" type="line"/>
    </contour>
    <contour>
      <point x="486" y="1" type="line"/>
      <point x="610" y="-55" type="line"/>
      <point x="610" y="538" type="line"/>
      <point x="486" y="538" type="line"/>
    </contour>
    <contour>
      <point x="607" y="405" type="line"/>
      <point x="120" y="406"/>
      <point x="114" y="406"/>
      <point x="100" y="402" type="curve" smooth="yes"/>
      <point x="33" y="381"/>
      <point x="56" y="261"/>
      <point x="80" y="238" type="curve" smooth="yes"/>
      <point x="119" y="201"/>
      <point x="178" y="152"/>
      <point x="226" y="111" type="curve" smooth="yes"/>
      <point x="272" y="73"/>
      <point x="447" y="172"/>
      <point x="335" y="318" type="curve"/>
      <point x="283" y="316" type="line"/>
      <point x="305" y="202"/>
      <point x="210" y="178"/>
      <point x="174" y="204" type="curve" smooth="yes"/>
      <point x="133" y="233"/>
      <point x="109" y="314"/>
      <point x="249" y="312" type="curve" smooth="yes"/>
      <point x="607" y="308" type="line"/>
    </contour>
  </outline>
</glyph>
<glyph name="dvNN_R" format="1">
  <advance width="585"/>
  <outline>
    <contour>
      <point x="619" y="154" type="line"/>
      <point x="598" y="98"/>
      <point x="512" y="2"/>
      <point x="439" y="-64" type="curve"/>
      <point x="355" y="2" type="line"/>
      <point x="444" y="68"/>
      <point x="526" y="130"/>
      <point x="588" y="203" type="curve"/>
    </contour>
    <contour>
      <point x="505" y="224" type="line"/>
      <point x="505" y="176"/>
      <point x="398" y="71"/>
      <point x="299" y="71" type="curve" smooth="yes"/>
      <point x="240" y="71"/>
      <point x="128" y="177"/>
      <point x="64" y="245" type="curve" smooth="yes"/>
      <point x="55" y="255"/>
      <point x="52" y="538"/>
      <point x="52" y="538" type="curve"/>
      <point x="51" y="537"/>
      <point x="174" y="538"/>
      <point x="174" y="537" type="curve"/>
      <point x="176" y="205" type="line"/>
      <point x="230" y="147"/>
      <point x="345" y="191"/>
      <point x="381" y="281" type="curve"/>
      <point x="381" y="538" type="line"/>
      <point x="505" y="538" type="line"/>
    </contour>
    <contour>
      <point x="-12" y="619" type="line"/>
      <point x="674" y="619" type="line"/>
      <point x="674" y="522" type="line"/>
      <point x="-12" y="522" type="line"/>
    </contour>
  </outline>
</glyph>
<glyph name="dvNY_SHA" format="1">
  <advance width="1256"/>
  <outline>
    <contour>
      <point x="480" y="290" type="line"/>
      <point x="551" y="211"/>
      <point x="595" y="201"/>
      <point x="647" y="233" type="curve" smooth="yes"/>
      <point x="648" y="234"/>
      <point x="701" y="147"/>
      <point x="702" y="146" type="curve"/>
      <point x="606" y="113"/>
      <point x="542" y="132"/>
      <point x="472" y="278" type="curve"/>
    </contour>
    <contour>
      <point x="-20" y="619" type="line"/>
      <point x="748" y="619" type="line"/>
      <point x="748" y="522" type="line"/>
      <point x="-20" y="522" type="line"/>
    </contour>
    <contour>
      <point x="318" y="417" type="curve" smooth="yes"/>
      <point x="373" y="414"/>
      <point x="444" y="325"/>
      <point x="492" y="279" type="curve"/>
      <point x="561" y="174"/>
      <point x="489" y="90"/>
      <point x="366" y="74" type="curve" smooth="yes"/>
      <point x="227" y="56"/>
      <point x="127" y="161"/>
      <point x="33" y="275" type="curve"/>
      <point x="66" y="301" type="line"/>
      <point x="209" y="126"/>
      <point x="381" y="122"/>
      <point x="422" y="231" type="curve" smooth="yes"/>
      <point x="444" y="288"/>
      <point x="390" y="355"/>
      <point x="320" y="318" type="curve" smooth="yes"/>
      <point x="235" y="273" type="line"/>
      <point x="155" y="347" type="line"/>
      <point x="212" y="381"/>
      <point x="286" y="419"/>
    </contour>
    <component base="dvSHA" xOffset="556"/>
  </outline>
</glyph>
<glyph name="dvN" format="1">
  <advance width="455"/>
  <outline>
    <contour>
      <point x="571" y="405" type="line"/>
      <point x="84" y="406"/>
      <point x="123" y="409"/>
      <point x="109" y="405" type="curve" smooth="yes"/>
      <point x="42" y="384"/>
      <point x="24" y="275"/>
      <point x="84" y="219" type="curve" smooth="yes"/>
      <point x="126" y="180"/>
      <point x="162" y="152"/>
      <point x="210" y="111" type="curve" smooth="yes"/>
      <point x="255" y="73"/>
      <point x="426" y="169"/>
      <point x="324" y="311" type="curve"/>
      <point x="571" y="308" type="line"/>
    </contour>
    <contour>
      <point x="-36" y="522" type="line"/>
      <point x="651" y="522" type="line"/>
      <point x="651" y="619" type="line"/>
      <point x="-36" y="619" type="line"/>
    </contour>
    <contour>
      <point x="249" y="312" type="curve"/>
      <point x="267" y="312" type="line"/>
      <point x="270" y="48"/>
      <point x="-13" y="315"/>
    </contour>
  </outline>
</glyph>
<glyph name="dvPH" format="1">
  <advance width="673"/>
  <outline>
    <contour>
      <point x="493" y="345" type="line"/>
      <point x="526" y="375"/>
      <point x="579" y="428"/>
      <point x="641" y="426" type="curve" smooth="yes"/>
      <point x="682" y="424"/>
      <point x="767" y="379"/>
      <point x="808" y="294" type="curve"/>
      <point x="746" y="252" type="line"/>
      <point x="675" y="356"/>
      <point x="538" y="287"/>
      <point x="499" y="205" type="curve"/>
    </contour>
    <contour>
      <point x="415" y="538" type="line"/>
      <point x="539" y="538" type="line"/>
      <point x="539" y="-55" type="line"/>
      <point x="415" y="1" type="line"/>
    </contour>
    <contour>
      <point x="-3" y="619" type="line"/>
      <point x="886" y="619" type="line"/>
      <point x="886" y="522" type="line"/>
      <point x="-3" y="522" type="line"/>
    </contour>
    <contour>
      <point x="430" y="325" type="curve"/>
      <point x="430" y="325"/>
      <point x="506" y="247"/>
      <point x="507" y="247" type="curve"/>
      <point x="507" y="247"/>
      <point x="399" y="71"/>
      <point x="297" y="71" type="curve" smooth="yes"/>
      <point x="221" y="71"/>
      <point x="130" y="180"/>
      <point x="66" y="248" type="curve" smooth="yes"/>
      <point x="57" y="258"/>
      <point x="61" y="540"/>
      <point x="61" y="540" type="curve" smooth="yes"/>
      <point x="60" y="540"/>
      <point x="183" y="540"/>
      <point x="183" y="540" type="curve"/>
      <point x="185" y="208" type="line"/>
      <point x="247" y="142"/>
      <point x="397" y="223"/>
    </contour>
  </outline>
</glyph>
<glyph name="dvP_NA" format="1">
  <advance width="607"/>
  <outline>
    <contour>
      <point x="522" y="133" type="line"/>
      <point x="204" y="41" type="line" smooth="yes"/>
      <point x="-22" y="-25"/>
      <point x="230" y="-140"/>
      <point x="203" y="50" type="curve"/>
      <point x="241" y="67" type="line"/>
      <point x="360" y="-2"/>
      <point x="240" y="-148"/>
      <point x="189" y="-128" type="curve"/>
      <point x="135" y="-103"/>
      <point x="105" y="-89"/>
      <point x="62" y="-63" type="curve"/>
      <point x="-2" y="-21"/>
      <point x="25" y="60"/>
      <point x="77" y="100" type="curve" smooth="yes"/>
      <point x="87" y="107"/>
      <point x="58" y="94"/>
      <point x="495" y="225" type="curve"/>
    </contour>
    <component base="dvPA"/>
  </outline>
</glyph>
<glyph name="dvP_PHA" format="1">
  <advance width="1192"/>
  <outline>
    <contour>
      <point x="758" y="662" type="move" name="abvm.bindu"/>
    </contour>
    <contour>
      <point x="700" y="0" type="move" name="blwm.virama"/>
    </contour>
    <contour>
      <point x="778" y="672" type="move" name="abvm.e"/>
    </contour>
    <contour>
      <point x="698" y="-10" type="move" name="blwm.u"/>
    </contour>
    <component base="dvPHA" xOffset="328"/>
    <component base="dvP" xOffset="-10"/>
  </outline>
</glyph>
<glyph name="dvReph" format="1">
  <advance width="0"/>
  <outline>
    <contour>
      <point x="-78" y="615" type="move" name="_abvm.e"/>
    </contour>
    <contour>
      <point x="-78" y="615" type="line"/>
      <point x="-134" y="665"/>
      <point x="-182" y="700"/>
      <point x="-182" y="739" type="curve" smooth="yes"/>
      <point x="-182" y="774"/>
      <point x="-147" y="824"/>
      <point x="-114" y="824" type="curve" smooth="yes"/>
      <point x="-85" y="824"/>
      <point x="-23" y="792"/>
      <point x="0" y="779" type="curve"/>
      <point x="16" y="803" type="line"/>
      <point x="-37" y="843"/>
      <point x="-112" y="894"/>
      <point x="-132" y="894" type="curve" smooth="yes"/>
      <point x="-192" y="894"/>
      <point x="-295" y="828"/>
      <point x="-295" y="762" type="curve" smooth="yes"/>
      <point x="-295" y="719"/>
      <point x="-219" y="646"/>
      <point x="-144" y="615" type="curve"/>
    </contour>
  </outline>
</glyph>
<glyph name="dvSA" format="1">
  <advance width="721"/>
  <outline>
    <contour>
      <point x="-3" y="619" type="line"/>
      <point x="725" y="619" type="line"/>
      <point x="725" y="523" type="line"/>
      <point x="671" y="523" type="line"/>
      <point x="671" y="-55" type="line"/>
      <point x="547" y="1" type="line"/>
      <point x="547" y="202" type="line"/>
      <point x="512" y="185"/>
      <point x="473" y="171"/>
      <point x="440" y="171" type="curve" smooth="yes"/>
      <point x="407" y="171"/>
      <point x="342" y="212"/>
      <point x="311" y="234" type="curve"/>
      <point x="285" y="205"/>
      <point x="249" y="181"/>
      <point x="202" y="166" type="curve"/>
      <point x="228" y="116"/>
      <point x="341" y="26"/>
      <point x="407" y="-19" type="curve"/>
      <point x="379" y="-56" type="line"/>
      <point x="258" y="20"/>
      <point x="84" y="122"/>
      <point x="24" y="290" type="curve"/>
      <point x="36" y="324"/>
      <point x="52" y="361"/>
      <point x="70" y="382" type="curve" smooth="yes"/>
      <point x="84" y="398"/>
      <point x="126" y="370"/>
      <point x="146" y="351" type="curve"/>
      <point x="158" y="338"/>
      <point x="158" y="306"/>
      <point x="169" y="269" type="curve"/>
      <point x="281" y="306"/>
      <point x="270" y="432"/>
      <point x="237" y="523" type="curve"/>
      <point x="-3" y="523" type="line"/>
    </contour>
    <contour>
      <point x="335" y="269" type="curve"/>
      <point x="388" y="245"/>
      <point x="489" y="243"/>
      <point x="547" y="339" type="curve"/>
      <point x="547" y="523" type="line"/>
      <point x="305" y="523" type="line"/>
      <point x="362" y="436"/>
      <point x="375" y="342"/>
    </contour>
  </outline>
</glyph>
<glyph name="dvSHA.marathi" format="1">
  <advance width="724"/>
  <outline>
    <contour>
      <point x="542" y="538" type="line"/>
      <point x="666" y="538" type="line"/>
      <point x="666" y="-55" type="line"/>
      <point x="542" y="1" type="line"/>
    </contour>
    <contour>
      <point x="-9" y="619" type="line"/>
      <point x="739" y="619" type="line"/>
      <point x="739" y="523" type="line"/>
      <point x="-9" y="523" type="line"/>
    </contour>
    <contour>
      <point x="449" y="-148" type="line"/>
      <point x="401" y="-107"/>
      <point x="318" y="-30"/>
      <point x="285" y="0" type="curve"/>
      <point x="230" y="-1"/>
      <point x="147" y="-9"/>
      <point x="120" y="20" type="curve" smooth="yes"/>
      <point x="115" y="26"/>
      <point x="66" y="73"/>
      <point x="69" y="116" type="curve"/>
      <point x="69" y="130"/>
      <point x="108" y="169"/>
      <point x="144" y="177" type="curve"/>
      <point x="173" y="160"/>
      <point x="360" y="-11"/>
      <point x="480" y="-115" type="curve"/>
    </contour>
    <contour>
      <point x="435" y="285" type="curve" smooth="yes"/>
      <point x="513" y="206"/>
      <point x="439" y="9"/>
      <point x="284" y="0" type="curve"/>
      <point x="230" y="92" type="line"/>
      <point x="502" y="210"/>
      <point x="340" y="448"/>
      <point x="87" y="262" type="curve"/>
      <point x="28" y="370" type="line"/>
      <point x="64" y="394"/>
      <point x="229" y="457"/>
      <point x="283" y="421" type="curve" smooth="yes"/>
      <point x="345" y="380"/>
      <point x="378" y="342"/>
    </contour>
    <contour>
      <point x="240" y="538" type="line"/>
      <point x="364" y="538" type="line"/>
      <point x="364" y="318" type="line"/>
      <point x="240" y="374" type="line"/>
    </contour>
  </outline>
</glyph>
<glyph name="dvSH_CHA" format="1">
  <advance width="1150"/>
  <outline>
    <contour>
      <point x="1131" y="662" type="move" name="abvm.bindu"/>
    </contour>
    <contour>
      <point x="903" y="0" type="move" name="blwm.virama"/>
    </contour>
    <contour>
      <point x="1178" y="672" type="move" name="abvm.e"/>
    </contour>
    <contour>
      <point x="953" y="-10" type="move" name="blwm.u"/>
    </contour>
    <contour>
      <point x="1092" y="397" type="curve" smooth="yes"/>
      <point x="1135" y="321"/>
      <point x="1086" y="211"/>
      <point x="1006" y="123" type="curve"/>
      <point x="1055" y="73"/>
      <point x="1116" y="11"/>
      <point x="1116" y="11" type="curve"/>
      <point x="1084" y="-20" type="line"/>
      <point x="983" y="98" type="line"/>
      <point x="882" y="0"/>
      <point x="745" y="-61"/>
      <point x="677" y="7" type="curve" smooth="yes"/>
      <point x="618" y="66"/>
      <point x="581" y="112"/>
      <point x="531" y="177" type="curve" smooth="yes"/>
      <point x="505" y="211"/>
      <point x="562" y="270"/>
      <point x="626" y="312" type="curve"/>
      <point x="614" y="322"/>
      <point x="600" y="335"/>
      <point x="545" y="392" type="curve" smooth="yes"/>
      <point x="498" y="439"/>
      <point x="492" y="478"/>
      <point x="567" y="523" type="curve"/>
      <point x="418" y="523" type="line"/>
      <point x="379" y="619" type="line"/>
      <point x="1171" y="619" type="line"/>
      <point x="1171" y="523" type="line"/>
      <point x="992" y="523" type="line"/>
      <point x="1025" y="497"/>
      <point x="1078" y="421"/>
    </contour>
    <contour>
      <point x="735" y="359" type="curve"/>
      <point x="797" y="298" type="line"/>
      <point x="702" y="260"/>
      <point x="571" y="196"/>
      <point x="644" y="110" type="curve" smooth="yes"/>
      <point x="713" y="28"/>
      <point x="832" y="83"/>
      <point x="920" y="171" type="curve"/>
      <point x="887" y="204"/>
      <point x="845" y="253"/>
      <point x="831" y="276" type="curve" smooth="yes"/>
      <point x="804" y="317"/>
      <point x="862" y="482"/>
      <point x="940" y="523" type="curve"/>
      <point x="739" y="523" type="line"/>
      <point x="744" y="521" type="line"/>
      <point x="624" y="472"/>
      <point x="547" y="419"/>
      <point x="652" y="327" type="curve"/>
      <point x="682" y="344"/>
      <point x="712" y="356"/>
    </contour>
    <contour>
      <point x="1010" y="439" type="curve" smooth="yes"/>
      <point x="961" y="490"/>
      <point x="861" y="288"/>
      <point x="940" y="192" type="curve"/>
      <point x="1017" y="278"/>
      <point x="1061" y="387"/>
    </contour>
    <component base="dvSH"/>
  </outline>
</glyph>
<glyph name="dvSH_KA" format="1">
  <advance width="1336"/>
  <outline>
    <contour>
      <point x="930" y="619" type="move" name="abvm.bindu"/>
    </contour>
    <contour>
      <point x="906" y="-23" type="move" name="blwm.virama"/>
    </contour>
    <contour>
      <point x="921" y="619" type="move" name="abvm.e"/>
    </contour>
    <contour>
      <point x="908" y="-24" type="move" name="blwm.u"/>
    </contour>
    <contour>
      <point x="405" y="619" type="line"/>
      <point x="734" y="619" type="line"/>
      <point x="734" y="523" type="line"/>
      <point x="444" y="523" type="line"/>
    </contour>
    <component base="dvKA" xOffset="480"/>
    <component base="dvSH" xOffset="15"/>
  </outline>
</glyph>
<glyph name="dvSH_TTA" format="1">
  <advance width="1051"/>
  <outline>
    <contour>
      <point x="995" y="662" type="move" name="abvm.bindu"/>
    </contour>
    <contour>
      <point x="825" y="0" type="move" name="blwm.virama"/>
    </contour>
    <contour>
      <point x="1014" y="672" type="move" name="abvm.e"/>
    </contour>
    <contour>
      <point x="884" y="-10" type="move" name="blwm.u"/>
    </contour>
    <contour>
      <point x="379" y="619" type="line"/>
      <point x="666" y="619" type="line"/>
      <point x="666" y="523" type="line"/>
      <point x="418" y="523" type="line"/>
    </contour>
    <component base="dvTTA" xOffset="460"/>
    <component base="dvSH"/>
  </outline>
</glyph>
<glyph name="dvSS_KA" format="1">
  <advance width="1259"/>
  <outline>
    <contour>
      <point x="866" y="619" type="move" name="abvm.bindu"/>
    </contour>
    <contour>
      <point x="841" y="-27" type="move" name="blwm.virama"/>
    </contour>
    <contour>
      <point x="850" y="619" type="move" name="abvm.e"/>
    </contour>
    <contour>
      <point x="845" y="-29" type="move" name="blwm.u"/>
    </contour>
    <contour>
      <point x="449" y="325" type="curve"/>
      <point x="448" y="325"/>
      <point x="530" y="237"/>
      <point x="530" y="237" type="curve"/>
      <point x="530" y="237"/>
      <point x="408" y="85"/>
      <point x="280" y="85" type="curve" smooth="yes"/>
      <point x="210" y="85"/>
      <point x="129" y="180"/>
      <point x="65" y="248" type="curve" smooth="yes"/>
      <point x="57" y="256"/>
      <point x="59" y="467"/>
      <point x="59" y="523" type="curve"/>
      <point x="-14" y="523" type="line"/>
      <point x="-14" y="619" type="line"/>
      <point x="542" y="619" type="line"/>
      <point x="542" y="523" type="line"/>
      <point x="194" y="523" type="line"/>
      <point x="436" y="296" type="line"/>
      <point x="441" y="305"/>
      <point x="446" y="315"/>
    </contour>
    <contour>
      <point x="186" y="224" type="line"/>
      <point x="233" y="173"/>
      <point x="342" y="199"/>
      <point x="405" y="259" type="curve"/>
      <point x="182" y="468" type="line"/>
    </contour>
    <component base="dvKA" xOffset="407"/>
  </outline>
</glyph>
<glyph name="dvSS_M_YA" format="1">
  <advance width="1395"/>
  <outline>
    <contour>
      <point x="128" y="512" type="line"/>
      <point x="162" y="546" type="line"/>
      <point x="479" y="249" type="line"/>
      <point x="445" y="215" type="line"/>
    </contour>
    <contour>
      <point x="-12" y="619" type="line"/>
      <point x="534" y="619" type="line"/>
      <point x="534" y="523" type="line"/>
      <point x="-12" y="523" type="line"/>
    </contour>
    <contour>
      <point x="450" y="268" type="curve"/>
      <point x="449" y="268"/>
      <point x="528" y="235"/>
      <point x="528" y="235" type="curve"/>
      <point x="528" y="235"/>
      <point x="400" y="85"/>
      <point x="272" y="85" type="curve" smooth="yes"/>
      <point x="202" y="85"/>
      <point x="121" y="180"/>
      <point x="57" y="248" type="curve" smooth="yes"/>
      <point x="48" y="258"/>
      <point x="52" y="540"/>
      <point x="52" y="540" type="curve" smooth="yes"/>
      <point x="51" y="540"/>
      <point x="174" y="540"/>
      <point x="174" y="540" type="curve"/>
      <point x="178" y="224" type="line"/>
      <point x="240" y="157"/>
      <point x="413" y="211"/>
    </contour>
    <component base="dvYA" xOffset="717"/>
    <component base="dvM" xOffset="350"/>
  </outline>
</glyph>
<glyph name="dvSS_TT_VA" format="1">
  <advance width="938"/>
  <outline>
    <contour>
      <point x="762" y="619" type="move" name="abvm.bindu"/>
    </contour>
    <contour>
      <point x="790" y="-255" type="move" name="blwm.virama"/>
    </contour>
    <contour>
      <point x="748" y="619" type="move" name="abvm.e"/>
    </contour>
    <contour>
      <point x="777" y="-255" type="move" name="blwm.u"/>
    </contour>
    <component base="dvSS" xOffset="-6"/>
    <component base="dvTT_VA" xOffset="343"/>
  </outline>
</glyph>
<glyph name="dvS_BA" format="1">
  <advance width="1014"/>
  <outline>
    <contour>
      <point x="293" y="532" type="line"/>
      <point x="392" y="390"/>
      <point x="372" y="224"/>
      <point x="196" y="166" type="curve"/>
      <point x="222" y="116"/>
      <point x="335" y="26"/>
      <point x="401" y="-19" type="curve"/>
      <point x="373" y="-56" type="line"/>
      <point x="252" y="20"/>
      <point x="78" y="122"/>
      <point x="18" y="290" type="curve"/>
      <point x="30" y="324"/>
      <point x="46" y="361"/>
      <point x="64" y="382" type="curve" smooth="yes"/>
      <point x="78" y="398"/>
      <point x="120" y="370"/>
      <point x="140" y="351" type="curve"/>
      <point x="152" y="338"/>
      <point x="152" y="306"/>
      <point x="163" y="269" type="curve"/>
      <point x="279" y="307"/>
      <point x="264" y="441"/>
      <point x="228" y="532" type="curve"/>
    </contour>
    <contour>
      <point x="300" y="289" type="line"/>
      <point x="325" y="258"/>
      <point x="431" y="229"/>
      <point x="506" y="297" type="curve"/>
      <point x="547" y="205" type="line"/>
      <point x="511" y="187"/>
      <point x="469" y="171"/>
      <point x="434" y="171" type="curve" smooth="yes"/>
      <point x="390" y="171"/>
      <point x="285" y="248"/>
      <point x="285" y="248" type="curve"/>
    </contour>
    <contour>
      <point x="-9" y="619" type="line"/>
      <point x="639" y="619" type="line"/>
      <point x="639" y="523" type="line"/>
      <point x="-9" y="523" type="line"/>
    </contour>
    <component base="dvBA" xOffset="437"/>
  </outline>
</glyph>
<glyph name="dvS_NA" format="1">
  <advance width="850"/>
  <outline>
    <contour>
      <point x="-3" y="619" type="line"/>
      <point x="855" y="619" type="line"/>
      <point x="855" y="523" type="line"/>
      <point x="801" y="523" type="line"/>
      <point x="801" y="-55" type="line"/>
      <point x="677" y="1" type="line"/>
      <point x="677" y="109" type="line"/>
      <point x="642" y="96"/>
      <point x="614" y="82"/>
      <point x="584" y="67" type="curve" smooth="yes"/>
      <point x="580" y="65" type="line"/>
      <point x="728" y="-23"/>
      <point x="575" y="-147"/>
      <point x="522" y="-121" type="curve"/>
      <point x="467" y="-96"/>
      <point x="467" y="-95"/>
      <point x="415" y="-66" type="curve" smooth="yes"/>
      <point x="343" y="-26"/>
      <point x="390" y="93"/>
      <point x="434" y="114" type="curve" smooth="yes"/>
      <point x="485" y="139"/>
      <point x="564" y="168"/>
      <point x="677" y="189" type="curve"/>
      <point x="677" y="224" type="line"/>
      <point x="611" y="204"/>
      <point x="523" y="180"/>
      <point x="478" y="180" type="curve" smooth="yes"/>
      <point x="436" y="180"/>
      <point x="333" y="241"/>
      <point x="322" y="247" type="curve"/>
      <point x="296" y="212"/>
      <point x="256" y="184"/>
      <point x="202" y="166" type="curve"/>
      <point x="228" y="116"/>
      <point x="258" y="56"/>
      <point x="353" y="9" type="curve"/>
      <point x="325" y="-28" type="line"/>
      <point x="196" y="41"/>
      <point x="84" y="122"/>
      <point x="24" y="290" type="curve"/>
      <point x="36" y="324"/>
      <point x="52" y="361"/>
      <point x="70" y="382" type="curve" smooth="yes"/>
      <point x="84" y="398"/>
      <point x="126" y="370"/>
      <point x="146" y="351" type="curve"/>
      <point x="158" y="338"/>
      <point x="158" y="306"/>
      <point x="169" y="269" type="curve"/>
      <point x="281" y="306"/>
      <point x="270" y="432"/>
      <point x="237" y="523" type="curve"/>
      <point x="-3" y="523" type="line"/>
    </contour>
    <contour>
      <point x="342" y="283" type="curve"/>
      <point x="388" y="251"/>
      <point x="563" y="243"/>
      <point x="677" y="348" type="curve"/>
      <point x="677" y="523" type="line"/>
      <point x="305" y="523" type="line"/>
      <point x="358" y="442"/>
      <point x="373" y="354"/>
    </contour>
  </outline>
</glyph>
<glyph name="dvS_P_RA" format="1">
  <advance width="1057"/>
  <outline>
    <contour>
      <point x="925" y="118" type="line"/>
      <point x="904" y="62"/>
      <point x="798" y="-10"/>
      <point x="705" y="-64" type="curve"/>
      <point x="621" y="2" type="line"/>
      <point x="724" y="44"/>
      <point x="835" y="91"/>
      <point x="897" y="164" type="curve"/>
    </contour>
    <component base="dvS" xOffset="-2"/>
    <component base="dvPA" xOffset="450"/>
  </outline>
</glyph>
<glyph name="dvS_TA" format="1">
  <advance width="1090"/>
  <outline>
    <contour>
      <point x="297" y="532" type="line"/>
      <point x="396" y="390"/>
      <point x="376" y="224"/>
      <point x="200" y="166" type="curve"/>
      <point x="226" y="116"/>
      <point x="339" y="26"/>
      <point x="405" y="-19" type="curve"/>
      <point x="377" y="-56" type="line"/>
      <point x="256" y="20"/>
      <point x="82" y="122"/>
      <point x="22" y="290" type="curve"/>
      <point x="34" y="324"/>
      <point x="50" y="361"/>
      <point x="68" y="382" type="curve" smooth="yes"/>
      <point x="82" y="398"/>
      <point x="124" y="370"/>
      <point x="144" y="351" type="curve"/>
      <point x="156" y="338"/>
      <point x="156" y="306"/>
      <point x="167" y="269" type="curve"/>
      <point x="283" y="307"/>
      <point x="268" y="441"/>
      <point x="232" y="532" type="curve"/>
    </contour>
    <contour>
      <point x="304" y="289" type="line"/>
      <point x="335" y="251"/>
      <point x="486" y="238"/>
      <point x="561" y="351" type="curve"/>
      <point x="626" y="252" type="line"/>
      <point x="626" y="252"/>
      <point x="516" y="171"/>
      <point x="438" y="171" type="curve" smooth="yes"/>
      <point x="394" y="171"/>
      <point x="289" y="248"/>
      <point x="289" y="248" type="curve"/>
    </contour>
    <contour>
      <point x="-5" y="619" type="line"/>
      <point x="643" y="619" type="line"/>
      <point x="643" y="523" type="line"/>
      <point x="-5" y="523" type="line"/>
    </contour>
    <component base="dvTA" xOffset="478"/>
  </outline>
</glyph>
<glyph name="dvSix" format="1">
  <advance width="605"/>
  <outline>
    <contour>
      <point x="81" y="424" type="curve" smooth="yes"/>
      <point x="22" y="484"/>
      <point x="175" y="634"/>
      <point x="354" y="622" type="curve"/>
      <point x="394" y="526" type="line"/>
      <point x="233" y="552"/>
      <point x="85" y="452"/>
      <point x="188" y="359" type="curve"/>
      <point x="218" y="376"/>
      <point x="248" y="388"/>
      <point x="271" y="391" type="curve"/>
      <point x="333" y="330" type="line"/>
      <point x="238" y="292"/>
      <point x="107" y="228"/>
      <point x="180" y="142" type="curve" smooth="yes"/>
      <point x="230" y="82"/>
      <point x="307" y="95"/>
      <point x="380" y="141" type="curve"/>
      <point x="336" y="197"/>
      <point x="331" y="210"/>
      <point x="335" y="218" type="curve" smooth="yes"/>
      <point x="350" y="248"/>
      <point x="387" y="276"/>
      <point x="405" y="287" type="curve" smooth="yes"/>
      <point x="452" y="317"/>
      <point x="487" y="289"/>
      <point x="519" y="251" type="curve" smooth="yes"/>
      <point x="546" y="219"/>
      <point x="563" y="173"/>
      <point x="533" y="143" type="curve" smooth="yes"/>
      <point x="480" y="90" type="line"/>
      <point x="595" y="-53" type="line"/>
      <point x="556" y="-80" type="line"/>
      <point x="439" y="66" type="line"/>
      <point x="355" y="9"/>
      <point x="264" y="-12"/>
      <point x="213" y="39" type="curve" smooth="yes"/>
      <point x="154" y="98"/>
      <point x="117" y="144"/>
      <point x="67" y="209" type="curve" smooth="yes"/>
      <point x="41" y="243"/>
      <point x="98" y="302"/>
      <point x="162" y="344" type="curve"/>
      <point x="150" y="354"/>
      <point x="136" y="367"/>
    </contour>
  </outline>
</glyph>
<glyph name="dvTTH_VA" format="1">
  <advance width="619"/>
  <outline>
    <contour>
      <point x="453" y="662" type="move" name="abvm.bindu"/>
    </contour>
    <contour>
      <point x="304" y="-320" type="move" name="blwm.virama"/>
    </contour>
    <contour>
      <point x="459" y="672" type="move" name="abvm.e"/>
    </contour>
    <contour>
      <point x="304" y="-339" type="move" name="blwm.u"/>
    </contour>
  </outline>
</glyph>
<glyph name="dvTT_VA" format="1">
  <advance width="588"/>
  <outline>
    <contour>
      <point x="521" y="662" type="move" name="abvm.bindu"/>
    </contour>
    <contour>
      <point x="371" y="-358" type="move" name="blwm.virama"/>
    </contour>
    <contour>
      <point x="521" y="672" type="move" name="abvm.e"/>
    </contour>
    <contour>
      <point x="371" y="-348" type="move" name="blwm.u"/>
    </contour>
  </outline>
</glyph>
<glyph name="dvT_KHA" format="1">
  <advance width="1197"/>
  <outline>
    <contour>
      <point x="445" y="373" type="line"/>
      <point x="445" y="276" type="line"/>
      <point x="263" y="280" type="line"/>
      <point x="141" y="283"/>
      <point x="87" y="182"/>
      <point x="194" y="62" type="curve" smooth="yes"/>
      <point x="221" y="32"/>
      <point x="231" y="20"/>
      <point x="280" y="-27" type="curve"/>
      <point x="245" y="-56" type="line"/>
      <point x="146" y="31"/>
      <point x="29" y="133"/>
      <point x="19" y="195" type="curve" smooth="yes"/>
      <point x="13" y="235"/>
      <point x="79" y="376"/>
      <point x="192" y="375" type="curve" smooth="yes"/>
    </contour>
    <contour>
      <point x="-42" y="619" type="line"/>
      <point x="543" y="619" type="line"/>
      <point x="543" y="522" type="line"/>
      <point x="-42" y="522" type="line"/>
    </contour>
    <component base="dvKHA" xOffset="331"/>
  </outline>
</glyph>
<glyph name="dvThree" format="1">
  <advance width="485"/>
  <outline>
    <contour>
      <point x="427" y="486" type="curve" smooth="yes"/>
      <point x="370" y="543"/>
      <point x="350" y="558"/>
      <point x="293" y="606" type="curve" smooth="yes"/>
      <point x="222" y="665"/>
      <point x="96" y="566"/>
      <point x="60" y="542" type="curve"/>
      <point x="121" y="455" type="line"/>
      <point x="166" y="486"/>
      <point x="319" y="586"/>
      <point x="364" y="473" type="curve" smooth="yes"/>
      <point x="388" y="413"/>
      <point x="302" y="361"/>
      <point x="168" y="346" type="curve"/>
      <point x="222" y="253" type="line"/>
      <point x="392" y="261"/>
      <point x="505" y="407"/>
    </contour>
    <contour>
      <point x="299" y="286" type="line"/>
      <point x="427" y="202"/>
      <point x="331" y="90"/>
      <point x="214" y="98" type="curve"/>
      <point x="168" y="9" type="line"/>
      <point x="443" y="-61"/>
      <point x="593" y="215"/>
      <point x="331" y="310" type="curve"/>
    </contour>
    <contour>
      <point x="505" y="-128" type="line"/>
      <point x="413" y="-68"/>
      <point x="169" y="146"/>
      <point x="122" y="168" type="curve"/>
      <point x="87" y="159"/>
      <point x="50" y="118"/>
      <point x="50" y="104" type="curve" smooth="yes"/>
      <point x="50" y="60"/>
      <point x="101" y="17"/>
      <point x="108" y="11" type="curve"/>
      <point x="135" y="-17"/>
      <point x="218" y="-4"/>
      <point x="273" y="0" type="curve"/>
      <point x="344" y="-59"/>
      <point x="402" y="-111"/>
      <point x="466" y="-170" type="curve"/>
    </contour>
  </outline>
</glyph>
<glyph name="dvTwo" format="1">
  <advance width="549"/>
  <outline>
    <contour>
      <point x="538" y="-50" type="line"/>
      <point x="477" y="13"/>
      <point x="343" y="123"/>
      <point x="275" y="186" type="curve"/>
      <point x="220" y="185"/>
      <point x="137" y="177"/>
      <point x="110" y="206" type="curve" smooth="yes"/>
      <point x="105" y="212"/>
      <point x="56" y="259"/>
      <point x="59" y="302" type="curve" smooth="yes"/>
      <point x="59" y="316"/>
      <point x="98" y="355"/>
      <point x="134" y="363" type="curve"/>
      <point x="179" y="337"/>
      <point x="491" y="54"/>
      <point x="579" y="-11" type="curve"/>
    </contour>
    <contour>
      <point x="425" y="471" type="curve" smooth="yes"/>
      <point x="503" y="392"/>
      <point x="444" y="193"/>
      <point x="274" y="185" type="curve"/>
      <point x="220" y="278" type="line"/>
      <point x="488" y="405"/>
      <point x="278" y="646"/>
      <point x="123" y="437" type="curve"/>
      <point x="40" y="543" type="line"/>
      <point x="76" y="567"/>
      <point x="202" y="666"/>
      <point x="273" y="607" type="curve" smooth="yes"/>
      <point x="330" y="559"/>
      <point x="368" y="528"/>
    </contour>
  </outline>
</glyph>
<glyph name="dvU" format="1">
  <advance width="553"/>
  <outline>
    <contour>
      <point x="275" y="619" type="move" name="abvm.bindu"/>
    </contour>
    <contour>
      <point x="-5" y="619" type="line"/>
      <point x="559" y="619" type="line"/>
      <point x="559" y="523" type="line"/>
      <point x="-5" y="523" type="line"/>
    </contour>
    <contour>
      <point x="365" y="321" type="line"/>
      <point x="414" y="288"/>
      <point x="513" y="214"/>
      <point x="525" y="162" type="curve" smooth="yes"/>
      <point x="548" y="59"/>
      <point x="325" y="-62"/>
      <point x="224" y="-2" type="curve" smooth="yes"/>
      <point x="153" y="41"/>
      <point x="104" y="128"/>
      <point x="24" y="257" type="curve"/>
      <point x="51" y="275" type="line"/>
      <point x="114" y="188"/>
      <point x="191" y="25"/>
      <point x="345" y="107" type="curve" smooth="yes"/>
      <point x="437" y="156"/>
      <point x="415" y="228"/>
      <point x="337" y="293" type="curve"/>
    </contour>
    <contour>
      <point x="413" y="396" type="curve" smooth="yes"/>
      <point x="410" y="369"/>
      <point x="405" y="296"/>
      <point x="239" y="250" type="curve"/>
      <point x="178" y="335" type="line"/>
      <point x="252" y="368"/>
      <point x="399" y="396"/>
      <point x="240" y="533" type="curve"/>
      <point x="271" y="544" type="line"/>
      <point x="297" y="538"/>
      <point x="418" y="444"/>
    </contour>
  </outline>
</glyph>
<glyph name="dvV" format="1">
  <advance width="382"/>
  <outline>
    <contour>
      <point x="422" y="314" type="line"/>
      <point x="272" y="445"/>
      <point x="98" y="258"/>
      <point x="152" y="201" type="curve" smooth="yes"/>
      <point x="179" y="171"/>
      <point x="308" y="123"/>
      <point x="423" y="314" type="curve"/>
      <point x="486" y="313" type="line"/>
      <point x="486" y="313"/>
      <point x="409" y="74"/>
      <point x="273" y="71" type="curve" smooth="yes"/>
      <point x="167" y="69"/>
      <point x="92" y="191"/>
      <point x="55" y="263" type="curve" smooth="yes"/>
      <point x="10" y="348"/>
      <point x="229" y="500"/>
      <point x="288" y="460" type="curve" smooth="yes"/>
      <point x="322" y="436"/>
      <point x="440" y="350"/>
      <point x="486" y="313" type="curve"/>
    </contour>
    <contour>
      <point x="-7" y="619" type="line"/>
      <point x="479" y="619" type="line"/>
      <point x="479" y="523" type="line"/>
      <point x="-7" y="523" type="line"/>
    </contour>
  </outline>
</glyph>
<glyph name="dvV_R" format="1">
  <advance width="392"/>
  <outline>
    <contour>
      <point x="447" y="203" type="line"/>
      <point x="416" y="153"/>
      <point x="303" y="34"/>
      <point x="208" y="-56" type="curve"/>
      <point x="124" y="10" type="line"/>
      <point x="213" y="76"/>
      <point x="354" y="179"/>
      <point x="416" y="252" type="curve"/>
    </contour>
    <component base="dvV"/>
  </outline>
</glyph>
<glyph name="dvY" format="1">
  <advance width="470"/>
  <outline>
    <contour>
      <point x="-7" y="523" type="line"/>
      <point x="545" y="523" type="line"/>
      <point x="545" y="619" type="line"/>
      <point x="-7" y="619" type="line"/>
    </contour>
    <contour>
      <point x="490" y="354" type="line"/>
      <point x="428" y="218"/>
      <point x="269" y="96"/>
      <point x="139" y="231" type="curve"/>
      <point x="227" y="309"/>
      <point x="300" y="364"/>
      <point x="295" y="426" type="curve" smooth="yes"/>
      <point x="291" y="473"/>
      <point x="230" y="537"/>
      <point x="156" y="568" type="curve"/>
      <point x="130" y="554" type="line"/>
      <point x="203" y="495"/>
      <point x="218" y="459"/>
      <point x="121" y="370" type="curve" smooth="yes"/>
      <point x="87" y="338"/>
      <point x="21" y="295"/>
      <point x="24" y="284" type="curve" smooth="yes"/>
      <point x="32" y="259"/>
      <point x="200" y="71"/>
      <point x="322" y="71" type="curve" smooth="yes"/>
      <point x="407" y="71"/>
      <point x="480" y="161"/>
      <point x="509" y="200" type="curve"/>
    </contour>
  </outline>
</glyph>
<glyph name="dvmII.aLong" format="1">
  <advance width="252"/>
  <outline>
    <contour>
      <point x="-6" y="522" type="line"/>
      <point x="271" y="522" type="line"/>
      <point x="271" y="619" type="line"/>
      <point x="-6" y="618" type="line"/>
    </contour>
    <contour>
      <point x="70" y="0" type="line"/>
      <point x="194" y="-56" type="line"/>
      <point x="194" y="537" type="line"/>
      <point x="70" y="537" type="line"/>
    </contour>
    <contour>
      <point x="-368" y="605" type="line"/>
      <point x="-486" y="671"/>
      <point x="-379" y="848"/>
      <point x="-187" y="751" type="curve" smooth="yes"/>
      <point x="106" y="603" type="line" smooth="yes"/>
      <point x="108" y="602"/>
      <point x="162" y="601"/>
      <point x="162" y="601" type="curve"/>
      <point x="31" y="689"/>
      <point x="-248" y="862"/>
      <point x="-344" y="862" type="curve" smooth="yes"/>
      <point x="-422" y="862"/>
      <point x="-505" y="801"/>
      <point x="-536" y="751" type="curve" smooth="yes"/>
      <point x="-562" y="710"/>
      <point x="-516" y="642"/>
      <point x="-473" y="605" type="curve"/>
    </contour>
  </outline>
</glyph>
<glyph name="dvmII" format="1">
  <advance width="226"/>
  <outline>
    <contour>
      <point x="32" y="538" type="line"/>
      <point x="156" y="538" type="line"/>
      <point x="156" y="-55" type="line"/>
      <point x="32" y="1" type="line"/>
    </contour>
    <contour>
      <point x="-44" y="619" type="line"/>
      <point x="233" y="619" type="line"/>
      <point x="233" y="523" type="line"/>
      <point x="-44" y="523" type="line"/>
    </contour>
    <contour>
      <point x="-225" y="605" type="line"/>
      <point x="-267" y="643"/>
      <point x="-324" y="711"/>
      <point x="-299" y="752" type="curve" smooth="yes"/>
      <point x="-267" y="803"/>
      <point x="-197" y="864"/>
      <point x="-120" y="864" type="curve" smooth="yes"/>
      <point x="-64" y="864"/>
      <point x="15" y="728"/>
      <point x="119" y="602" type="curve"/>
      <point x="119" y="602"/>
      <point x="69" y="600"/>
      <point x="68" y="601" type="curve" smooth="yes"/>
      <point x="-17" y="699" type="line"/>
      <point x="-136" y="833"/>
      <point x="-216" y="747"/>
      <point x="-211" y="705" type="curve" smooth="yes"/>
      <point x="-207" y="663"/>
      <point x="-163" y="621"/>
      <point x="-147" y="604" type="curve"/>
    </contour>
  </outline>
</glyph>
<glyph name="dvmI.a11" format="1">
  <advance width="270"/>
  <outline>
    <contour>
      <point x="1136" y="587" type="move" name="abvm.i"/>
    </contour>
    <contour>
      <point x="73" y="536" type="line"/>
      <point x="197" y="536" type="line"/>
      <point x="197" y="-57" type="line"/>
      <point x="73" y="-1" type="line"/>
    </contour>
    <contour>
      <point x="-3" y="619" type="line"/>
      <point x="274" y="619" type="line"/>
      <point x="274" y="523" type="line"/>
      <point x="-3" y="523" type="line"/>
    </contour>
    <contour>
      <point x="80" y="604" type="line"/>
      <point x="38" y="641"/>
      <point x="12" y="722"/>
      <point x="27" y="764" type="curve" smooth="yes"/>
      <point x="43" y="807"/>
      <point x="262" y="860"/>
      <point x="300" y="860" type="curve" smooth="yes"/>
      <point x="387" y="860"/>
      <point x="1097" y="625"/>
      <point x="1153" y="600" type="curve"/>
      <point x="1089" y="601" type="line"/>
      <point x="697" y="736"/>
      <point x="-20" y="893"/>
      <point x="196" y="604" type="curve"/>
    </contour>
  </outline>
</glyph>
<glyph name="dvmI.a15" format="1">
  <advance width="270"/>
  <outline>
    <contour>
      <point x="1323" y="587" type="move" name="abvm.i"/>
    </contour>
    <contour>
      <point x="73" y="536" type="line"/>
      <point x="197" y="536" type="line"/>
      <point x="197" y="-57" type="line"/>
      <point x="73" y="-1" type="line"/>
    </contour>
    <contour>
      <point x="-3" y="619" type="line"/>
      <point x="274" y="619" type="line"/>
      <point x="274" y="523" type="line"/>
      <point x="-3" y="523" type="line"/>
    </contour>
    <contour>
      <point x="80" y="604" type="line"/>
      <point x="38" y="641"/>
      <point x="12" y="722"/>
      <point x="27" y="764" type="curve" smooth="yes"/>
      <point x="43" y="807"/>
      <point x="302" y="870"/>
      <point x="340" y="870" type="curve" smooth="yes"/>
      <point x="427" y="870"/>
      <point x="1108" y="684"/>
      <point x="1343" y="600" type="curve"/>
      <point x="1279" y="601" type="line"/>
      <point x="853" y="695"/>
      <point x="-27" y="915"/>
      <point x="196" y="604" type="curve"/>
    </contour>
  </outline>
</glyph>
<glyph name="dvmI.a16" format="1">
  <advance width="273"/>
  <outline>
    <contour>
      <point x="1358" y="587" type="move" name="abvm.i"/>
    </contour>
    <contour>
      <point x="-3" y="619" type="line"/>
      <point x="66" y="619" type="line"/>
      <point x="32" y="660"/>
      <point x="14" y="727"/>
      <point x="27" y="764" type="curve" smooth="yes"/>
      <point x="43" y="807"/>
      <point x="302" y="870"/>
      <point x="340" y="870" type="curve" smooth="yes"/>
      <point x="427" y="870"/>
      <point x="1138" y="684"/>
      <point x="1373" y="600" type="curve"/>
      <point x="1309" y="601" type="line"/>
      <point x="891" y="692"/>
      <point x="15" y="909"/>
      <point x="186" y="619" type="curve"/>
      <point x="274" y="619" type="line"/>
      <point x="274" y="523" type="line"/>
      <point x="197" y="523" type="line"/>
      <point x="197" y="-57" type="line"/>
      <point x="73" y="-1" type="line"/>
      <point x="73" y="523" type="line"/>
      <point x="-3" y="523" type="line"/>
    </contour>
  </outline>
</glyph>
<glyph name="dvmI.a18" format="1">
  <advance width="273"/>
  <outline>
    <contour>
      <point x="1437" y="587" type="move" name="abvm.i"/>
    </contour>
    <contour>
      <point x="73" y="536" type="line"/>
      <point x="197" y="536" type="line"/>
      <point x="197" y="-57" type="line"/>
      <point x="73" y="-1" type="line"/>
    </contour>
    <contour>
      <point x="-3" y="619" type="line"/>
      <point x="274" y="619" type="line"/>
      <point x="274" y="523" type="line"/>
      <point x="-3" y="523" type="line"/>
    </contour>
    <contour>
      <point x="73" y="536" type="line"/>
      <point x="197" y="536" type="line"/>
      <point x="197" y="-57" type="line"/>
      <point x="73" y="-1" type="line"/>
    </contour>
    <contour>
      <point x="-3" y="619" type="line"/>
      <point x="274" y="619" type="line"/>
      <point x="274" y="523" type="line"/>
      <point x="-3" y="523" type="line"/>
    </contour>
    <contour>
      <point x="80" y="604" type="line"/>
      <point x="74" y="667"/>
      <point x="64" y="721"/>
      <point x="79" y="763" type="curve" smooth="yes"/>
      <point x="95" y="806"/>
      <point x="603" y="860"/>
      <point x="641" y="860" type="curve" smooth="yes"/>
      <point x="728" y="860"/>
      <point x="1407" y="625"/>
      <point x="1463" y="600" type="curve"/>
      <point x="1359" y="601" type="line"/>
      <point x="993" y="718"/>
      <point x="705" y="771"/>
      <point x="507" y="750" type="curve" smooth="yes"/>
      <point x="403" y="739"/>
      <point x="174" y="730"/>
      <point x="196" y="604" type="curve"/>
    </contour>
  </outline>
</glyph>
<glyph name="dvmI.a19" format="1">
  <advance width="287"/>
  <outline>
    <contour>
      <point x="1472" y="587" type="move" name="abvm.i"/>
    </contour>
  </outline>
</glyph>
<glyph name="dvmI.a20" format="1">
  <advance width="287"/>
  <outline>
    <contour>
      <point x="1508" y="587" type="move" name="abvm.i"/>
    </contour>
  </outline>
</glyph>
<glyph name="dvmI" format="1">
  <advance width="269"/>
  <outline>
    <contour>
      <point x="73" y="536" type="line"/>
      <point x="197" y="536" type="line"/>
      <point x="197" y="-57" type="line"/>
      <point x="73" y="-1" type="line"/>
    </contour>
    <contour>
      <point x="-3" y="619" type="line"/>
      <point x="274" y="619" type="line"/>
      <point x="274" y="523" type="line"/>
      <point x="-3" y="523" type="line"/>
    </contour>
    <contour>
      <point x="80" y="604" type="line"/>
      <point x="38" y="641"/>
      <point x="7" y="703"/>
      <point x="22" y="745" type="curve" smooth="yes"/>
      <point x="38" y="788"/>
      <point x="142" y="862"/>
      <point x="180" y="860" type="curve" smooth="yes"/>
      <point x="232" y="857"/>
      <point x="483" y="693"/>
      <point x="609" y="600" type="curve"/>
      <point x="545" y="601" type="line"/>
      <point x="129" y="868"/>
      <point x="77" y="685"/>
      <point x="186" y="604" type="curve"/>
    </contour>
  </outline>
</glyph>
<glyph name="dvmUU" format="1">
  <advance width="0"/>
  <outline>
    <contour>
      <point x="-163" y="16" type="move" name="_blwm.u"/>
    </contour>
    <contour>
      <point x="-184" y="-316" type="curve" smooth="yes"/>
      <point x="-212" y="-310"/>
      <point x="-283" y="-241"/>
      <point x="-330" y="-192" type="curve" smooth="yes"/>
      <point x="-416" y="-101"/>
      <point x="-261" y="41"/>
      <point x="-139" y="21" type="curve" smooth="yes"/>
      <point x="-93" y="13"/>
      <point x="64" y="-123"/>
      <point x="173" y="-231" type="curve"/>
      <point x="155" y="-252" type="line"/>
      <point x="-31" y="-111"/>
      <point x="-125" y="-16"/>
      <point x="-216" y="-89" type="curve" smooth="yes"/>
      <point x="-291" y="-149"/>
      <point x="-216" y="-252"/>
      <point x="-135" y="-213" type="curve" smooth="yes"/>
      <point x="-85" y="-189" type="line"/>
      <point x="-23" y="-263" type="line"/>
      <point x="-78" y="-296"/>
      <point x="-161" y="-322"/>
    </contour>
  </outline>
</glyph>
<glyph name="dvmvR" format="1">
  <advance width="0"/>
  <outline>
    <contour>
      <point x="-218" y="-10" type="move" name="_blwm.virama"/>
    </contour>
    <contour>
      <point x="-201" y="16" type="curve"/>
      <point x="-92" y="-56" type="line"/>
      <point x="-444" y="-97"/>
      <point x="-236" y="-290"/>
      <point x="-112" y="-160" type="curve"/>
      <point x="0" y="-225" type="line"/>
      <point x="-86" y="-314"/>
      <point x="-206" y="-298"/>
      <point x="-238" y="-270" type="curve" smooth="yes"/>
      <point x="-282" y="-231"/>
      <point x="-323" y="-195"/>
      <point x="-359" y="-146" type="curve" smooth="yes"/>
      <point x="-412" y="-74"/>
      <point x="-368" y="-29"/>
    </contour>
  </outline>
</glyph>
<glyph name="dvvLL" format="1">
  <advance width="741"/>
  <outline>
    <contour>
      <point x="558" y="619" type="move" name="abvm.bindu"/>
    </contour>
    <contour>
      <point x="538" y="619" type="move" name="abvm.e"/>
    </contour>
    <contour>
      <point x="485" y="538" type="line"/>
      <point x="609" y="538" type="line"/>
      <point x="609" y="318" type="line"/>
      <point x="485" y="374" type="line"/>
    </contour>
    <contour>
      <point x="-10" y="619" type="line"/>
      <point x="747" y="619" type="line"/>
      <point x="747" y="523" type="line"/>
      <point x="-10" y="523" type="line"/>
    </contour>
    <contour>
      <point x="624" y="3" type="curve"/>
      <point x="668" y="-61" type="line"/>
      <point x="609" y="-73"/>
      <point x="485" y="-133"/>
      <point x="549" y="-180" type="curve" smooth="yes"/>
      <point x="573" y="-197"/>
      <point x="612" y="-201"/>
      <point x="663" y="-149" type="curve"/>
      <point x="761" y="-203" type="line"/>
      <point x="683" y="-278"/>
      <point x="592" y="-252"/>
      <point x="526" y="-209" type="curve" smooth="yes"/>
      <point x="466" y="-170"/>
      <point x="392" y="-50"/>
    </contour>
    <contour>
      <point x="270" y="185" type="line"/>
      <point x="281" y="232"/>
      <point x="365" y="395"/>
      <point x="484" y="400" type="curve" smooth="yes"/>
      <point x="520" y="401"/>
      <point x="655" y="305"/>
      <point x="683" y="259" type="curve" smooth="yes"/>
      <point x="761" y="132"/>
      <point x="419" y="77"/>
      <point x="576" y="-24" type="curve"/>
      <point x="554" y="-53" type="line"/>
      <point x="524" y="-38"/>
      <point x="493" y="-15"/>
      <point x="471" y="11" type="curve" smooth="yes"/>
      <point x="347" y="155"/>
      <point x="667" y="194"/>
      <point x="577" y="294" type="curve" smooth="yes"/>
      <point x="501" y="381"/>
      <point x="351" y="193"/>
      <point x="350" y="122" type="curve"/>
    </contour>
    <contour>
      <point x="322" y="266" type="line"/>
      <point x="250" y="316"/>
      <point x="194" y="319"/>
      <point x="159" y="285" type="curve" smooth="yes"/>
      <point x="99" y="226"/>
      <point x="175" y="65"/>
      <point x="285" y="-23" type="curve"/>
      <point x="258" y="-57" type="line"/>
      <point x="159" y="30"/>
      <point x="24" y="190"/>
      <point x="16" y="253" type="curve" smooth="yes"/>
      <point x="8" y="319"/>
      <point x="154" y="432"/>
      <point x="209" y="414" type="curve" smooth="yes"/>
      <point x="249" y="401"/>
      <point x="314" y="336"/>
      <point x="350" y="298" type="curve"/>
    </contour>
  </outline>
</glyph>
<glyph name="dvvRR" format="1">
  <advance width="932"/>
  <outline>
    <contour>
      <point x="466" y="662" type="move" name="abvm.bindu"/>
    </contour>
    <contour>
      <point x="466" y="672" type="move" name="abvm.e"/>
    </contour>
  </outline>
</glyph>
